SplineFontDB: 3.2
FontName: SengBuhan-Regular
FullName: SengBuhan Regular
FamilyName: SengBuhan
Weight: Book
Copyright: Copyright (c) 2020 by John M. Durdin. All rights reserved.
Version: 1.400
ItalicAngle: 0
UnderlinePosition: -272
UnderlineWidth: 41
Ascent: 1638
Descent: 410
InvalidEm: 0
sfntRevision: 0x00016666
LayerCount: 2
Layer: 0 1 "+BBcEMAQ0BD0EOAQ5 +BD8EOwQwBD0A" 1
Layer: 1 1 "+BB8ENQRABDUENAQ9BDgEOQAA +BD8EOwQwBD0A" 0
XUID: [1021 465 1806557349 296]
StyleMap: 0x0040
FSType: 0
OS2Version: 4
OS2_WeightWidthSlopeOnly: 0
OS2_UseTypoMetrics: 0
CreationTime: 1638381350
ModificationTime: 1642371328
PfmFamily: 81
TTFWeight: 400
TTFWidth: 5
LineGap: 0
VLineGap: 0
Panose: 0 0 0 0 0 0 0 0 0 0
OS2TypoAscent: 1384
OS2TypoAOffset: 0
OS2TypoDescent: -408
OS2TypoDOffset: 0
OS2TypoLinegap: 0
OS2WinAscent: 2253
OS2WinAOffset: 0
OS2WinDescent: 983
OS2WinDOffset: 0
HheadAscent: 2253
HheadAOffset: 0
HheadDescent: -983
HheadDOffset: 0
OS2SubXSize: 1401
OS2SubYSize: 1300
OS2SubXOff: 0
OS2SubYOff: 240
OS2SupXSize: 1401
OS2SupYSize: 1300
OS2SupXOff: 0
OS2SupYOff: 750
OS2StrikeYSize: 102
OS2StrikeYPos: 649
OS2CapHeight: 1372
OS2XHeight: 1000
OS2Vendor: '    '
OS2CodePages: 00010001.00000000
OS2UnicodeRanges: 8300002f.1000200a.00000000.00000000
Lookup: 6 0 0 "'ccmp' +BBoEPgQ8BD8EPgQ3BDgERgQ4BE8A-/+BDQENQQ6BD4EPAQ/BD4ENwQ4BEYEOARP +BDMEOwQ4BEQEMAAA lookup 0" { "'ccmp' +BBoEPgQ8BD8EPgQ3BDgERgQ4BE8A-/+BDQENQQ6BD4EPAQ/BD4ENwQ4BEYEOARP +BDMEOwQ4BEQEMAAA lookup 0 subtable"  } ['calt' ('DFLT' <'dflt' > 'lao ' <'dflt' > 'latn' <'dflt' > ) 'ccmp' ('DFLT' <'dflt' > 'lao ' <'dflt' > 'latn' <'dflt' > ) ]
Lookup: 6 0 0 "'ccmp' +BBoEPgQ8BD8EPgQ3BDgERgQ4BE8A-/+BDQENQQ6BD4EPAQ/BD4ENwQ4BEYEOARP +BDMEOwQ4BEQEMAAA lookup 1" { "'ccmp' +BBoEPgQ8BD8EPgQ3BDgERgQ4BE8A-/+BDQENQQ6BD4EPAQ/BD4ENwQ4BEYEOARP +BDMEOwQ4BEQEMAAA lookup 1 subtable"  } ['calt' ('DFLT' <'dflt' > 'lao ' <'dflt' > 'latn' <'dflt' > ) 'ccmp' ('DFLT' <'dflt' > 'lao ' <'dflt' > 'latn' <'dflt' > ) ]

StartChar: .notdef
Encoding: 65536 -1 0
Width: 1634
Flags: W
LayerCount: 2
Fore
SplineSet
1432 102 m 1,0,-1
 1432 1536 l 1,1,-1
 203 1536 l 1,2,-1
 203 102 l 1,3,-1
 1432 102 l 1,0,-1
100 0 m 1,4,-1
 100 1638 l 1,5,-1
 1534 1638 l 1,6,-1
 1534 0 l 1,7,-1
 100 0 l 1,4,-1
EndSplineSet
EndChar

StartChar: uni001F
Encoding: 31 31 4
Width: 1000
Flags: W
LayerCount: 2
Fore
SplineSet
100 660 m 1,0,-1
 900 660 l 1,1,-1
 900 535 l 1,2,-1
 100 535 l 1,3,-1
 100 660 l 1,0,-1
EndSplineSet
EndChar

StartChar: exclam
Encoding: 33 33 5
Width: 356
Flags: W
LayerCount: 2
Fore
SplineSet
256 0 m 1,0,-1
 100 0 l 1,1,-1
 100 160 l 1,2,-1
 256 160 l 1,3,-1
 256 0 l 1,0,-1
143 307 m 1,4,5
 110 687.470588235 110 687.470588235 110 1100 c 2,6,-1
 110 1229 l 1,7,-1
 245 1229 l 1,8,-1
 245 1100 l 2,9,10
 245 675.941176471 245 675.941176471 213 307 c 1,11,-1
 143 307 l 1,4,5
EndSplineSet
EndChar

StartChar: quotedbl
Encoding: 34 34 6
Width: 620
Flags: W
LayerCount: 2
Fore
SplineSet
132 950 m 1,0,1
 100 1095.77777778 100 1095.77777778 100 1215.88888889 c 128,-1,2
 100 1336 100 1336 103 1372 c 1,3,-1
 237 1372 l 1,4,5
 240 1336 240 1336 240 1215.88888889 c 128,-1,6
 240 1095.77777778 240 1095.77777778 208 950 c 1,7,-1
 132 950 l 1,0,1
412 950 m 1,8,9
 380 1095.77777778 380 1095.77777778 380 1215.88888889 c 128,-1,10
 380 1336 380 1336 383 1372 c 1,11,-1
 517 1372 l 1,12,13
 520 1336 520 1336 520 1215.88888889 c 128,-1,14
 520 1095.77777778 520 1095.77777778 488 950 c 1,15,-1
 412 950 l 1,8,9
EndSplineSet
EndChar

StartChar: numbersign
Encoding: 35 35 7
Width: 1100
Flags: W
LayerCount: 2
Fore
SplineSet
720 783 m 1,0,-1
 444 783 l 1,1,-1
 383 470 l 1,2,-1
 659 470 l 1,3,-1
 720 783 l 1,0,-1
1000 359 m 1,4,-1
 749 359 l 1,5,-1
 677 0 l 1,6,-1
 571 0 l 1,7,-1
 639 359 l 1,8,-1
 362 359 l 1,9,-1
 294 0 l 1,10,-1
 184 0 l 1,11,-1
 252 359 l 1,12,-1
 100 359 l 1,13,-1
 100 470 l 1,14,-1
 272 470 l 1,15,-1
 332 783 l 1,16,-1
 100 783 l 1,17,-1
 100 895 l 1,18,-1
 358 895 l 1,19,-1
 426 1229 l 1,20,-1
 537 1229 l 1,21,-1
 468 895 l 1,22,-1
 745 895 l 1,23,-1
 813 1229 l 1,24,-1
 926 1229 l 1,25,-1
 856 895 l 1,26,-1
 1000 895 l 1,27,-1
 1000 783 l 1,28,-1
 831 783 l 1,29,-1
 770 470 l 1,30,-1
 1000 470 l 1,31,-1
 1000 359 l 1,4,-1
EndSplineSet
EndChar

StartChar: dollar
Encoding: 36 36 8
Width: 977
Flags: W
LayerCount: 2
Fore
SplineSet
549 96 m 1,0,1
 632.753459119 100.085534591 632.753459119 100.085534591 694 164.5 c 0,2,3
 758 231.810344828 758 231.810344828 758 320 c 0,4,5
 758 450.342105263 758 450.342105263 626 528.5 c 0,6,7
 588 551 588 551 549 564 c 1,8,-1
 549 96 l 1,0,1
447 1134 m 1,9,10
 364.24523034 1127.79339228 364.24523034 1127.79339228 304.5 1067 c 0,11,12
 241 1002.38596491 241 1002.38596491 241 919 c 0,13,14
 241 806.702702703 241 806.702702703 374 742 c 0,15,16
 411 724 411 724 447 713 c 1,17,-1
 447 1134 l 1,9,10
549 682 m 1,18,19
 707.988713318 621.539503386 707.988713318 621.539503386 783.5 549.5 c 0,20,21
 877 460.298850575 877 460.298850575 877 326 c 0,22,23
 877 97.6693548387 877 97.6693548387 694 16.5 c 0,24,25
 632 -11 632 -11 549 -16 c 1,26,-1
 549 -173 l 1,27,-1
 447 -173 l 1,28,-1
 446 -17 l 1,29,30
 155.10539337 -13.4087085601 155.10539337 -13.4087085601 100 331 c 1,31,-1
 217 357 l 1,32,33
 244.917387128 101.090617996 244.917387128 101.090617996 447 94 c 1,34,-1
 447 590 l 1,35,36
 227.840163934 643.022540984 227.840163934 643.022540984 148 797 c 0,37,38
 120 851 120 851 120 918.5 c 128,-1,39
 120 986 120 986 145.5 1045.5 c 128,-1,40
 171 1105 171 1105 215.5 1150 c 0,41,42
 311.428452993 1247.00630078 311.428452993 1247.00630078 447 1249 c 1,43,-1
 447 1322 l 1,44,-1
 549 1322 l 1,45,-1
 549 1249 l 1,46,47
 751.591522678 1246.14659827 751.591522678 1246.14659827 823.5 1085.5 c 0,48,49
 847 1033 847 1033 860 965 c 1,50,-1
 735 946 l 1,51,52
 721.544378698 1037.94674556 721.544378698 1037.94674556 695.272189349 1069.47337278 c 0,53,54
 646.818791946 1127.61744966 646.818791946 1127.61744966 549 1135 c 1,55,-1
 549 682 l 1,18,19
EndSplineSet
EndChar

StartChar: percent
Encoding: 37 37 9
Width: 1517
Flags: W
LayerCount: 2
Fore
SplineSet
1166 80 m 128,-1,1
 1295 80 1295 80 1295 305 c 128,-1,2
 1295 530 1295 530 1166 530 c 128,-1,3
 1037 530 1037 530 1037 305 c 128,-1,0
 1037 80 1037 80 1166 80 c 128,-1,1
1405 427.5 m 128,-1,5
 1417 370 1417 370 1417 307.5 c 128,-1,6
 1417 245 1417 245 1405 186.5 c 128,-1,7
 1393 128 1393 128 1363.5 83.5 c 128,-1,8
 1334 39 1334 39 1286 12 c 128,-1,9
 1238 -15 1238 -15 1166 -15 c 128,-1,10
 1094 -15 1094 -15 1046 12 c 128,-1,11
 998 39 998 39 968.5 83.5 c 0,12,13
 915 164.203389831 915 164.203389831 915 308 c 0,14,15
 915 528.041666667 915 528.041666667 1046 599 c 0,16,17
 1094 625 1094 625 1166 625 c 128,-1,18
 1238 625 1238 625 1286 599 c 128,-1,19
 1334 573 1334 573 1363.5 529 c 128,-1,4
 1393 485 1393 485 1405 427.5 c 128,-1,5
351 701 m 128,-1,21
 480 701 480 701 480 926 c 128,-1,22
 480 1151 480 1151 351 1151 c 128,-1,23
 222 1151 222 1151 222 926 c 128,-1,20
 222 701 222 701 351 701 c 128,-1,21
1160 1229 m 1,24,-1
 497 0 l 1,25,-1
 356 0 l 1,26,-1
 1020 1229 l 1,27,-1
 1160 1229 l 1,24,-1
590 1048.5 m 128,-1,29
 602 991 602 991 602 928.5 c 128,-1,30
 602 866 602 866 590 807.5 c 128,-1,31
 578 749 578 749 548.5 704.5 c 128,-1,32
 519 660 519 660 471 633 c 128,-1,33
 423 606 423 606 351 606 c 128,-1,34
 279 606 279 606 231 633 c 128,-1,35
 183 660 183 660 153.5 704.5 c 0,36,37
 100 785.203389831 100 785.203389831 100 929 c 0,38,39
 100 1149.04166667 100 1149.04166667 231 1220 c 0,40,41
 279 1246 279 1246 351 1246 c 128,-1,42
 423 1246 423 1246 471 1220 c 128,-1,43
 519 1194 519 1194 548.5 1150 c 128,-1,28
 578 1106 578 1106 590 1048.5 c 128,-1,29
EndSplineSet
EndChar

StartChar: ampersand
Encoding: 38 38 10
Width: 1204
Flags: W
LayerCount: 2
Fore
SplineSet
766 259 m 1,0,1
 567.364750236 487.162111216 567.364750236 487.162111216 474 615 c 1,2,3
 366.213425129 558.270223752 366.213425129 558.270223752 321.106712565 515.635111876 c 0,4,5
 228 427.630136986 228 427.630136986 228 333 c 0,6,7
 228 232.882352941 228 232.882352941 302 166.5 c 0,8,9
 375.016393443 101 375.016393443 101 475 101 c 0,10,11
 625.555555556 101 625.555555556 101 766 259 c 1,0,1
684.5 911.5 m 128,-1,13
 705 939 705 939 705 968.5 c 128,-1,14
 705 998 705 998 693.5 1026.5 c 128,-1,15
 682 1055 682 1055 662 1076.5 c 0,16,17
 618.744186047 1123 618.744186047 1123 569.372093023 1123 c 128,-1,18
 520 1123 520 1123 488.5 1110 c 128,-1,19
 457 1097 457 1097 433.5 1075 c 0,20,21
 383 1027.72340426 383 1027.72340426 383 963 c 0,22,23
 383 909.756756757 383 909.756756757 414 870.378378378 c 128,-1,24
 445 831 445 831 466.5 809 c 128,-1,25
 488 787 488 787 507 765 c 1,26,27
 535 785 535 785 569.5 808.5 c 128,-1,28
 604 832 604 832 634 858 c 128,-1,12
 664 884 664 884 684.5 911.5 c 128,-1,13
921 267 m 1,29,30
 996.75 178.625 996.75 178.625 1104 92 c 1,31,-1
 1025 2 l 1,32,33
 975 37 975 37 933 79.5 c 128,-1,34
 891 122 891 122 848 164 c 1,35,36
 738.124528302 37.4767295597 738.124528302 37.4767295597 582 -3 c 0,37,38
 528 -17 528 -17 462 -17 c 128,-1,39
 396 -17 396 -17 328.5 9 c 128,-1,40
 261 35 261 35 210.5 81 c 0,41,42
 100 181.653465347 100 181.653465347 100 331 c 0,43,44
 100 502.509433962 100 502.509433962 298 637 c 0,45,46
 351 673 351 673 401 701 c 1,47,48
 258 861.875 258 861.875 258 963 c 0,49,50
 258 1094.11111111 258 1094.11111111 346.5 1169.5 c 0,51,52
 428.086956522 1239 428.086956522 1239 554 1239 c 0,53,54
 667.904109589 1239 667.904109589 1239 746.5 1162.5 c 0,55,56
 828 1083.17333333 828 1083.17333333 828 965 c 0,57,58
 828 881 828 881 738.5 791.5 c 0,59,60
 679.142857143 732.142857143 679.142857143 732.142857143 582 675 c 1,61,62
 681.125 530.125 681.125 530.125 840 361 c 1,63,64
 877.214057508 408.846645367 877.214057508 408.846645367 892 510.5 c 0,65,66
 896 538 896 538 896 560 c 1,67,-1
 1022 537 l 1,68,69
 995.096385542 365.795180723 995.096385542 365.795180723 921 267 c 1,29,30
EndSplineSet
EndChar

StartChar: quotesingle
Encoding: 39 39 11
Width: 340
Flags: W
LayerCount: 2
Fore
SplineSet
132 950 m 1,0,1
 100 1095.77777778 100 1095.77777778 100 1215.88888889 c 128,-1,2
 100 1336 100 1336 103 1372 c 1,3,-1
 237 1372 l 1,4,5
 240 1336 240 1336 240 1215.88888889 c 128,-1,6
 240 1095.77777778 240 1095.77777778 208 950 c 1,7,-1
 132 950 l 1,0,1
EndSplineSet
EndChar

StartChar: parenleft
Encoding: 40 40 12
Width: 608
Flags: W
LayerCount: 2
Fore
SplineSet
100 635 m 128,-1,1
 100 738 100 738 119.5 837.5 c 128,-1,2
 139 937 139 937 174 1032.5 c 0,3,4
 240.337209302 1213.50581395 240.337209302 1213.50581395 360 1393 c 0,5,6
 368 1405 368 1405 378 1421.5 c 128,-1,7
 388 1438 388 1438 400.5 1453.5 c 0,8,9
 430.741935484 1491 430.741935484 1491 453.870967742 1491 c 128,-1,10
 477 1491 477 1491 492.5 1475.5 c 128,-1,11
 508 1460 508 1460 508 1439.5 c 128,-1,12
 508 1419 508 1419 496 1402.5 c 128,-1,13
 484 1386 484 1386 451.5 1339 c 128,-1,14
 419 1292 419 1292 373 1203.5 c 128,-1,15
 327 1115 327 1115 294 1021.5 c 128,-1,16
 261 928 261 928 242.5 831 c 128,-1,17
 224 734 224 734 224 635 c 128,-1,18
 224 536 224 536 242.5 439 c 128,-1,19
 261 342 261 342 294 248.5 c 0,20,21
 364.8 47.9 364.8 47.9 496 -132.5 c 0,22,23
 508 -149 508 -149 508 -169.5 c 128,-1,24
 508 -190 508 -190 492.5 -205.5 c 128,-1,25
 477 -221 477 -221 459 -221 c 128,-1,26
 441 -221 441 -221 427 -210 c 128,-1,27
 413 -199 413 -199 400.5 -183.5 c 128,-1,28
 388 -168 388 -168 378 -151.5 c 128,-1,29
 368 -135 368 -135 336 -87 c 128,-1,30
 304 -39 304 -39 256.5 51.5 c 128,-1,31
 209 142 209 142 174 237.5 c 128,-1,32
 139 333 139 333 119.5 432.5 c 128,-1,0
 100 532 100 532 100 635 c 128,-1,1
EndSplineSet
EndChar

StartChar: parenright
Encoding: 41 41 13
Width: 558
Flags: W
LayerCount: 2
Fore
SplineSet
458 635 m 128,-1,1
 458 532 458 532 438.5 432.5 c 128,-1,2
 419 333 419 333 384 237.5 c 0,3,4
 317.662790698 56.4941860465 317.662790698 56.4941860465 198 -123 c 1,5,6
 140.833333333 -221 140.833333333 -221 103 -221 c 0,7,8
 81 -221 81 -221 65.5 -205.5 c 128,-1,9
 50 -190 50 -190 50 -169.5 c 128,-1,10
 50 -149 50 -149 62 -132.5 c 128,-1,11
 74 -116 74 -116 107 -69 c 128,-1,12
 140 -22 140 -22 186 66.5 c 128,-1,13
 232 155 232 155 265 248.5 c 128,-1,14
 298 342 298 342 316 439 c 128,-1,15
 334 536 334 536 334 635 c 128,-1,16
 334 734 334 734 316 831 c 128,-1,17
 298 928 298 928 265 1021.5 c 0,18,19
 195.142857143 1219.42857143 195.142857143 1219.42857143 62 1402.5 c 0,20,21
 50 1419 50 1419 50 1439.5 c 128,-1,22
 50 1460 50 1460 65.5 1475.5 c 128,-1,23
 81 1491 81 1491 99 1491 c 128,-1,24
 117 1491 117 1491 131 1480 c 128,-1,25
 145 1469 145 1469 157.5 1453.5 c 0,26,27
 216.661392405 1380.13987342 216.661392405 1380.13987342 282.830696203 1254.06993671 c 128,-1,28
 349 1128 349 1128 384 1032.5 c 128,-1,29
 419 937 419 937 438.5 837.5 c 128,-1,0
 458 738 458 738 458 635 c 128,-1,1
EndSplineSet
EndChar

StartChar: asterisk
Encoding: 42 42 14
Width: 736
Flags: W
LayerCount: 2
Fore
SplineSet
324 1028 m 1,0,1
 317 1101.5 317 1101.5 317 1194 c 1,2,-1
 319 1223 l 1,3,-1
 319 1238 l 1,4,-1
 418 1238 l 1,5,-1
 418 1223 l 1,6,-1
 419 1194 l 1,7,8
 419 1101.5 419 1101.5 412 1028 c 1,9,10
 500 1080 500 1080 598 1112 c 1,11,12
 619.919191919 1071.29292929 619.919191919 1071.29292929 636 1013 c 1,13,14
 528.4 974.819354839 528.4 974.819354839 426 955 c 1,15,-1
 567 794 l 1,16,17
 534.262910798 759.539906103 534.262910798 759.539906103 482 730 c 1,18,19
 417.2 820 417.2 820 368 902 c 1,20,21
 318.8 820 318.8 820 254 730 c 1,22,23
 201.737089202 759.539906103 201.737089202 759.539906103 169 794 c 1,24,25
 203 836 203 836 239 875 c 128,-1,26
 275 914 275 914 310 955 c 1,27,28
 207.6 974.819354839 207.6 974.819354839 100 1013 c 1,29,30
 116.080808081 1071.29292929 116.080808081 1071.29292929 138 1112 c 1,31,32
 236 1080 236 1080 324 1028 c 1,0,1
EndSplineSet
EndChar

StartChar: plus
Encoding: 43 43 15
Width: 1000
Flags: W
LayerCount: 2
Fore
SplineSet
900 580 m 1,0,-1
 570 580 l 1,1,-1
 570 250 l 1,2,-1
 430 250 l 1,3,-1
 430 580 l 1,4,-1
 100 580 l 1,5,-1
 100 720 l 1,6,-1
 430 720 l 1,7,-1
 430 1050 l 1,8,-1
 570 1050 l 1,9,-1
 570 720 l 1,10,-1
 900 720 l 1,11,-1
 900 580 l 1,0,-1
EndSplineSet
EndChar

StartChar: comma
Encoding: 44 44 16
Width: 364
Flags: W
LayerCount: 2
Fore
SplineSet
264 2 m 2,0,1
 264 -87.6551724138 264 -87.6551724138 244.5 -127.327586207 c 0,2,3
 210.915317559 -195.655043587 210.915317559 -195.655043587 135 -245 c 1,4,-1
 100 -189 l 1,5,6
 178.535031847 -147.114649682 178.535031847 -147.114649682 186.5 -59.5 c 0,7,8
 189 -32 189 -32 190 0 c 1,9,-1
 108 0 l 1,10,-1
 108 160 l 1,11,-1
 264 160 l 1,12,-1
 264 2 l 2,0,1
EndSplineSet
EndChar

StartChar: hyphen
Encoding: 45 45 17
Width: 727
Flags: W
LayerCount: 2
Fore
SplineSet
100 660 m 1,0,-1
 627 660 l 1,1,-1
 627 535 l 1,2,-1
 100 535 l 1,3,-1
 100 660 l 1,0,-1
EndSplineSet
Substitution2: "Single Substitution lookup 18 subtable" minus
EndChar

StartChar: period
Encoding: 46 46 18
Width: 356
Flags: W
LayerCount: 2
Fore
SplineSet
256 0 m 1,0,-1
 100 0 l 1,1,-1
 100 160 l 1,2,-1
 256 160 l 1,3,-1
 256 0 l 1,0,-1
EndSplineSet
EndChar

StartChar: slash
Encoding: 47 47 19
Width: 670
Flags: W
LayerCount: 2
Fore
SplineSet
570 1229 m 1,0,-1
 220 0 l 1,1,-1
 100 0 l 1,2,-1
 453 1229 l 1,3,-1
 570 1229 l 1,0,-1
EndSplineSet
EndChar

StartChar: zero
Encoding: 48 48 20
Width: 1071
Flags: W
LayerCount: 2
Fore
SplineSet
533 94 m 0,0,1
 820 94 820 94 820 685 c 0,2,3
 820 1025.28125 820 1025.28125 730 1164.5 c 0,4,5
 658.565656566 1275 658.565656566 1275 533 1275 c 0,6,7
 251 1275 251 1275 251 684.5 c 128,-1,8
 251 94 251 94 533 94 c 0,0,1
971 686 m 0,9,10
 971 611 971 611 964.5 530 c 128,-1,11
 958 449 958 449 940.5 371 c 128,-1,12
 923 293 923 293 892.5 222.5 c 128,-1,13
 862 152 862 152 813.5 98.5 c 0,14,15
 707.887850467 -18 707.887850467 -18 533 -18 c 0,16,17
 352.276190476 -18 352.276190476 -18 246.5 96.5 c 0,18,19
 123.105397766 230.071476646 123.105397766 230.071476646 105 527 c 0,20,21
 100 609 100 609 100 684 c 128,-1,22
 100 759 100 759 106.5 839.5 c 128,-1,23
 113 920 113 920 130.5 998 c 128,-1,24
 148 1076 148 1076 178.5 1146.5 c 128,-1,25
 209 1217 209 1217 257 1271 c 0,26,27
 361 1388 361 1388 533 1388 c 0,28,29
 793.428571429 1388 793.428571429 1388 895 1151 c 0,30,31
 971 973.666666667 971 973.666666667 971 686 c 0,9,10
EndSplineSet
EndChar

StartChar: one
Encoding: 49 49 21
Width: 692
Flags: W
LayerCount: 2
Fore
SplineSet
592 0 m 1,0,-1
 448 0 l 1,1,-1
 448 1106 l 1,2,3
 289.095238095 987.666666667 289.095238095 987.666666667 220.047619048 954.333333333 c 128,-1,4
 151 921 151 921 100 901 c 1,5,-1
 100 1031 l 1,6,7
 200.271234832 1059.2012848 200.271234832 1059.2012848 330.5 1168 c 0,8,9
 465.882463859 1281.1043369 465.882463859 1281.1043369 504 1372 c 1,10,-1
 592 1372 l 1,11,-1
 592 0 l 1,0,-1
EndSplineSet
EndChar

StartChar: two
Encoding: 50 50 22
Width: 1085
Flags: W
LayerCount: 2
Fore
SplineSet
985 0 m 1,0,-1
 100 0 l 1,1,2
 100 196.567164179 100 196.567164179 335 400 c 0,3,4
 402 458 402 458 471.5 515 c 128,-1,5
 541 572 541 572 608 629.5 c 128,-1,6
 675 687 675 687 727 748 c 0,7,8
 843 884.076923077 843 884.076923077 843 1017 c 0,9,10
 843 1125.17808219 843 1125.17808219 763.5 1202.5 c 0,11,12
 685.873239437 1278 685.873239437 1278 572 1278 c 0,13,14
 378.695238095 1278 378.695238095 1278 304 1107.5 c 0,15,16
 281 1055 281 1055 273 992 c 1,17,-1
 129 1012 l 1,18,19
 150.740345915 1189.87555749 150.740345915 1189.87555749 269 1290.5 c 0,20,21
 385.93814433 1390 385.93814433 1390 565 1390 c 0,22,23
 754 1390 754 1390 866 1294 c 0,24,25
 985 1192 985 1192 985 1006 c 0,26,27
 985 808.75 985 808.75 789 614.5 c 0,28,29
 700.928309572 527.214663951 700.928309572 527.214663951 596.464154786 442.607331976 c 128,-1,30
 492 358 492 358 440.5 311.5 c 0,31,32
 322.868160844 205.288727752 322.868160844 205.288727752 298 134 c 1,33,-1
 985 134 l 1,34,-1
 985 0 l 1,0,-1
EndSplineSet
EndChar

StartChar: three
Encoding: 51 51 23
Width: 1076
Flags: W
LayerCount: 2
Fore
SplineSet
907 1030 m 0,0,1
 907 832 907 832 743 750 c 1,2,3
 908.643678161 672.050033807 908.643678161 672.050033807 959 519.5 c 0,4,5
 976 468 976 468 976 391 c 128,-1,6
 976 314 976 314 937 235.5 c 128,-1,7
 898 157 898 157 833 100.5 c 0,8,9
 696.672566372 -18 696.672566372 -18 505 -18 c 0,10,11
 344.9375 -18 344.9375 -18 235.5 84 c 0,12,13
 130.821382008 181.564537158 130.821382008 181.564537158 100 348 c 1,14,-1
 220 354 l 1,15,16
 269.372061786 176.260577569 269.372061786 176.260577569 404.5 122.5 c 0,17,18
 451 104 451 104 513 104 c 128,-1,19
 575 104 575 104 633 126 c 128,-1,20
 691 148 691 148 733.5 187.5 c 0,21,22
 826 273.470588235 826 273.470588235 826 407 c 0,23,24
 826 678 826 678 525 678 c 0,25,26
 492.5 678 492.5 678 435 673 c 1,27,-1
 454 783 l 1,28,29
 582.163934426 783 582.163934426 783 668 842.5 c 0,30,31
 765 909.738636364 765 909.738636364 765 1031 c 0,32,33
 765 1127.23529412 765 1127.23529412 693 1195 c 0,34,35
 618.625 1265 618.625 1265 516 1265 c 0,36,37
 409.524590164 1265 409.524590164 1265 351 1205.5 c 0,38,39
 299.823529412 1153.47058824 299.823529412 1153.47058824 255 1019 c 1,40,-1
 116 1045 l 1,41,42
 176.501156515 1290.18889746 176.501156515 1290.18889746 371 1363.5 c 0,43,44
 436 1388 436 1388 515 1388 c 128,-1,45
 594 1388 594 1388 665 1362.5 c 128,-1,46
 736 1337 736 1337 790 1290.5 c 0,47,48
 907 1189.75 907 1189.75 907 1030 c 0,0,1
EndSplineSet
EndChar

StartChar: four
Encoding: 52 52 24
Width: 1123
Flags: W
LayerCount: 2
Fore
SplineSet
702 1114 m 1,0,-1
 251 465 l 1,1,-1
 702 465 l 1,2,-1
 702 1114 l 1,0,-1
1023 340 m 1,3,-1
 837 340 l 1,4,-1
 837 0 l 1,5,-1
 702 0 l 1,6,-1
 702 340 l 1,7,-1
 100 340 l 1,8,-1
 100 474 l 1,9,-1
 726 1372 l 1,10,-1
 837 1372 l 1,11,-1
 837 465 l 1,12,-1
 1023 465 l 1,13,-1
 1023 340 l 1,3,-1
EndSplineSet
EndChar

StartChar: five
Encoding: 53 53 25
Width: 1076
Flags: W
LayerCount: 2
Fore
SplineSet
915 1372 m 1,0,-1
 915 1244 l 1,1,-1
 371 1244 l 1,2,3
 360 1187 360 1187 349 1136 c 128,-1,4
 338 1085 338 1085 327.5 1035.5 c 0,5,6
 299.581395349 903.88372093 299.581395349 903.88372093 285 827 c 1,7,8
 335.732019704 874.747783251 335.732019704 874.747783251 463.5 890.5 c 0,9,10
 500 895 500 895 563.5 895 c 128,-1,11
 627 895 627 895 708 859.5 c 128,-1,12
 789 824 789 824 848.5 762.5 c 0,13,14
 976 630.714285714 976 630.714285714 976 443 c 0,15,16
 976 248.424 976 248.424 841.5 115 c 0,17,18
 707.427419355 -18 707.427419355 -18 514 -18 c 0,19,20
 349.202247191 -18 349.202247191 -18 232 73.5 c 0,21,22
 107.684164287 170.553591039 107.684164287 170.553591039 100 330 c 1,23,-1
 234 349 l 1,24,25
 254.059435364 238.673105498 254.059435364 238.673105498 329.5 171.5 c 0,26,27
 406.430769231 103 406.430769231 103 515 103 c 0,28,29
 651.695652174 103 651.695652174 103 743 203 c 0,30,31
 833 301.571428571 833 301.571428571 833 440 c 0,32,33
 833 578.75 833 578.75 751 671 c 0,34,35
 663.888888889 769 663.888888889 769 526 769 c 0,36,37
 428.172413793 769 428.172413793 769 380.586206897 749 c 0,38,39
 295.953020134 713.429530201 295.953020134 713.429530201 247 640 c 1,40,-1
 116 659 l 1,41,-1
 253 1372 l 1,42,-1
 915 1372 l 1,0,-1
EndSplineSet
EndChar

StartChar: six
Encoding: 54 54 26
Width: 1082
Flags: W
LayerCount: 2
Fore
SplineSet
565.5 106 m 0,0,1
 635 106 635 106 686.5 135 c 128,-1,2
 738 164 738 164 771.5 211.5 c 128,-1,3
 805 259 805 259 821.5 319.5 c 128,-1,4
 838 380 838 380 838 443 c 128,-1,5
 838 506 838 506 818 564.5 c 128,-1,6
 798 623 798 623 761.5 668 c 0,7,8
 681.2 767 681.2 767 559 767 c 0,9,10
 434.912087912 767 434.912087912 767 354 667.5 c 0,11,12
 277 572.810810811 277 572.810810811 277 440 c 0,13,14
 277 303.410958904 277 303.410958904 351.5 208.5 c 0,15,16
 431.956989247 106 431.956989247 106 565.5 106 c 0,0,1
229 685 m 1,17,18
 274 788 274 788 362.5 840.5 c 128,-1,19
 451 893 451 893 552.5 893 c 128,-1,20
 654 893 654 893 731 855.5 c 128,-1,21
 808 818 808 818 863.5 755 c 128,-1,22
 919 692 919 692 950.5 609.5 c 128,-1,23
 982 527 982 527 982 436 c 128,-1,24
 982 345 982 345 950.5 263 c 128,-1,25
 919 181 919 181 863.5 118.5 c 0,26,27
 742.288 -18 742.288 -18 564 -18 c 0,28,29
 327.899224806 -18 327.899224806 -18 206 194.5 c 0,30,31
 100 379.283783784 100 379.283783784 100 654 c 0,32,33
 100 936.375 100 936.375 199 1138.5 c 0,34,35
 274.600673023 1292.85137409 274.600673023 1292.85137409 410.5 1355.5 c 0,36,37
 481 1388 481 1388 562 1388 c 128,-1,38
 643 1388 643 1388 705 1366 c 128,-1,39
 767 1344 767 1344 816.5 1303.5 c 0,40,41
 919.14084507 1219.52112676 919.14084507 1219.52112676 959 1084 c 1,42,43
 903.75 1050 903.75 1050 835 1050 c 1,44,45
 813 1158 813 1158 743 1211.5 c 128,-1,46
 673 1265 673 1265 589 1265 c 128,-1,47
 505 1265 505 1265 455 1238.5 c 128,-1,48
 405 1212 405 1212 367 1167 c 128,-1,49
 329 1122 329 1122 303 1063 c 128,-1,50
 277 1004 277 1004 260.5 939.5 c 0,51,52
 231.384488449 825.684818482 231.384488449 825.684818482 229 685 c 1,17,18
EndSplineSet
EndChar

StartChar: seven
Encoding: 55 55 27
Width: 1064
Flags: W
LayerCount: 2
Fore
SplineSet
297 0 m 1,0,1
 336.248664173 606.570264494 336.248664173 606.570264494 785 1245 c 1,2,-1
 100 1245 l 1,3,-1
 100 1372 l 1,4,-1
 964 1372 l 1,5,-1
 964 1261 l 1,6,7
 762.044633369 998.458023379 762.044633369 998.458023379 610.5 663 c 0,8,9
 438.829924543 282.992454329 438.829924543 282.992454329 436 0 c 1,10,-1
 297 0 l 1,0,1
EndSplineSet
EndChar

StartChar: eight
Encoding: 56 56 28
Width: 1072
Flags: W
LayerCount: 2
Fore
SplineSet
828 383.5 m 0,0,1
 828 444 828 444 806 495 c 128,-1,2
 784 546 784 546 745 583 c 0,3,4
 661.72972973 662 661.72972973 662 535 662 c 0,5,6
 413.586666667 662 413.586666667 662 331 580.5 c 0,7,8
 250 500.565789474 250 500.565789474 250 386 c 0,9,10
 250 255.842105263 250 255.842105263 329 181 c 128,-1,11
 408.166666667 106 408.166666667 106 538 106 c 0,12,13
 663.783783784 106 663.783783784 106 746 184 c 0,14,15
 828 261.794871795 828 261.794871795 828 383.5 c 0,0,1
773 1036.5 m 0,16,17
 773 1085 773 1085 754 1126.5 c 128,-1,18
 735 1168 735 1168 702.5 1198.5 c 0,19,20
 632.704918033 1264 632.704918033 1264 536 1264 c 0,21,22
 441.721311475 1264 441.721311475 1264 373 1198.5 c 0,23,24
 304 1132.734375 304 1132.734375 304 1038 c 0,25,26
 304 940.587301587 304 940.587301587 372.5 871 c 0,27,28
 440.421875 802 440.421875 802 538 802 c 0,29,30
 632.825396825 802 632.825396825 802 703.5 870.5 c 0,31,32
 773 937.861538462 773 937.861538462 773 1036.5 c 0,16,17
707 737 m 1,33,34
 885.1 689.05 885.1 689.05 950 515 c 0,35,36
 972 456 972 456 972 373 c 128,-1,37
 972 290 972 290 937.5 215.5 c 128,-1,38
 903 141 903 141 843.5 89 c 0,39,40
 721.067307692 -18 721.067307692 -18 536 -18 c 0,41,42
 352.990566038 -18 352.990566038 -18 229.5 92 c 0,43,44
 100 207.352941176 100 207.352941176 100 387 c 0,45,46
 100 523.8 100 523.8 182.5 619.5 c 0,47,48
 255.972461274 704.728055077 255.972461274 704.728055077 370 737 c 1,49,50
 269 775 269 775 216.5 853 c 128,-1,51
 164 931 164 931 164 1022 c 128,-1,52
 164 1113 164 1113 194.5 1177 c 128,-1,53
 225 1241 225 1241 276 1288 c 0,54,55
 384.510638298 1388 384.510638298 1388 536 1388 c 0,56,57
 692.408602151 1388 692.408602151 1388 801.5 1289.5 c 0,58,59
 914 1187.9223301 914 1187.9223301 914 1036 c 128,-1,60
 914 884.013333333 914 884.013333333 787.5 784.5 c 0,61,62
 750 755 750 755 707 737 c 1,33,34
EndSplineSet
EndChar

StartChar: nine
Encoding: 57 57 29
Width: 1082
Flags: W
LayerCount: 2
Fore
SplineSet
524.5 1264 m 0,0,1
 456 1264 456 1264 403.5 1234.5 c 128,-1,2
 351 1205 351 1205 315.5 1157 c 0,3,4
 245 1061.67605634 245 1061.67605634 245 927 c 0,5,6
 245 795.2 245 795.2 323.5 701 c 0,7,8
 406.833333333 601 406.833333333 601 529 601 c 0,9,10
 648.64516129 601 648.64516129 601 731 704.5 c 0,11,12
 808 801.27027027 808 801.27027027 808 932 c 0,13,14
 808 1067.20833333 808 1067.20833333 735 1161.5 c 0,15,16
 655.64516129 1264 655.64516129 1264 524.5 1264 c 0,0,1
856 685 m 1,17,18
 812 581 812 581 723 527.5 c 128,-1,19
 634 474 634 474 531.5 474 c 128,-1,20
 429 474 429 474 351.5 510.5 c 128,-1,21
 274 547 274 547 218.5 609.5 c 128,-1,22
 163 672 163 672 131.5 754.5 c 128,-1,23
 100 837 100 837 100 928 c 128,-1,24
 100 1019 100 1019 131 1102.5 c 128,-1,25
 162 1186 162 1186 218 1249.5 c 0,26,27
 340.141732283 1388 340.141732283 1388 519 1388 c 0,28,29
 825.308724832 1388 825.308724832 1388 936.5 1035.5 c 0,30,31
 982 891.255319149 982 891.255319149 982 714 c 0,32,33
 982 430.75 982 430.75 883 230 c 0,34,35
 807.686533384 77.2810260279 807.686533384 77.2810260279 671.5 14.5 c 0,36,37
 601 -18 601 -18 518 -18 c 128,-1,38
 435 -18 435 -18 373 4 c 128,-1,39
 311 26 311 26 262.5 66 c 0,40,41
 166.457809695 145.21005386 166.457809695 145.21005386 123 288 c 1,42,43
 179 316 179 316 250 316 c 1,44,45
 271 210 271 210 341.5 157 c 128,-1,46
 412 104 412 104 494 104 c 128,-1,47
 576 104 576 104 626.5 131 c 128,-1,48
 677 158 677 158 715 203 c 128,-1,49
 753 248 753 248 780 307 c 128,-1,50
 807 366 807 366 824 430.5 c 0,51,52
 856 551.911764706 856 551.911764706 856 685 c 1,17,18
EndSplineSet
EndChar

StartChar: colon
Encoding: 58 58 30
Width: 354
Flags: W
LayerCount: 2
Fore
SplineSet
254 0 m 1,0,-1
 100 0 l 1,1,-1
 100 160 l 1,2,-1
 254 160 l 1,3,-1
 254 0 l 1,0,-1
254 721 m 1,4,-1
 100 721 l 1,5,-1
 100 879 l 1,6,-1
 254 879 l 1,7,-1
 254 721 l 1,4,-1
EndSplineSet
EndChar

StartChar: semicolon
Encoding: 59 59 31
Width: 364
Flags: W
LayerCount: 2
Fore
SplineSet
264 2 m 2,0,1
 264 -87.6551724138 264 -87.6551724138 244.5 -127.327586207 c 0,2,3
 210.915317559 -195.655043587 210.915317559 -195.655043587 135 -245 c 1,4,-1
 100 -189 l 1,5,6
 178.535031847 -147.114649682 178.535031847 -147.114649682 186.5 -59.5 c 0,7,8
 189 -32 189 -32 190 0 c 1,9,-1
 108 0 l 1,10,-1
 108 160 l 1,11,-1
 264 160 l 1,12,-1
 264 2 l 2,0,1
264 721 m 1,13,-1
 110 721 l 1,14,-1
 110 879 l 1,15,-1
 264 879 l 1,16,-1
 264 721 l 1,13,-1
EndSplineSet
EndChar

StartChar: less
Encoding: 60 60 32
Width: 994
Flags: W
LayerCount: 2
Fore
SplineSet
894 184 m 1,0,-1
 100 534 l 1,1,-1
 100 666 l 1,2,-1
 894 1006 l 1,3,-1
 894 869 l 1,4,-1
 252 598 l 1,5,-1
 894 312 l 1,6,-1
 894 184 l 1,0,-1
EndSplineSet
EndChar

StartChar: equal
Encoding: 61 61 33
Width: 987
Flags: W
LayerCount: 2
Fore
SplineSet
887 400 m 1,0,-1
 100 400 l 1,1,-1
 100 540 l 1,2,-1
 887 540 l 1,3,-1
 887 400 l 1,0,-1
887 760 m 1,4,-1
 100 760 l 1,5,-1
 100 900 l 1,6,-1
 887 900 l 1,7,-1
 887 760 l 1,4,-1
EndSplineSet
EndChar

StartChar: greater
Encoding: 62 62 34
Width: 993
Flags: W
LayerCount: 2
Fore
SplineSet
893 534 m 1,0,-1
 100 184 l 1,1,-1
 100 312 l 1,2,-1
 742 598 l 1,3,-1
 100 869 l 1,4,-1
 100 1006 l 1,5,-1
 893 666 l 1,6,-1
 893 534 l 1,0,-1
EndSplineSet
EndChar

StartChar: question
Encoding: 63 63 35
Width: 973
Flags: W
LayerCount: 2
Fore
SplineSet
560 0 m 1,0,-1
 403 0 l 1,1,-1
 403 160 l 1,2,-1
 560 160 l 1,3,-1
 560 0 l 1,0,-1
100 922 m 1,4,5
 129 1004 129 1004 158.5 1064.5 c 128,-1,6
 188 1125 188 1125 230.5 1164.5 c 0,7,8
 314.962025316 1243 314.962025316 1243 490 1243 c 0,9,10
 644.048192771 1243 644.048192771 1243 754 1158.5 c 0,11,12
 873 1067.0462963 873 1067.0462963 873 917 c 0,13,14
 873 773 873 773 768 675 c 0,15,16
 738 647 738 647 707 620 c 128,-1,17
 676 593 676 593 646 564 c 128,-1,18
 616 535 616 535 592.5 498.5 c 0,19,20
 540.796745152 418.194944598 540.796745152 418.194944598 539 305 c 1,21,-1
 426 305 l 1,22,23
 426 480.469879518 426 480.469879518 585.5 651.5 c 0,24,25
 686.995697383 760.332735748 686.995697383 760.332735748 715.997848691 812.166367874 c 128,-1,26
 745 864 745 864 745 913 c 128,-1,27
 745 962 745 962 722.5 1005.5 c 128,-1,28
 700 1049 700 1049 663 1080.5 c 0,29,30
 584.888888889 1147 584.888888889 1147 483 1147 c 0,31,32
 327.292134831 1147 327.292134831 1147 257.5 995.5 c 0,33,34
 237 951 237 951 228 900 c 1,35,36
 153.166666667 900 153.166666667 900 100 922 c 1,4,5
EndSplineSet
EndChar

StartChar: at
Encoding: 64 64 36
Width: 1759
Flags: W
LayerCount: 2
Fore
SplineSet
1035 453.5 m 128,-1,1
 1044 501 1044 501 1044 543.5 c 128,-1,2
 1044 586 1044 586 1034 630 c 128,-1,3
 1024 674 1024 674 1001.5 709.5 c 0,4,5
 951.746478873 788 951.746478873 788 854 788 c 0,6,7
 730.806818182 788 730.806818182 788 644.5 633 c 0,8,9
 569 497.408163265 569 497.408163265 569 365 c 0,10,11
 569 269.833333333 569 269.833333333 599.5 213.916666667 c 128,-1,12
 630 158 630 158 664 132 c 128,-1,13
 698 106 698 106 746 106 c 128,-1,14
 794 106 794 106 834.5 127 c 128,-1,15
 875 148 875 148 908 183.5 c 128,-1,16
 941 219 941 219 966.5 264 c 128,-1,17
 992 309 992 309 1009 357.5 c 128,-1,0
 1026 406 1026 406 1035 453.5 c 128,-1,1
840 902 m 0,18,19
 986.447368421 902 986.447368421 902 1098 745 c 1,20,-1
 1126 869 l 1,21,-1
 1261 869 l 1,22,-1
 1118 181 l 2,23,24
 1111.97250859 147.848797251 1111.97250859 147.848797251 1161.5 132 c 0,25,26
 1174 128 1174 128 1202.5 128 c 128,-1,27
 1231 128 1231 128 1273.5 152 c 128,-1,28
 1316 176 1316 176 1352.5 215 c 128,-1,29
 1389 254 1389 254 1419 304.5 c 128,-1,30
 1449 355 1449 355 1469.5 407.5 c 0,31,32
 1513 518.902439024 1513 518.902439024 1513 620.451219512 c 128,-1,33
 1513 722 1513 722 1461 822.5 c 128,-1,34
 1409 923 1409 923 1323.5 995 c 0,35,36
 1144.1875 1146 1144.1875 1146 905 1146 c 0,37,38
 704.666666667 1146 704.666666667 1146 540 1041.5 c 0,39,40
 300.354285714 889.417142857 300.354285714 889.417142857 226.5 594 c 0,41,42
 203 500 203 500 203 367 c 128,-1,43
 203 234 203 234 258.5 112 c 128,-1,44
 314 -10 314 -10 412 -89.5 c 0,45,46
 604.918238994 -246 604.918238994 -246 932 -246 c 0,47,48
 1141.66666667 -246 1141.66666667 -246 1259.5 -195.5 c 0,49,50
 1378.51170569 -144.494983278 1378.51170569 -144.494983278 1525 4 c 1,51,-1
 1659 4 l 1,52,53
 1428.11827957 -348 1428.11827957 -348 961 -348 c 0,54,55
 590.05785124 -348 590.05785124 -348 355.5 -169.5 c 0,56,57
 193.904639175 -46.5249140893 193.904639175 -46.5249140893 131.5 160.5 c 0,58,59
 100 265 100 265 100 385.5 c 128,-1,60
 100 506 100 506 127 613.5 c 128,-1,61
 154 721 154 721 203.5 816.5 c 128,-1,62
 253 912 253 912 324.5 991.5 c 128,-1,63
 396 1071 396 1071 484.5 1128.5 c 0,64,65
 671.504347826 1250 671.504347826 1250 900 1250 c 0,66,67
 1198.06086957 1250 1198.06086957 1250 1404.5 1071.5 c 0,68,69
 1620 885.165413534 1620 885.165413534 1620 591 c 0,70,71
 1620 378.887640449 1620 378.887640449 1480.5 195.5 c 0,72,73
 1330.26495726 -2 1330.26495726 -2 1123 -2 c 0,74,75
 1057 -2 1057 -2 1019 37 c 128,-1,76
 981 76 981 76 969 138 c 1,77,78
 856.575757576 -2 856.575757576 -2 713 -2 c 0,79,80
 577.592592593 -2 577.592592593 -2 494 120 c 0,81,82
 419 229.459459459 419 229.459459459 419 370 c 0,83,84
 419 541.960526316 419 541.960526316 540 715.5 c 0,85,86
 619.377467206 829.343999019 619.377467206 829.343999019 726.5 877.5 c 0,87,88
 781 902 781 902 840 902 c 0,18,19
EndSplineSet
EndChar

StartChar: A
Encoding: 65 65 37
Width: 1402
Flags: W
LayerCount: 2
Fore
SplineSet
460 550 m 1,0,-1
 943 550 l 1,1,-1
 703 1216 l 1,2,-1
 460 550 l 1,0,-1
100 0 m 1,3,-1
 606 1372 l 1,4,-1
 798 1372 l 1,5,-1
 1302 0 l 1,6,-1
 1146 0 l 1,7,-1
 992 420 l 1,8,-1
 407 420 l 1,9,-1
 256 0 l 1,10,-1
 100 0 l 1,3,-1
EndSplineSet
EndChar

StartChar: B
Encoding: 66 66 38
Width: 1207
Flags: W
LayerCount: 2
Fore
SplineSet
707 129 m 2,0,1
 814.285714286 129 814.285714286 129 885 204 c 0,2,3
 956 279.303030303 956 279.303030303 956 386 c 0,4,5
 956 504.253521127 956 504.253521127 880.5 575.5 c 0,6,7
 806.850746269 645 806.850746269 645 687 645 c 2,8,-1
 251 645 l 1,9,-1
 251 129 l 1,10,-1
 707 129 l 2,0,1
667 773 m 2,11,12
 771.806451613 773 771.806451613 773 841 838 c 0,13,14
 911 903.757575758 911 903.757575758 911 1007 c 0,15,16
 911 1111.4516129 911 1111.4516129 846 1177.5 c 0,17,18
 781.53968254 1243 781.53968254 1243 677 1243 c 2,19,-1
 251 1243 l 1,20,-1
 251 773 l 1,21,-1
 667 773 l 2,11,12
100 1372 m 1,22,-1
 687 1372 l 2,23,24
 836.656565657 1372 836.656565657 1372 948.5 1264.5 c 0,25,26
 1061 1156.36893204 1061 1156.36893204 1061 1007 c 0,27,28
 1061 851.22972973 1061 851.22972973 947 766.5 c 0,29,30
 910 739 910 739 862 715 c 1,31,32
 988.438596491 669.399194708 988.438596491 669.399194708 1045.5 595.5 c 0,33,34
 1107 515.852459016 1107 515.852459016 1107 407.426229508 c 128,-1,35
 1107 299 1107 299 1077.5 228 c 128,-1,36
 1048 157 1048 157 995.5 106.5 c 0,37,38
 884.782178218 -2.84217094304e-14 884.782178218 -2.84217094304e-14 713 0 c 2,39,-1
 100 0 l 1,40,-1
 100 1372 l 1,22,-1
EndSplineSet
EndChar

StartChar: C
Encoding: 67 67 39
Width: 1359
Flags: W
LayerCount: 2
Fore
SplineSet
727 108 m 0,0,1
 1050.0617284 108 1050.0617284 108 1121 446 c 1,2,-1
 1259 417 l 1,3,4
 1217 200 1217 200 1082 88 c 128,-1,5
 947 -24 947 -24 727 -24 c 0,6,7
 405.681318681 -24 405.681318681 -24 247 166 c 0,8,9
 100 342.013157895 100 342.013157895 100 670 c 0,10,11
 100 1185.12133891 100 1185.12133891 438.5 1339.5 c 0,12,13
 558 1394 558 1394 692.5 1394 c 128,-1,14
 827 1394 827 1394 912.5 1370 c 128,-1,15
 998 1346 998 1346 1066.5 1297.5 c 0,16,17
 1207.972854 1197.33308877 1207.972854 1197.33308877 1259 1005 c 1,18,-1
 1121 973 l 1,19,20
 1037.28767123 1264 1037.28767123 1264 727 1264 c 0,21,22
 473.49689441 1264 473.49689441 1264 352.5 1088.5 c 0,23,24
 250 939.828828829 250 939.828828829 250 673 c 0,25,26
 250 275.296703297 250 275.296703297 505 152 c 0,27,28
 596 108 596 108 727 108 c 0,0,1
EndSplineSet
EndChar

StartChar: D
Encoding: 68 68 40
Width: 1299
Flags: W
LayerCount: 2
Fore
SplineSet
625 129 m 2,0,1
 845.834394904 129 845.834394904 129 956.5 304.5 c 0,2,3
 1048 449.606060606 1048 449.606060606 1048 686 c 0,4,5
 1048 1115.96551724 1048 1115.96551724 799 1219 c 0,6,7
 741 1243 741 1243 664 1243 c 2,8,-1
 250 1243 l 1,9,-1
 250 129 l 1,10,-1
 625 129 l 2,0,1
100 1372 m 1,11,-1
 671 1372 l 2,12,13
 851.395833333 1372 851.395833333 1372 978 1269 c 0,14,15
 1087.78293601 1179.68506901 1087.78293601 1179.68506901 1147 1013 c 0,16,17
 1199 866.62962963 1199 866.62962963 1199 686 c 0,18,19
 1199 394.069767442 1199 394.069767442 1076 211 c 0,20,21
 934.234375 -1.70530256582e-13 934.234375 -1.70530256582e-13 658 0 c 2,22,-1
 100 0 l 1,23,-1
 100 1372 l 1,11,-1
EndSplineSet
EndChar

StartChar: E
Encoding: 69 69 41
Width: 1201
Flags: W
LayerCount: 2
Fore
SplineSet
1101 0 m 1,0,-1
 100 0 l 1,1,-1
 100 1372 l 1,2,-1
 1078 1372 l 1,3,-1
 1078 1243 l 1,4,-1
 251 1243 l 1,5,-1
 251 773 l 1,6,-1
 1009 773 l 1,7,-1
 1009 645 l 1,8,-1
 251 645 l 1,9,-1
 251 129 l 1,10,-1
 1101 129 l 1,11,-1
 1101 0 l 1,0,-1
EndSplineSet
EndChar

StartChar: F
Encoding: 70 70 42
Width: 1102
Flags: W
LayerCount: 2
Fore
SplineSet
1002 1243 m 1,0,-1
 251 1243 l 1,1,-1
 251 773 l 1,2,-1
 902 773 l 1,3,-1
 902 645 l 1,4,-1
 251 645 l 1,5,-1
 251 0 l 1,6,-1
 100 0 l 1,7,-1
 100 1372 l 1,8,-1
 1002 1372 l 1,9,-1
 1002 1243 l 1,0,-1
EndSplineSet
EndChar

StartChar: G
Encoding: 71 71 43
Width: 1426
Flags: W
LayerCount: 2
Fore
SplineSet
1322 190 m 1,0,1
 1089.83018868 -24 1089.83018868 -24 773 -24 c 0,2,3
 456.737967914 -24 456.737967914 -24 276 172.5 c 0,4,5
 100 363.848837209 100 363.848837209 100 686 c 0,6,7
 100 1004.12643678 100 1004.12643678 279 1196.5 c 0,8,9
 462.770053476 1394 462.770053476 1394 778 1394 c 0,10,11
 987 1394 987 1394 1124.5 1301.5 c 128,-1,12
 1262 1209 1262 1209 1326 1006 c 1,13,-1
 1193 969 l 1,14,15
 1138.67272727 1129.96969697 1138.67272727 1129.96969697 1041 1197 c 128,-1,16
 943.371428571 1264 943.371428571 1264 793.685714286 1264 c 128,-1,17
 644 1264 644 1264 546.5 1219.5 c 128,-1,18
 449 1175 449 1175 383 1097.5 c 0,19,20
 251 942.5 251 942.5 251 686 c 0,21,22
 251 425 251 425 381 271 c 0,23,24
 518.597402597 108 518.597402597 108 773 108 c 0,25,26
 948.418181818 108 948.418181818 108 1086 188.5 c 0,27,28
 1133 216 1133 216 1170 255 c 1,29,-1
 1170 564 l 1,30,-1
 812 564 l 1,31,-1
 812 693 l 1,32,-1
 1322 693 l 1,33,-1
 1322 190 l 1,0,1
EndSplineSet
EndChar

StartChar: H
Encoding: 72 72 44
Width: 1256
Flags: W
LayerCount: 2
Fore
SplineSet
1156 0 m 1,0,-1
 1004 0 l 1,1,-1
 1004 645 l 1,2,-1
 251 645 l 1,3,-1
 251 0 l 1,4,-1
 100 0 l 1,5,-1
 100 1372 l 1,6,-1
 251 1372 l 1,7,-1
 251 773 l 1,8,-1
 1004 773 l 1,9,-1
 1004 1372 l 1,10,-1
 1156 1372 l 1,11,-1
 1156 0 l 1,0,-1
EndSplineSet
EndChar

StartChar: I
Encoding: 73 73 45
Width: 352
Flags: W
LayerCount: 2
Fore
SplineSet
252 0 m 1,0,-1
 100 0 l 1,1,-1
 100 1372 l 1,2,-1
 252 1372 l 1,3,-1
 252 0 l 1,0,-1
EndSplineSet
EndChar

StartChar: J
Encoding: 74 74 46
Width: 941
Flags: W
LayerCount: 2
Fore
SplineSet
841 338 m 2,0,1
 841 172.64 841 172.64 735 73 c 0,2,3
 631.808510638 -24 631.808510638 -24 468 -24 c 0,4,5
 288.6 -24 288.6 -24 192 81 c 0,6,7
 100 181 100 181 100 363 c 1,8,-1
 244 378 l 1,9,10
 250.911300122 248.989064399 250.911300122 248.989064399 283.455650061 199.494532199 c 128,-1,11
 316 150 316 150 357.5 129 c 128,-1,12
 399 108 399 108 458.5 108 c 128,-1,13
 518 108 518 108 560.5 127 c 128,-1,14
 603 146 603 146 632 179 c 0,15,16
 691 246.137931034 691 246.137931034 691 354 c 2,17,-1
 691 1372 l 1,18,-1
 841 1372 l 1,19,-1
 841 338 l 2,0,1
EndSplineSet
EndChar

StartChar: K
Encoding: 75 75 47
Width: 1263
Flags: W
LayerCount: 2
Fore
SplineSet
1161 0 m 1,0,-1
 979 0 l 1,1,-1
 493 698 l 1,2,-1
 252 455 l 1,3,-1
 252 0 l 1,4,-1
 100 0 l 1,5,-1
 100 1372 l 1,6,-1
 252 1372 l 1,7,-1
 252 657 l 1,8,-1
 966 1372 l 1,9,-1
 1163 1372 l 1,10,-1
 599 803 l 1,11,-1
 1161 0 l 1,0,-1
EndSplineSet
EndChar

StartChar: L
Encoding: 76 76 48
Width: 1039
Flags: W
LayerCount: 2
Fore
SplineSet
939 0 m 1,0,-1
 100 0 l 1,1,-1
 100 1372 l 1,2,-1
 252 1372 l 1,3,-1
 252 129 l 1,4,-1
 939 129 l 1,5,-1
 939 0 l 1,0,-1
EndSplineSet
EndChar

StartChar: M
Encoding: 77 77 49
Width: 1437
Flags: W
LayerCount: 2
Fore
SplineSet
1337 0 m 1,0,-1
 1186 0 l 1,1,-1
 1186 1174 l 1,2,-1
 797 0 l 1,3,-1
 639 0 l 1,4,-1
 252 1174 l 1,5,-1
 252 0 l 1,6,-1
 100 0 l 1,7,-1
 100 1372 l 1,8,-1
 338 1372 l 1,9,-1
 720 237 l 1,10,-1
 1098 1372 l 1,11,-1
 1337 1372 l 1,12,-1
 1337 0 l 1,0,-1
EndSplineSet
EndChar

StartChar: N
Encoding: 78 78 50
Width: 1265
Flags: W
LayerCount: 2
Fore
SplineSet
1165 0 m 1,0,-1
 1001 0 l 1,1,-1
 251 1128 l 1,2,-1
 251 0 l 1,3,-1
 100 0 l 1,4,-1
 100 1372 l 1,5,-1
 265 1372 l 1,6,-1
 1015 243 l 1,7,-1
 1015 1372 l 1,8,-1
 1165 1372 l 1,9,-1
 1165 0 l 1,0,-1
EndSplineSet
EndChar

StartChar: O
Encoding: 79 79 51
Width: 1470
Flags: W
LayerCount: 2
Fore
SplineSet
1220 684.5 m 0,0,1
 1220 830 1220 830 1178.5 938 c 128,-1,2
 1137 1046 1137 1046 1069 1118.5 c 0,3,4
 932.531034483 1264 932.531034483 1264 735 1264 c 0,5,6
 538.468965517 1264 538.468965517 1264 402 1118.5 c 0,7,8
 251 957.507352941 251 957.507352941 251 686 c 0,9,10
 251 413.927536232 251 413.927536232 405 251 c 0,11,12
 543.945205479 104 543.945205479 104 743 104 c 0,13,14
 939.875862069 104 939.875862069 104 1071.5 247.5 c 0,15,16
 1220 409.398496241 1220 409.398496241 1220 684.5 c 0,0,1
1327.5 957.5 m 128,-1,18
 1370 829 1370 829 1370 697 c 128,-1,19
 1370 565 1370 565 1346 465.5 c 128,-1,20
 1322 366 1322 366 1279.5 286.5 c 128,-1,21
 1237 207 1237 207 1179 148 c 128,-1,22
 1121 89 1121 89 1052.5 50 c 0,23,24
 915.5 -28 915.5 -28 754 -28 c 0,25,26
 493 -28 493 -28 305.5 153.5 c 0,27,28
 100 352.424 100 352.424 100 686 c 0,29,30
 100 1002.90566038 100 1002.90566038 259.5 1192.5 c 0,31,32
 429.015873016 1394 429.015873016 1394 739 1394 c 0,33,34
 1029.39175258 1394 1029.39175258 1394 1204.5 1183 c 0,35,17
 1285 1086 1285 1086 1327.5 957.5 c 128,-1,18
EndSplineSet
EndChar

StartChar: P
Encoding: 80 80 52
Width: 1212
Flags: W
LayerCount: 2
Fore
SplineSet
703 709 m 2,0,1
 815.882352941 709 815.882352941 709 890 781 c 0,2,3
 965 853.857142857 965 853.857142857 965 965 c 0,4,5
 965 1076.47826087 965 1076.47826087 891.5 1158.5 c 0,6,7
 815.779220779 1243 815.779220779 1243 703 1243 c 2,8,-1
 258 1243 l 1,9,-1
 258 709 l 1,10,-1
 703 709 l 2,0,1
1112 976 m 0,11,12
 1112 579 1112 579 703 579 c 2,13,-1
 251 580 l 1,14,-1
 251 0 l 1,15,-1
 100 0 l 1,16,-1
 100 1372 l 1,17,-1
 703 1372 l 2,18,19
 998.486486486 1372 998.486486486 1372 1084 1146 c 0,20,21
 1112 1072 1112 1072 1112 976 c 0,11,12
EndSplineSet
EndChar

StartChar: Q
Encoding: 81 81 53
Width: 1507
Flags: W
LayerCount: 2
Fore
SplineSet
971 162 m 1,0,1
 860.814925373 246.934328358 860.814925373 246.934328358 764 286 c 1,2,-1
 813 411 l 1,3,4
 928.927272727 364.307070707 928.927272727 364.307070707 1080 254 c 1,5,6
 1226 423.052631579 1226 423.052631579 1226 682 c 0,7,8
 1226 915 1226 915 1103 1080 c 0,9,10
 968.818181818 1260 968.818181818 1260 739 1260 c 0,11,12
 506.648148148 1260 506.648148148 1260 371.5 1082 c 0,13,14
 249 920.658536585 249 920.658536585 249 681 c 0,15,16
 249 449.919354839 249 449.919354839 376 284 c 0,17,18
 513.777777778 104 513.777777778 104 739 104 c 0,19,20
 871.838709677 104 871.838709677 104 971 162 c 1,0,1
1358 -72 m 1,21,22
 1211.82352941 -15.6176470588 1211.82352941 -15.6176470588 1095 72 c 1,23,24
 940.941176471 -25 940.941176471 -25 739 -25 c 0,25,26
 451.295454545 -25 451.295454545 -25 270.5 190 c 0,27,28
 160.94180547 320.285420522 160.94180547 320.285420522 120 503.5 c 0,29,30
 100 593 100 593 100 715 c 128,-1,31
 100 837 100 837 140 966.5 c 128,-1,32
 180 1096 180 1096 259.5 1191 c 0,33,34
 429.378947368 1394 429.378947368 1394 739 1394 c 0,35,36
 932.5 1394 932.5 1394 1082.5 1294 c 0,37,38
 1292.10043668 1154.26637555 1292.10043668 1154.26637555 1353 869 c 0,39,40
 1372 780 1372 780 1372 686 c 0,41,42
 1372 355.446808511 1372 355.446808511 1204 166 c 1,43,44
 1317 90.6666666667 1317 90.6666666667 1407 54 c 1,45,-1
 1358 -72 l 1,21,22
EndSplineSet
EndChar

StartChar: R
Encoding: 82 82 54
Width: 1291
Flags: W
LayerCount: 2
Fore
SplineSet
715 709 m 2,0,1
 826.117647059 709 826.117647059 709 896 781 c 0,2,3
 965 852.090909091 965 852.090909091 965 965 c 0,4,5
 965 1078.53846154 965 1078.53846154 897.5 1158.5 c 0,6,7
 826.168831169 1243 826.168831169 1243 715 1243 c 2,8,-1
 258 1243 l 1,9,-1
 258 709 l 1,10,-1
 715 709 l 2,0,1
1112 976 m 0,11,12
 1112 656.082191781 1112 656.082191781 844 590 c 1,13,14
 915.601804851 491.189509306 915.601804851 491.189509306 989.800902425 357.094754653 c 128,-1,15
 1064 223 1064 223 1105 148 c 128,-1,16
 1146 73 1146 73 1191 0 c 1,17,-1
 1029 0 l 1,18,19
 984 72 984 72 943.5 146.5 c 128,-1,20
 903 221 903 221 862 295.5 c 0,21,22
 765.167404427 471.451911469 765.167404427 471.451911469 678 580 c 1,23,-1
 251 580 l 1,24,-1
 251 0 l 1,25,-1
 100 0 l 1,26,-1
 100 1372 l 1,27,-1
 715 1372 l 2,28,29
 907 1372 907 1372 1009.5 1271 c 128,-1,30
 1112 1170 1112 1170 1112 976 c 0,11,12
EndSplineSet
EndChar

StartChar: S
Encoding: 83 83 55
Width: 1267
Flags: W
LayerCount: 2
Fore
SplineSet
242 445 m 1,0,1
 267.455029389 262.89863591 267.455029389 262.89863591 376 183.5 c 0,2,3
 479.215189873 108 479.215189873 108 668 108 c 0,4,5
 895.836734694 108 895.836734694 108 984 243 c 0,6,7
 1016 292 1016 292 1016 363 c 128,-1,8
 1016 434 1016 434 978.5 480 c 128,-1,9
 941 526 941 526 879.5 558 c 128,-1,10
 818 590 818 590 739.5 612 c 128,-1,11
 661 634 661 634 579.5 656.5 c 128,-1,12
 498 679 498 679 419.5 706 c 128,-1,13
 341 733 341 733 279.5 773.5 c 0,14,15
 143 863.390243902 143 863.390243902 143 1019 c 0,16,17
 143 1214.43478261 143 1214.43478261 296 1312 c 0,18,19
 424.590909091 1394 424.590909091 1394 631 1394 c 0,20,21
 963.798657718 1394 963.798657718 1394 1080.5 1184.5 c 0,22,23
 1122 1110 1122 1110 1129 1003 c 1,24,-1
 985 976 l 1,25,26
 951.769230769 1264 951.769230769 1264 627 1264 c 0,27,28
 406.340425532 1264 406.340425532 1264 324 1135 c 0,29,30
 294 1088 294 1088 294 1029.5 c 128,-1,31
 294 971 294 971 318.5 936.5 c 128,-1,32
 343 902 343 902 385 875.5 c 128,-1,33
 427 849 427 849 482.5 829.5 c 128,-1,34
 538 810 538 810 601 792 c 128,-1,35
 664 774 664 774 730.5 756 c 128,-1,36
 797 738 797 738 860 715 c 128,-1,37
 923 692 923 692 978.5 662 c 128,-1,38
 1034 632 1034 632 1076 590.5 c 0,39,40
 1167 500.583333333 1167 500.583333333 1167 378.291666667 c 128,-1,41
 1167 256 1167 256 1123 181.5 c 128,-1,42
 1079 107 1079 107 1008 61.5 c 0,43,44
 874.582417582 -24 874.582417582 -24 663 -24 c 0,45,46
 290.846153846 -24 290.846153846 -24 158.5 216.5 c 0,47,48
 112 301 112 301 100 422 c 1,49,-1
 242 445 l 1,0,1
EndSplineSet
EndChar

StartChar: T
Encoding: 84 84 56
Width: 1262
Flags: W
LayerCount: 2
Fore
SplineSet
1162 1243 m 1,0,-1
 707 1243 l 1,1,-1
 707 0 l 1,2,-1
 555 0 l 1,3,-1
 555 1243 l 1,4,-1
 100 1243 l 1,5,-1
 100 1372 l 1,6,-1
 1162 1372 l 1,7,-1
 1162 1243 l 1,0,-1
EndSplineSet
EndChar

StartChar: U
Encoding: 85 85 57
Width: 1251
Flags: W
LayerCount: 2
Fore
SplineSet
251 476 m 2,0,1
 251 108 251 108 621 108 c 0,2,3
 810 108 810 108 905 195 c 128,-1,4
 1000 282 1000 282 1000 476 c 2,5,-1
 1000 1372 l 1,6,-1
 1151 1372 l 1,7,-1
 1151 470 l 2,8,9
 1151 230.690647482 1151 230.690647482 1004.5 100 c 0,10,11
 865.5 -24 865.5 -24 626 -24 c 0,12,13
 246.806451613 -24 246.806451613 -24 137 252 c 0,14,15
 100 345 100 345 100 470 c 2,16,-1
 100 1372 l 1,17,-1
 251 1372 l 1,18,-1
 251 476 l 2,0,1
EndSplineSet
EndChar

StartChar: V
Encoding: 86 86 58
Width: 1409
Flags: W
LayerCount: 2
Fore
SplineSet
1151 1372 m 1,0,-1
 1309 1372 l 1,1,-1
 798 0 l 1,2,-1
 607 0 l 1,3,-1
 100 1372 l 1,4,-1
 255 1372 l 1,5,-1
 703 162 l 1,6,-1
 1151 1372 l 1,0,-1
EndSplineSet
EndChar

StartChar: W
Encoding: 87 87 59
Width: 1869
Flags: W
LayerCount: 2
Fore
SplineSet
1769 1372 m 1,0,-1
 1450 0 l 1,1,-1
 1233 0 l 1,2,-1
 936 1189 l 1,3,-1
 640 0 l 1,4,-1
 425 0 l 1,5,-1
 100 1372 l 1,6,-1
 252 1372 l 1,7,-1
 535 188 l 1,8,-1
 833 1372 l 1,9,-1
 1040 1372 l 1,10,-1
 1336 188 l 1,11,-1
 1621 1372 l 1,12,-1
 1769 1372 l 1,0,-1
EndSplineSet
EndChar

StartChar: X
Encoding: 88 88 60
Width: 1371
Flags: W
LayerCount: 2
Fore
SplineSet
100 0 m 1,0,-1
 598 686 l 1,1,-1
 132 1372 l 1,2,-1
 311 1372 l 1,3,-1
 687 816 l 1,4,-1
 1062 1372 l 1,5,-1
 1241 1372 l 1,6,-1
 772 686 l 1,7,-1
 1271 0 l 1,8,-1
 1094 0 l 1,9,-1
 687 553 l 1,10,-1
 280 0 l 1,11,-1
 100 0 l 1,0,-1
EndSplineSet
EndChar

StartChar: Y
Encoding: 89 89 61
Width: 1394
Flags: W
LayerCount: 2
Fore
SplineSet
1294 1372 m 1,0,-1
 775 569 l 1,1,-1
 775 0 l 1,2,-1
 621 0 l 1,3,-1
 621 569 l 1,4,-1
 100 1372 l 1,5,-1
 270 1372 l 1,6,-1
 700 704 l 1,7,-1
 1123 1372 l 1,8,-1
 1294 1372 l 1,0,-1
EndSplineSet
EndChar

StartChar: Z
Encoding: 90 90 62
Width: 1260
Flags: W
LayerCount: 2
Fore
SplineSet
1160 0 m 1,0,-1
 100 0 l 1,1,-1
 100 153 l 1,2,-1
 970 1243 l 1,3,-1
 188 1243 l 1,4,-1
 188 1372 l 1,5,-1
 1136 1372 l 1,6,-1
 1136 1218 l 1,7,-1
 267 129 l 1,8,-1
 1160 129 l 1,9,-1
 1160 0 l 1,0,-1
EndSplineSet
EndChar

StartChar: bracketleft
Encoding: 91 91 63
Width: 509
Flags: W
LayerCount: 2
Fore
SplineSet
409 -163 m 1,0,-1
 100 -163 l 1,1,-1
 100 1396 l 1,2,-1
 409 1396 l 1,3,-1
 409 1289 l 1,4,-1
 220 1289 l 1,5,-1
 220 -56 l 1,6,-1
 409 -56 l 1,7,-1
 409 -163 l 1,0,-1
EndSplineSet
EndChar

StartChar: backslash
Encoding: 92 92 64
Width: 670
Flags: W
LayerCount: 2
Fore
SplineSet
570 -3 m 1,0,-1
 453 -3 l 1,1,-1
 100 1233 l 1,2,-1
 214 1233 l 1,3,-1
 570 -3 l 1,0,-1
EndSplineSet
EndChar

StartChar: bracketright
Encoding: 93 93 65
Width: 461
Flags: W
LayerCount: 2
Fore
SplineSet
361 -163 m 1,0,-1
 50 -163 l 1,1,-1
 50 -56 l 1,2,-1
 240 -56 l 1,3,-1
 240 1289 l 1,4,-1
 50 1289 l 1,5,-1
 50 1396 l 1,6,-1
 361 1396 l 1,7,-1
 361 -163 l 1,0,-1
EndSplineSet
EndChar

StartChar: asciicircum
Encoding: 94 94 66
Width: 890
Flags: W
LayerCount: 2
Fore
SplineSet
790 601 m 1,0,-1
 653 601 l 1,1,-1
 443 1107 l 1,2,-1
 243 601 l 1,3,-1
 100 601 l 1,4,-1
 384 1251 l 1,5,-1
 500 1251 l 1,6,-1
 790 601 l 1,0,-1
EndSplineSet
EndChar

StartChar: underscore
Encoding: 95 95 67
Width: 1161
Flags: W
LayerCount: 2
Fore
SplineSet
1061 -355 m 1,0,-1
 100 -355 l 1,1,-1
 100 -246 l 1,2,-1
 1061 -246 l 1,3,-1
 1061 -355 l 1,0,-1
EndSplineSet
EndChar

StartChar: grave
Encoding: 96 96 68
Width: 494
Flags: W
LayerCount: 2
Fore
SplineSet
394 1091 m 1,0,-1
 284 1091 l 1,1,-1
 100 1319 l 1,2,-1
 287 1319 l 1,3,-1
 394 1091 l 1,0,-1
EndSplineSet
EndChar

StartChar: a
Encoding: 97 97 69
Width: 1035
Flags: W
LayerCount: 2
Fore
SplineSet
439 105 m 0,0,1
 611.606060606 105 611.606060606 105 755 274 c 1,2,-1
 755 488 l 1,3,4
 715 481 715 481 660 474.5 c 128,-1,5
 605 468 605 468 546.5 458.5 c 128,-1,6
 488 449 488 449 431 433 c 128,-1,7
 374 417 374 417 329 390 c 0,8,9
 228 329.4 228 329.4 228 226 c 0,10,11
 228 116.733333333 228 116.733333333 366.5 107.5 c 0,12,13
 404 105 404 105 439 105 c 0,0,1
876 423 m 1,14,15
 876 164.702702703 876 164.702702703 935 18 c 1,16,-1
 822 -16 l 1,17,18
 807 19 807 19 796.5 57 c 128,-1,19
 786 95 786 95 775 131 c 1,20,21
 704 61 704 61 626 22 c 128,-1,22
 548 -17 548 -17 465 -17 c 128,-1,23
 382 -17 382 -17 321 -6.5 c 128,-1,24
 260 4 260 4 211 31.5 c 0,25,26
 100 93.7959183673 100 93.7959183673 100 226 c 0,27,28
 100 445.565217391 100 445.565217391 339 523.5 c 0,29,30
 443.792507205 557.671469741 443.792507205 557.671469741 569.896253602 578.83573487 c 128,-1,31
 696 600 696 600 755 618 c 1,32,33
 754 682 754 682 750.5 734 c 128,-1,34
 747 786 747 786 727 822.5 c 0,35,36
 685.082191781 899 685.082191781 899 541 899 c 0,37,38
 373.860759494 899 373.860759494 899 278.5 775.5 c 0,39,40
 248 736 248 736 231 686 c 1,41,-1
 112 711 l 1,42,43
 140.531704095 855.560634082 140.531704095 855.560634082 266.5 941 c 0,44,45
 381.5 1019 381.5 1019 536 1019 c 0,46,47
 774.490566038 1019 774.490566038 1019 856 859 c 0,48,49
 883 806 883 806 883 736 c 1,50,-1
 876 423 l 1,14,15
EndSplineSet
EndChar

StartChar: b
Encoding: 98 98 70
Width: 1011
Flags: W
LayerCount: 2
Fore
SplineSet
764.5 364 m 128,-1,1
 782 433 782 433 782 484 c 128,-1,2
 782 535 782 535 774.5 580.5 c 128,-1,3
 767 626 767 626 751.5 670.5 c 128,-1,4
 736 715 736 715 712.5 755.5 c 128,-1,5
 689 796 689 796 657 827 c 0,6,7
 586.806451613 895 586.806451613 895 497 895 c 0,8,9
 370.890243902 895 370.890243902 895 289.5 753 c 0,10,11
 219 630 219 630 219 494 c 0,12,13
 219 357 219 357 286.5 237 c 0,14,15
 332.844155844 154.61038961 332.844155844 154.61038961 410 119 c 0,16,17
 449 101 449 101 509 101 c 128,-1,18
 569 101 569 101 622.5 139.5 c 128,-1,19
 676 178 676 178 711.5 236.5 c 128,-1,0
 747 295 747 295 764.5 364 c 128,-1,1
227 108 m 1,20,-1
 227 0 l 1,21,-1
 100 0 l 1,22,-1
 100 1372 l 1,23,-1
 227 1372 l 1,24,-1
 227 889 l 1,25,26
 318.273170732 976.892682927 318.273170732 976.892682927 430.5 1007.5 c 0,27,28
 469 1018 469 1018 520.5 1018 c 128,-1,29
 572 1018 572 1018 627 995 c 128,-1,30
 682 972 682 972 726.5 932.5 c 128,-1,31
 771 893 771 893 805.5 840.5 c 128,-1,32
 840 788 840 788 863.5 730 c 0,33,34
 911 612.765957447 911 612.765957447 911 523.382978723 c 128,-1,35
 911 434 911 434 899 373 c 128,-1,36
 887 312 887 312 863.5 255.5 c 128,-1,37
 840 199 840 199 805 149 c 128,-1,38
 770 99 770 99 724 62.5 c 0,39,40
 623.808219178 -17 623.808219178 -17 487.904109589 -17 c 128,-1,41
 352 -17 352 -17 227 108 c 1,20,-1
EndSplineSet
EndChar

StartChar: c
Encoding: 99 99 71
Width: 1023
Flags: W
LayerCount: 2
Fore
SplineSet
923 342 m 1,0,1
 875.349176086 166.644967997 875.349176086 166.644967997 763 70.5 c 0,2,3
 660.752808989 -17 660.752808989 -17 526 -17 c 0,4,5
 339.007042254 -17 339.007042254 -17 215.5 141 c 0,6,7
 100 288.756756757 100 288.756756757 100 488 c 0,8,9
 100 718.949152542 100 718.949152542 229 872 c 0,10,11
 352.9 1019 352.9 1019 530 1019 c 0,12,13
 709.830357143 1019 709.830357143 1019 833.5 848 c 0,14,15
 874 792 874 792 903 719 c 1,16,-1
 799 675 l 1,17,18
 739 785 739 785 665 844 c 128,-1,19
 591 903 591 903 527.5 903 c 128,-1,20
 464 903 464 903 423.5 884.5 c 128,-1,21
 383 866 383 866 351.5 834.5 c 128,-1,22
 320 803 320 803 296.5 761 c 128,-1,23
 273 719 273 719 258 673 c 0,24,25
 228 581 228 581 228 503 c 128,-1,26
 228 425 228 425 246.5 357 c 128,-1,27
 265 289 265 289 302.5 233 c 0,28,29
 388.214285714 105 388.214285714 105 528 105 c 0,30,31
 618 105 618 105 692 166.5 c 128,-1,32
 766 228 766 228 806 353 c 1,33,-1
 923 342 l 1,0,1
EndSplineSet
EndChar

StartChar: d
Encoding: 100 100 72
Width: 1011
Flags: W
LayerCount: 2
Fore
SplineSet
294.5 235 m 0,0,1
 374.206896552 101 374.206896552 101 508 101 c 0,2,3
 639.931623932 101 639.931623932 101 721 236.5 c 0,4,5
 790 351.828571429 790 351.828571429 790 491 c 0,6,7
 790 622.468085106 790 622.468085106 717.5 750.5 c 0,8,9
 636.240963855 894 636.240963855 894 508 894 c 0,10,11
 332.011235955 894 332.011235955 894 256 668.5 c 0,12,13
 227 582.466666667 227 582.466666667 227 506.233333333 c 0,14,15
 227 348.47826087 227 348.47826087 294.5 235 c 0,0,1
508 1019 m 0,16,17
 647.592592593 1019 647.592592593 1019 784 892 c 1,18,-1
 784 1372 l 1,19,-1
 911 1372 l 1,20,-1
 911 0 l 1,21,-1
 784 0 l 1,22,-1
 784 108 l 1,23,24
 656.807017544 -17 656.807017544 -17 508 -17 c 0,25,26
 315.98989899 -17 315.98989899 -17 203 147.5 c 0,27,28
 100 297.455882353 100 297.455882353 100 491 c 0,29,30
 100 675.457142857 100 675.457142857 208 839 c 0,31,32
 326.867924528 1019 326.867924528 1019 508 1019 c 0,16,17
EndSplineSet
EndChar

StartChar: e
Encoding: 101 101 73
Width: 1064
Flags: W
LayerCount: 2
Fore
SplineSet
836 569 m 1,0,1
 831.834519211 700.212644847 831.834519211 700.212644847 747.5 796 c 0,2,3
 657.695652174 898 657.695652174 898 529 898 c 0,4,5
 409.425531915 898 409.425531915 898 319.5 791 c 0,6,7
 236.485429993 692.223169865 236.485429993 692.223169865 230 569 c 1,8,-1
 836 569 l 1,0,1
960 270 m 1,9,10
 925.738842499 136.762165275 925.738842499 136.762165275 796 56.5 c 0,11,12
 677.191780822 -17 677.191780822 -17 546.595890411 -17 c 128,-1,13
 416 -17 416 -17 335 27 c 128,-1,14
 254 71 254 71 201.5 144.5 c 0,15,16
 100 286.6 100 286.6 100 509 c 0,17,18
 100 723.5 100 723.5 206 864.5 c 0,19,20
 322.14893617 1019 322.14893617 1019 529 1019 c 0,21,22
 714.491803279 1019 714.491803279 1019 840 887 c 0,23,24
 964 756.586206897 964 756.586206897 964 573 c 2,25,-1
 964 447 l 1,26,-1
 230 447 l 1,27,28
 236.709475333 212.168363352 236.709475333 212.168363352 401.5 132 c 0,29,30
 457 105 457 105 518.5 105 c 128,-1,31
 580 105 580 105 629 118 c 128,-1,32
 678 131 678 131 720 156 c 0,33,34
 813.564356436 211.693069307 813.564356436 211.693069307 844 303 c 1,35,-1
 960 270 l 1,9,10
EndSplineSet
EndChar

StartChar: f
Encoding: 102 102 74
Width: 769
Flags: W
LayerCount: 2
Fore
SplineSet
555 1261 m 0,0,1
 399 1261 399 1261 399 1140 c 2,2,-1
 399 1000 l 1,3,-1
 607 1000 l 1,4,-1
 607 880 l 1,5,-1
 399 880 l 1,6,-1
 399 0 l 1,7,-1
 271 0 l 1,8,-1
 271 880 l 1,9,-1
 100 880 l 1,10,-1
 100 1000 l 1,11,-1
 271 1000 l 1,12,13
 271 1090 271 1090 276 1161 c 128,-1,14
 281 1232 281 1232 309 1281.5 c 0,15,16
 366.97979798 1384 366.97979798 1384 565 1384 c 0,17,18
 611.142857143 1384 611.142857143 1384 669 1369 c 1,19,-1
 643 1247 l 1,20,21
 604.5 1261 604.5 1261 555 1261 c 0,0,1
EndSplineSet
EndChar

StartChar: g
Encoding: 103 103 75
Width: 1008
Flags: W
LayerCount: 2
Fore
SplineSet
790 487 m 0,0,1
 790 537 790 537 783 582.5 c 128,-1,2
 776 628 776 628 762 672.5 c 128,-1,3
 748 717 748 717 725.5 758 c 128,-1,4
 703 799 703 799 672.5 830.5 c 0,5,6
 606.174603175 899 606.174603175 899 524.087301587 899 c 128,-1,7
 442 899 442 899 388 859 c 128,-1,8
 334 819 334 819 299 759 c 0,9,10
 229 639 229 639 229 497 c 128,-1,11
 229 355 229 355 299 239 c 0,12,13
 379.862068966 105 379.862068966 105 514 105 c 0,14,15
 644.666666667 105 644.666666667 105 724 241.5 c 0,16,17
 790 355.058823529 790 355.058823529 790 487 c 0,0,1
781 883 m 1,18,-1
 781 1000 l 1,19,-1
 908 1000 l 1,20,-1
 908 -25 l 2,21,22
 908 -193.420560748 908 -193.420560748 793.5 -301.5 c 0,23,24
 680.673267327 -408 680.673267327 -408 512 -408 c 0,25,26
 366.55 -408 366.55 -408 262 -326 c 0,27,28
 153.289473684 -240.736842105 153.289473684 -240.736842105 130 -101 c 1,29,-1
 261 -117 l 1,30,31
 281.359832636 -198.439330544 281.359832636 -198.439330544 360 -244.5 c 0,32,33
 429.146341463 -285 429.146341463 -285 501.073170732 -285 c 128,-1,34
 573 -285 573 -285 620 -267.5 c 128,-1,35
 667 -250 667 -250 703 -218.5 c 0,36,37
 781 -150.25 781 -150.25 781 -44 c 2,38,-1
 781 128 l 1,39,40
 735 61 735 61 665 22 c 128,-1,41
 595 -17 595 -17 521.5 -17 c 128,-1,42
 448 -17 448 -17 392 4.5 c 128,-1,43
 336 26 336 26 290 63.5 c 128,-1,44
 244 101 244 101 208.5 151 c 128,-1,45
 173 201 173 201 149 258 c 128,-1,46
 125 315 125 315 112.5 376.5 c 128,-1,47
 100 438 100 438 100 497 c 128,-1,48
 100 556 100 556 112.5 617 c 128,-1,49
 125 678 125 678 149.5 736 c 128,-1,50
 174 794 174 794 209.5 845.5 c 128,-1,51
 245 897 245 897 291 935.5 c 0,52,53
 390.766233766 1019 390.766233766 1019 524.683116883 1019 c 128,-1,54
 658.6 1019 658.6 1019 781 883 c 1,18,-1
EndSplineSet
EndChar

StartChar: h
Encoding: 104 104 76
Width: 973
Flags: W
LayerCount: 2
Fore
SplineSet
227 868 m 1,0,1
 378 1019 378 1019 543 1019 c 0,2,3
 677.088607595 1019 677.088607595 1019 772 937.5 c 0,4,5
 873 850.77173913 873 850.77173913 873 718 c 2,6,-1
 873 0 l 1,7,-1
 747 0 l 1,8,-1
 747 712 l 2,9,10
 747 800.947368421 747 800.947368421 685.5 849.5 c 0,11,12
 630.4 893 630.4 893 561.2 893 c 128,-1,13
 492 893 492 893 436.5 870.5 c 128,-1,14
 381 848 381 848 334.5 813 c 0,15,16
 227 732.086021505 227 732.086021505 227 650 c 2,17,-1
 227 0 l 1,18,-1
 100 0 l 1,19,-1
 100 1372 l 1,20,-1
 227 1372 l 1,21,-1
 227 868 l 1,0,1
EndSplineSet
EndChar

StartChar: i
Encoding: 105 105 77
Width: 344
Flags: W
LayerCount: 2
Fore
SplineSet
235 0 m 1,0,-1
 108 0 l 1,1,-1
 108 1000 l 1,2,-1
 235 1000 l 1,3,-1
 235 0 l 1,0,-1
244 1203 m 128,-1,5
 244 1173 244 1173 223.5 1152.5 c 128,-1,6
 203 1132 203 1132 173 1132 c 0,7,8
 143 1132 143 1132 121.5 1152.5 c 128,-1,9
 100 1173 100 1173 100 1203 c 128,-1,10
 100 1233 100 1233 121.5 1254.5 c 128,-1,11
 143 1276 143 1276 173 1276 c 0,12,13
 203 1276 203 1276 223.5 1254.5 c 128,-1,4
 244 1233 244 1233 244 1203 c 128,-1,5
EndSplineSet
EndChar

StartChar: j
Encoding: 106 106 78
Width: 587
Flags: W
LayerCount: 2
Fore
SplineSet
139 -262 m 1,0,1
 193 -289 193 -289 241 -289 c 128,-1,2
 289 -289 289 -289 308.5 -275.5 c 128,-1,3
 328 -262 328 -262 337.5 -240 c 0,4,5
 350 -211.052631579 350 -211.052631579 350 -132 c 2,6,-1
 350 1000 l 1,7,-1
 477 1000 l 1,8,-1
 477 -132 l 2,9,10
 477 -332.689655172 477 -332.689655172 364.5 -387 c 0,11,12
 321 -408 321 -408 267.5 -408 c 0,13,14
 184.857142857 -408 184.857142857 -408 100 -375 c 1,15,-1
 139 -262 l 1,0,1
487 1203 m 128,-1,17
 487 1173 487 1173 466 1152.5 c 128,-1,18
 445 1132 445 1132 415.5 1132 c 128,-1,19
 386 1132 386 1132 365 1152.5 c 128,-1,20
 344 1173 344 1173 344 1203 c 128,-1,21
 344 1233 344 1233 365 1254.5 c 128,-1,22
 386 1276 386 1276 415.5 1276 c 128,-1,23
 445 1276 445 1276 466 1254.5 c 128,-1,16
 487 1233 487 1233 487 1203 c 128,-1,17
EndSplineSet
EndChar

StartChar: k
Encoding: 107 107 79
Width: 917
Flags: W
LayerCount: 2
Fore
SplineSet
817 63 m 1,0,-1
 719 -6 l 1,1,-1
 359 516 l 1,2,-1
 221 390 l 1,3,-1
 221 0 l 1,4,-1
 100 0 l 1,5,-1
 100 1372 l 1,6,-1
 227 1372 l 1,7,-1
 227 563 l 1,8,-1
 701 1016 l 1,9,-1
 785 925 l 1,10,-1
 450 607 l 1,11,-1
 817 63 l 1,0,-1
EndSplineSet
EndChar

StartChar: l
Encoding: 108 108 80
Width: 327
Flags: W
LayerCount: 2
Fore
SplineSet
227 0 m 1,0,-1
 100 0 l 1,1,-1
 100 1372 l 1,2,-1
 227 1372 l 1,3,-1
 227 0 l 1,0,-1
EndSplineSet
EndChar

StartChar: m
Encoding: 109 109 81
Width: 1504
Flags: W
LayerCount: 2
Fore
SplineSet
483 1019 m 0,0,1
 685.103448276 1019 685.103448276 1019 783 852 c 1,2,3
 877.957784532 980.65248227 877.957784532 980.65248227 992 1008.5 c 0,4,5
 1035 1019 1035 1019 1092.5 1019 c 128,-1,6
 1150 1019 1150 1019 1206.5 990 c 128,-1,7
 1263 961 1263 961 1307 914.5 c 0,8,9
 1404 811.988636364 1404 811.988636364 1404 691 c 2,10,-1
 1404 0 l 1,11,-1
 1277 0 l 1,12,-1
 1277 676 l 2,13,14
 1277 744.444444444 1277 744.444444444 1216 819 c 0,15,16
 1153 896 1153 896 1095.5 896 c 128,-1,17
 1038 896 1038 896 989.5 875.5 c 128,-1,18
 941 855 941 855 903 820 c 0,19,20
 817 740.789473684 817 740.789473684 817 642 c 2,21,-1
 817 0 l 1,22,-1
 688 0 l 1,23,-1
 688 683 l 2,24,25
 688 757.517241379 688 757.517241379 623 827 c 0,26,27
 558.451612903 896 558.451612903 896 483 896 c 0,28,29
 398 896 398 896 312.5 810.5 c 128,-1,30
 227 725 227 725 227 638 c 2,31,-1
 227 0 l 1,32,-1
 100 0 l 1,33,-1
 100 1000 l 1,34,-1
 227 1000 l 1,35,-1
 227 880 l 1,36,37
 335.59375 1019 335.59375 1019 483 1019 c 0,0,1
EndSplineSet
EndChar

StartChar: n
Encoding: 110 110 82
Width: 971
Flags: W
LayerCount: 2
Fore
SplineSet
227 1000 m 1,0,-1
 227 875 l 1,1,2
 313.041237113 989.721649485 313.041237113 989.721649485 435 1011.5 c 0,3,4
 477 1019 477 1019 535.5 1019 c 128,-1,5
 594 1019 594 1019 656 991 c 128,-1,6
 718 963 718 963 766 915.5 c 0,7,8
 871 811.59375 871 811.59375 871 676 c 2,9,-1
 871 0 l 1,10,-1
 747 0 l 1,11,-1
 747 669 l 2,12,13
 747 752.573770492 747 752.573770492 679.5 824.5 c 0,14,15
 612.4 896 612.4 896 527 896 c 0,16,17
 428.628205128 896 428.628205128 896 330.5 810 c 0,18,19
 227 719.292134831 227 719.292134831 227 622 c 2,20,-1
 227 0 l 1,21,-1
 100 0 l 1,22,-1
 100 1000 l 1,23,-1
 227 1000 l 1,0,-1
EndSplineSet
EndChar

StartChar: o
Encoding: 111 111 83
Width: 1069
Flags: W
LayerCount: 2
Fore
SplineSet
842 511 m 0,0,1
 842 567 842 567 822 637.5 c 128,-1,2
 802 708 802 708 762.5 765.5 c 0,3,4
 672.852173913 896 672.852173913 896 531 896 c 0,5,6
 394.75 896 394.75 896 307 761 c 0,7,8
 227 637.923076923 227 637.923076923 227 499 c 0,9,10
 227 361.962962963 227 361.962962963 310 239 c 0,11,12
 401.8 103 401.8 103 531 103 c 0,13,14
 668.430379747 103 668.430379747 103 759 235.5 c 0,15,16
 842 356.925925926 842 356.925925926 842 511 c 0,0,1
969 483 m 0,17,18
 969 405 969 405 939 313 c 128,-1,19
 909 221 909 221 852.5 147.5 c 0,20,21
 726.047619048 -17 726.047619048 -17 531 -17 c 0,22,23
 340.75 -17 340.75 -17 215.5 150 c 0,24,25
 100 304 100 304 100 499 c 0,26,27
 100 696.520547945 100 696.520547945 213.5 852 c 0,28,29
 335.41 1019 335.41 1019 531 1019 c 0,30,31
 727.25 1019 727.25 1019 852.5 852 c 0,32,33
 969 696.666666667 969 696.666666667 969 483 c 0,17,18
EndSplineSet
EndChar

StartChar: p
Encoding: 112 112 84
Width: 1011
Flags: W
LayerCount: 2
Fore
SplineSet
765 370.5 m 128,-1,1
 782 440 782 440 782 491 c 128,-1,2
 782 542 782 542 774.5 587 c 128,-1,3
 767 632 767 632 751.5 676 c 128,-1,4
 736 720 736 720 712.5 760 c 128,-1,5
 689 800 689 800 657.5 830 c 128,-1,6
 626 860 626 860 586.5 878 c 128,-1,7
 547 896 547 896 499 896 c 128,-1,8
 451 896 451 896 412 878 c 128,-1,9
 373 860 373 860 341.5 829.5 c 128,-1,10
 310 799 310 799 287 759 c 128,-1,11
 264 719 264 719 249 675 c 0,12,13
 219 587 219 587 219 524.5 c 128,-1,14
 219 462 219 462 227 417.5 c 128,-1,15
 235 373 235 373 250.5 329 c 128,-1,16
 266 285 266 285 290 244.5 c 128,-1,17
 314 204 314 204 345 172.5 c 0,18,19
 412.412698413 104 412.412698413 104 491.706349206 104 c 128,-1,20
 571 104 571 104 624.5 143 c 128,-1,21
 678 182 678 182 713 241.5 c 128,-1,0
 748 301 748 301 765 370.5 c 128,-1,1
227 109 m 1,22,-1
 227 -394 l 1,23,-1
 100 -394 l 1,24,-1
 100 1000 l 1,25,-1
 227 1000 l 1,26,-1
 227 886 l 1,27,28
 364.75 1019 364.75 1019 499 1019 c 0,29,30
 626.026666667 1019 626.026666667 1019 726 937.5 c 0,31,32
 858.634300126 829.374211854 858.634300126 829.374211854 899 622.5 c 0,33,34
 911 561 911 561 911 503.5 c 128,-1,35
 911 446 911 446 898 386 c 128,-1,36
 885 326 885 326 860.5 268.5 c 128,-1,37
 836 211 836 211 800 159 c 128,-1,38
 764 107 764 107 718 68 c 0,39,40
 617.743589744 -17 617.743589744 -17 490.217948718 -17 c 128,-1,41
 362.692307692 -17 362.692307692 -17 227 109 c 1,22,-1
EndSplineSet
EndChar

StartChar: q
Encoding: 113 113 85
Width: 1010
Flags: W
LayerCount: 2
Fore
SplineSet
234 414.5 m 128,-1,1
 241 369 241 369 255 325 c 128,-1,2
 269 281 269 281 291 241 c 128,-1,3
 313 201 313 201 343.5 170.5 c 0,4,5
 410 104 410 104 501 104 c 0,6,7
 630.243902439 104 630.243902439 104 714.5 245 c 0,8,9
 790 371.346938776 790 371.346938776 790 501 c 0,10,11
 790 636.333333333 790 636.333333333 717 758 c 0,12,13
 634.2 896 634.2 896 501 896 c 0,14,15
 328 896 328 896 255.5 676 c 0,16,17
 227 589.517241379 227 589.517241379 227 524.75862069 c 128,-1,0
 227 460 227 460 234 414.5 c 128,-1,1
501 1019 m 0,18,19
 652.275862069 1019 652.275862069 1019 782 887 c 1,20,-1
 782 1000 l 1,21,-1
 910 1000 l 1,22,-1
 910 -394 l 1,23,-1
 782 -394 l 1,24,-1
 782 107 l 1,25,26
 655.824561404 -17 655.824561404 -17 501 -17 c 0,27,28
 323.737864078 -17 323.737864078 -17 205.5 159.5 c 0,29,30
 100 316.985507246 100 316.985507246 100 501 c 0,31,32
 100 696.46969697 100 696.46969697 200 849.5 c 0,33,34
 268.197906755 953.863463368 268.197906755 953.863463368 378 997 c 0,35,36
 434 1019 434 1019 501 1019 c 0,18,19
EndSplineSet
EndChar

StartChar: r
Encoding: 114 114 86
Width: 734
Flags: W
LayerCount: 2
Fore
SplineSet
227 893 m 1,0,1
 314.230769231 1019 314.230769231 1019 432 1019 c 0,2,3
 529.0625 1019 529.0625 1019 634 946 c 1,4,-1
 559 853 l 1,5,6
 505.333333333 895 505.333333333 895 458.666666667 895 c 128,-1,7
 412 895 412 895 381 879 c 128,-1,8
 350 863 350 863 325.5 836 c 128,-1,9
 301 809 301 809 282.5 774 c 128,-1,10
 264 739 264 739 251.5 702 c 0,11,12
 227 629.48 227 629.48 227 560 c 2,13,-1
 227 0 l 1,14,-1
 100 0 l 1,15,-1
 100 1000 l 1,16,-1
 227 1000 l 1,17,-1
 227 893 l 1,0,1
EndSplineSet
EndChar

StartChar: s
Encoding: 115 115 87
Width: 976
Flags: W
LayerCount: 2
Fore
SplineSet
717 733 m 1,0,1
 697.669552239 851.744179104 697.669552239 851.744179104 549.5 886.5 c 0,2,3
 509 896 509 896 476 896 c 128,-1,4
 443 896 443 896 405 890 c 128,-1,5
 367 884 367 884 332.5 869 c 0,6,7
 250 833.130434783 250 833.130434783 250 772.065217391 c 128,-1,8
 250 711 250 711 277 675.5 c 128,-1,9
 304 640 304 640 348 617 c 128,-1,10
 392 594 392 594 448 579.5 c 128,-1,11
 504 565 504 565 563 550.5 c 128,-1,12
 622 536 622 536 678 518 c 128,-1,13
 734 500 734 500 778 470 c 0,14,15
 876 403.181818182 876 403.181818182 876 276 c 0,16,17
 876 142.716666667 876 142.716666667 737 57 c 0,18,19
 617 -17 617 -17 475 -17 c 0,20,21
 265.057142857 -17 265.057142857 -17 154.5 146.5 c 0,22,23
 119 199 119 199 100 265 c 1,24,-1
 217 300 l 1,25,26
 265.567103479 185.972887483 265.567103479 185.972887483 305.78355174 154.986443742 c 0,27,28
 373.255319149 103 373.255319149 103 489 103 c 0,29,30
 575.622222222 103 575.622222222 103 635.311111111 137 c 128,-1,31
 695 171 695 171 722.5 204 c 128,-1,32
 750 237 750 237 750 281 c 128,-1,33
 750 325 750 325 723 353 c 128,-1,34
 696 381 696 381 652 400 c 128,-1,35
 608 419 608 419 552 432.5 c 128,-1,36
 496 446 496 446 437.5 462 c 128,-1,37
 379 478 379 478 323 499.5 c 128,-1,38
 267 521 267 521 223 555.5 c 0,39,40
 125 632.340909091 125 632.340909091 125 768 c 0,41,42
 125 895.953271028 125 895.953271028 247.5 963.5 c 0,43,44
 348.152542373 1019 348.152542373 1019 485 1019 c 0,45,46
 600.731343284 1019 600.731343284 1019 705.5 949.5 c 0,47,48
 821.569900406 872.503135374 821.569900406 872.503135374 831 765 c 1,49,-1
 717 733 l 1,0,1
EndSplineSet
EndChar

StartChar: t
Encoding: 116 116 88
Width: 686
Flags: W
LayerCount: 2
Fore
SplineSet
457 104 m 0,0,1
 489 104 489 104 555 119 c 1,2,-1
 586 3 l 1,3,4
 532.153846154 -17 532.153846154 -17 439.576923077 -17 c 128,-1,5
 347 -17 347 -17 291.5 32 c 128,-1,6
 236 81 236 81 236 176 c 2,7,-1
 236 879 l 1,8,-1
 100 879 l 1,9,-1
 100 1000 l 1,10,-1
 236 1000 l 1,11,-1
 236 1262 l 1,12,-1
 363 1262 l 1,13,-1
 363 1000 l 1,14,-1
 547 1000 l 1,15,-1
 547 879 l 1,16,-1
 363 879 l 1,17,-1
 363 189 l 2,18,19
 363 104 363 104 457 104 c 0,0,1
EndSplineSet
EndChar

StartChar: u
Encoding: 117 117 89
Width: 975
Flags: W
LayerCount: 2
Fore
SplineSet
875 0 m 1,0,-1
 745 0 l 1,1,-1
 745 124 l 1,2,3
 670.290786948 53.8186180422 670.290786948 53.8186180422 621.145393474 28.9093090211 c 0,4,5
 530.567567568 -17 530.567567568 -17 455.783783784 -17 c 128,-1,6
 381 -17 381 -17 319 10.5 c 128,-1,7
 257 38 257 38 208.5 84 c 0,8,9
 100 186.907216495 100 186.907216495 100 313 c 2,10,-1
 100 1000 l 1,11,-1
 227 1000 l 1,12,-1
 227 329 l 2,13,14
 227 241.473684211 227 241.473684211 288.5 173.5 c 0,15,16
 351.380952381 104 351.380952381 104 441 104 c 0,17,18
 536.475409836 104 536.475409836 104 625 171.5 c 0,19,20
 706.851700123 233.911921344 706.851700123 233.911921344 747 329 c 1,21,-1
 747 1000 l 1,22,-1
 875 1000 l 1,23,-1
 875 0 l 1,0,-1
EndSplineSet
EndChar

StartChar: v
Encoding: 118 118 90
Width: 1042
Flags: W
LayerCount: 2
Fore
SplineSet
521 218 m 1,0,1
 726.714285714 778 726.714285714 778 806 1000 c 1,2,-1
 942 1000 l 1,3,-1
 575 0 l 1,4,-1
 465 0 l 1,5,-1
 100 1000 l 1,6,-1
 233 1000 l 1,7,-1
 521 218 l 1,0,1
EndSplineSet
EndChar

StartChar: w
Encoding: 119 119 91
Width: 1509
Flags: W
LayerCount: 2
Fore
SplineSet
235 1000 m 1,0,-1
 462 191 l 1,1,-1
 684 1000 l 1,2,-1
 827 1000 l 1,3,-1
 1042 180 l 1,4,-1
 1275 1000 l 1,5,-1
 1409 1000 l 1,6,-1
 1124 0 l 1,7,-1
 961 0 l 1,8,-1
 757 776 l 1,9,-1
 541 0 l 1,10,-1
 386 0 l 1,11,-1
 100 1000 l 1,12,-1
 235 1000 l 1,0,-1
EndSplineSet
EndChar

StartChar: x
Encoding: 120 120 92
Width: 1038
Flags: W
LayerCount: 2
Fore
SplineSet
938 0 m 1,0,-1
 784 0 l 1,1,-1
 520 410 l 1,2,-1
 255 0 l 1,3,-1
 100 0 l 1,4,-1
 442 501 l 1,5,-1
 100 1000 l 1,6,-1
 255 1000 l 1,7,-1
 520 604 l 1,8,-1
 784 1000 l 1,9,-1
 937 1000 l 1,10,-1
 599 501 l 1,11,-1
 938 0 l 1,0,-1
EndSplineSet
EndChar

StartChar: y
Encoding: 121 121 93
Width: 1077
Flags: W
LayerCount: 2
Fore
SplineSet
188 -229 m 1,0,1
 235.272727273 -281 235.272727273 -281 279.136363636 -281 c 0,2,3
 366.367346939 -281 366.367346939 -281 408 -179 c 1,4,-1
 494 39 l 1,5,-1
 139 1000 l 1,6,-1
 272 1000 l 1,7,-1
 562 223 l 1,8,-1
 839 1000 l 1,9,-1
 977 1000 l 1,10,-1
 544 -198 l 1,11,12
 463.574468085 -408 463.574468085 -408 282 -408 c 0,13,14
 189.578947368 -408 189.578947368 -408 100 -316 c 1,15,-1
 188 -229 l 1,0,1
EndSplineSet
EndChar

StartChar: z
Encoding: 122 122 94
Width: 1051
Flags: W
LayerCount: 2
Fore
SplineSet
951 0 m 1,0,-1
 100 0 l 1,1,-1
 100 123 l 1,2,-1
 756 879 l 1,3,-1
 140 879 l 1,4,-1
 140 1000 l 1,5,-1
 921 1000 l 1,6,-1
 921 874 l 1,7,-1
 266 121 l 1,8,-1
 951 121 l 1,9,-1
 951 0 l 1,0,-1
EndSplineSet
EndChar

StartChar: braceleft
Encoding: 123 123 95
Width: 658
Flags: W
LayerCount: 2
Fore
SplineSet
558 1301 m 1,0,1
 480.291666667 1301 480.291666667 1301 448.645833333 1285.5 c 0,2,3
 387 1255.30612245 387 1255.30612245 387 1185 c 2,4,-1
 387 912 l 2,5,6
 387 797 387 797 348.5 723.5 c 128,-1,7
 310 650 310 650 220 617 c 1,8,9
 309 582 309 582 346 508.5 c 128,-1,10
 383 435 383 435 383 320 c 2,11,-1
 383 49 l 2,12,13
 383 -54.2295081967 383 -54.2295081967 492.5 -65 c 0,14,15
 523 -68 523 -68 554 -68 c 1,16,-1
 554 -163 l 1,17,18
 398.359375 -163 398.359375 -163 334.5 -102 c 0,19,20
 272 -42.2985074627 272 -42.2985074627 272 100 c 2,21,-1
 272 368 l 2,22,23
 272 443.688888889 272 443.688888889 223.5 496.5 c 0,24,25
 176.225921522 547.976218787 176.225921522 547.976218787 100 556 c 1,26,-1
 100 676 l 1,27,28
 221.811111111 692.027777778 221.811111111 692.027777778 262 792.5 c 0,29,30
 275 825 275 825 275 864 c 2,31,-1
 275 1133 l 2,32,33
 275 1276.73134328 275 1276.73134328 337.5 1335.5 c 0,34,35
 401.841269841 1396 401.841269841 1396 558 1396 c 1,36,-1
 558 1301 l 1,0,1
EndSplineSet
EndChar

StartChar: bar
Encoding: 124 124 96
Width: 312
Flags: W
LayerCount: 2
Fore
SplineSet
212 -173 m 1,0,-1
 100 -173 l 1,1,-1
 100 1372 l 1,2,-1
 212 1372 l 1,3,-1
 212 -173 l 1,0,-1
EndSplineSet
EndChar

StartChar: braceright
Encoding: 125 125 97
Width: 658
Flags: W
LayerCount: 2
Fore
SplineSet
100 1396 m 1,0,1
 255.158730159 1396 255.158730159 1396 319.5 1335.5 c 0,2,3
 383 1275.79104478 383 1275.79104478 383 1133 c 2,4,-1
 383 864 l 2,5,6
 383 745.21875 383 745.21875 488 696 c 0,7,8
 520 681 520 681 558 676 c 1,9,-1
 558 556 l 1,10,11
 483.273173726 547.921424187 483.273173726 547.921424187 435 496.5 c 0,12,13
 387 445.369565217 387 445.369565217 387 368 c 2,14,-1
 387 100 l 2,15,16
 387 -41.3432835821 387 -41.3432835821 323.5 -102 c 0,17,18
 259.640625 -163 259.640625 -163 103 -163 c 1,19,-1
 103 -68 l 1,20,21
 182.75 -68 182.75 -68 213.375 -53 c 0,22,23
 274 -23.306122449 274 -23.306122449 274 49 c 2,24,-1
 274 320 l 2,25,26
 274 435 274 435 311.5 509 c 128,-1,27
 349 583 349 583 437 617 c 1,28,29
 347 650 347 650 309 723.5 c 128,-1,30
 271 797 271 797 271 912 c 2,31,-1
 271 1185 l 2,32,33
 271 1284.93442623 271 1284.93442623 161.5 1297.5 c 0,34,35
 131 1301 131 1301 100 1301 c 1,36,-1
 100 1396 l 1,0,1
EndSplineSet
EndChar

StartChar: asciitilde
Encoding: 126 126 98
Width: 1046
Flags: W
LayerCount: 2
Fore
SplineSet
268 616 m 0,0,1
 300 626 300 626 331 626 c 128,-1,2
 362 626 362 626 395 615 c 128,-1,3
 428 604 428 604 460.5 587.5 c 128,-1,4
 493 571 493 571 526 551.5 c 128,-1,5
 559 532 559 532 591 515.5 c 128,-1,6
 623 499 623 499 654.5 488 c 128,-1,7
 686 477 686 477 717 477 c 128,-1,8
 748 477 748 477 780 487 c 128,-1,9
 812 497 812 497 842.5 513 c 0,10,11
 900.88299532 543.627145086 900.88299532 543.627145086 946 591 c 1,12,-1
 946 436 l 1,13,14
 879.688888889 369.688888889 879.688888889 369.688888889 778 339.5 c 0,15,16
 746 330 746 330 706.5 330 c 128,-1,17
 667 330 667 330 616.5 353 c 128,-1,18
 566 376 566 376 516.5 403.5 c 128,-1,19
 467 431 467 431 419.5 454 c 128,-1,20
 372 477 372 477 335 477 c 128,-1,21
 298 477 298 477 266 467 c 128,-1,22
 234 457 234 457 204 441.5 c 0,23,24
 142.6875 409.821875 142.6875 409.821875 100 365 c 1,25,-1
 100 516 l 1,26,27
 169.090909091 585.090909091 169.090909091 585.090909091 268 616 c 0,0,1
EndSplineSet
EndChar

StartChar: exclamdown
Encoding: 161 161 100
Width: 356
Flags: W
LayerCount: 2
Fore
SplineSet
213 922 m 1,0,1
 245 553.058823529 245 553.058823529 245 129 c 2,2,-1
 245 0 l 1,3,-1
 110 0 l 1,4,-1
 110 129 l 2,5,6
 110 541.529411765 110 541.529411765 143 922 c 1,7,-1
 213 922 l 1,0,1
100 1069 m 1,8,-1
 100 1229 l 1,9,-1
 256 1229 l 1,10,-1
 256 1069 l 1,11,-1
 100 1069 l 1,8,-1
EndSplineSet
EndChar

StartChar: cent
Encoding: 162 162 101
Width: 936
Flags: W
LayerCount: 2
Fore
SplineSet
228 558 m 128,-1,1
 214 494 214 494 214 447.5 c 128,-1,2
 214 401 214 401 220.5 363 c 128,-1,3
 227 325 227 325 240.5 288.5 c 0,4,5
 270.914893617 206.26713948 270.914893617 206.26713948 320 159 c 1,6,-1
 502 805 l 1,7,8
 413.567164179 819.73880597 413.567164179 819.73880597 357.78358209 774.869402985 c 128,-1,9
 302 730 302 730 272 676 c 128,-1,0
 242 622 242 622 228 558 c 128,-1,1
339 876.5 m 128,-1,11
 409 911 409 911 459 911 c 128,-1,12
 509 911 509 911 531 907 c 1,13,-1
 589 1103 l 1,14,-1
 685 1075 l 1,15,-1
 629 874 l 1,16,17
 752.901548963 806.799159884 752.901548963 806.799159884 820 643 c 1,18,-1
 726 604 l 1,19,20
 668 710 668 710 596 760 c 1,21,-1
 416 105 l 1,22,23
 538.096390026 72.8693710458 538.096390026 72.8693710458 633.5 154 c 0,24,25
 697 208 697 208 732 317 c 1,26,-1
 836 306 l 1,27,28
 794.311126028 148.719248196 794.311126028 148.719248196 693.5 62 c 0,29,30
 602.825 -16 602.825 -16 481 -16 c 0,31,32
 431 -16 431 -16 384 -2 c 1,33,-1
 322 -212 l 1,34,-1
 225 -180 l 1,35,-1
 289 43 l 1,36,37
 154.310845038 138.77895464 154.310845038 138.77895464 113 321.5 c 0,38,39
 100 379 100 379 100 461 c 128,-1,40
 100 543 100 543 131.5 630 c 128,-1,41
 163 717 163 717 216 779.5 c 128,-1,10
 269 842 269 842 339 876.5 c 128,-1,11
EndSplineSet
EndChar

StartChar: sterling
Encoding: 163 163 102
Width: 1057
Flags: W
LayerCount: 2
Fore
SplineSet
668 111 m 128,-1,1
 712 100 712 100 760.59375 100 c 128,-1,2
 809.1875 100 809.1875 100 912 147 c 1,3,-1
 957 36 l 1,4,5
 835.571428571 -15 835.571428571 -15 773.285714286 -15 c 128,-1,6
 711 -15 711 -15 666.5 -3.5 c 128,-1,7
 622 8 622 8 578.5 22 c 0,8,9
 463.535714286 59 463.535714286 59 399 59 c 0,10,11
 270.181818182 59 270.181818182 59 154 -12 c 1,12,-1
 100 119 l 1,13,14
 223.636363636 209.909090909 223.636363636 209.909090909 269 346 c 0,15,16
 285 394 285 394 285 445.785714286 c 128,-1,17
 285 497.571428571 285 497.571428571 274 540 c 1,18,-1
 112 540 l 1,19,-1
 112 650 l 1,20,-1
 241 650 l 1,21,22
 197 789.764705882 197 789.764705882 197 868.882352941 c 128,-1,23
 197 948 197 948 226 1011 c 128,-1,24
 255 1074 255 1074 305.5 1118.5 c 0,25,26
 411.606741573 1212 411.606741573 1212 565 1212 c 0,27,28
 782.178571429 1212 782.178571429 1212 877 1035 c 0,29,30
 907 979 907 979 919 909 c 1,31,32
 857 899 857 899 799 889 c 1,33,34
 772.901678657 1035.80305755 772.901678657 1035.80305755 650 1086.5 c 0,35,36
 610 1103 610 1103 563.5 1103 c 128,-1,37
 517 1103 517 1103 473.5 1084.5 c 128,-1,38
 430 1066 430 1066 395.5 1035 c 0,39,40
 319 966.260869565 319 966.260869565 319 875 c 0,41,42
 319 789.117647059 319 789.117647059 336.5 734.558823529 c 128,-1,43
 354 680 354 680 364 650 c 1,44,-1
 652 650 l 1,45,-1
 652 540 l 1,46,-1
 395 540 l 1,47,48
 408 512.7 408 512.7 408 461.35 c 128,-1,49
 408 410 408 410 398.5 368.5 c 128,-1,50
 389 327 389 327 371.5 288.5 c 0,51,52
 334.833333333 207.833333333 334.833333333 207.833333333 278 151 c 1,53,54
 339.090909091 172 339.090909091 172 393.045454545 172 c 128,-1,55
 447 172 447 172 491 160.5 c 128,-1,56
 535 149 535 149 579.5 135.5 c 128,-1,0
 624 122 624 122 668 111 c 128,-1,1
EndSplineSet
EndChar

StartChar: currency
Encoding: 164 164 103
Width: 1024
Flags: W
LayerCount: 2
Fore
SplineSet
285 634.5 m 0,0,1
 285 585 285 585 302.5 544 c 128,-1,2
 320 503 320 503 350.5 473.5 c 128,-1,3
 381 444 381 444 423.5 427.5 c 128,-1,4
 466 411 466 411 516 411 c 128,-1,5
 566 411 566 411 606.5 427.5 c 128,-1,6
 647 444 647 444 675.5 474 c 0,7,8
 735 536.631578947 735 536.631578947 735 635 c 0,9,10
 735 734.114754098 735 734.114754098 670.5 796.5 c 128,-1,11
 605.881355932 859 605.881355932 859 506 859 c 0,12,13
 406.9 859 406.9 859 346 796 c 128,-1,14
 285 732.896551724 285 732.896551724 285 634.5 c 0,0,1
216 432 m 1,15,16
 155 526.655172414 155 526.655172414 155 633.396551724 c 128,-1,17
 155 740.137931034 155 740.137931034 216 839 c 1,18,-1
 100 953 l 1,19,-1
 193 1054 l 1,20,-1
 309 935 l 1,21,22
 403.5 998 403.5 998 513.540322581 998 c 128,-1,23
 623.580645161 998 623.580645161 998 713 935 c 1,24,-1
 832 1054 l 1,25,-1
 924 954 l 1,26,-1
 806 839 l 1,27,28
 869 744.5 869 744.5 869 638.215517241 c 128,-1,29
 869 531.931034483 869 531.931034483 806 432 c 1,30,-1
 924 316 l 1,31,-1
 832 217 l 1,32,-1
 713 337 l 1,33,34
 619.322580645 271 619.322580645 271 507.473790323 271 c 128,-1,35
 395.625 271 395.625 271 309 337 c 1,36,-1
 193 217 l 1,37,-1
 100 317 l 1,38,-1
 216 432 l 1,15,16
EndSplineSet
EndChar

StartChar: yen
Encoding: 165 165 104
Width: 1125
Flags: W
LayerCount: 2
Fore
SplineSet
493 0 m 1,0,-1
 493 270 l 1,1,-1
 151 270 l 1,2,-1
 151 377 l 1,3,-1
 493 377 l 1,4,-1
 493 503 l 1,5,-1
 151 503 l 1,6,-1
 151 619 l 1,7,-1
 434 619 l 1,8,-1
 100 1193 l 1,9,-1
 253 1193 l 1,10,-1
 562 650 l 1,11,-1
 868 1193 l 1,12,-1
 1025 1193 l 1,13,-1
 691 619 l 1,14,-1
 975 619 l 1,15,-1
 975 503 l 1,16,-1
 633 503 l 1,17,-1
 633 377 l 1,18,-1
 975 377 l 1,19,-1
 975 270 l 1,20,-1
 633 270 l 1,21,-1
 633 0 l 1,22,-1
 493 0 l 1,0,-1
EndSplineSet
EndChar

StartChar: brokenbar
Encoding: 166 166 105
Width: 328
Flags: W
LayerCount: 2
Fore
SplineSet
228 300 m 1,0,-1
 228 -368 l 1,1,-1
 100 -368 l 1,2,-1
 100 300 l 1,3,-1
 228 300 l 1,0,-1
228 1266 m 1,4,-1
 228 600 l 1,5,-1
 100 600 l 1,6,-1
 100 1266 l 1,7,-1
 228 1266 l 1,4,-1
EndSplineSet
EndChar

StartChar: section
Encoding: 167 167 106
Width: 910
Flags: W
LayerCount: 2
Fore
SplineSet
344 654 m 1,0,1
 215 546.5 215 546.5 215 420 c 0,2,3
 215 313.063291139 215 313.063291139 356.5 245 c 0,4,5
 396 226 396 226 434 210 c 0,6,7
 538.743589744 165.897435897 538.743589744 165.897435897 561 150 c 1,8,9
 586 173 586 173 611.5 195 c 128,-1,10
 637 217 637 217 657 240.5 c 0,11,12
 703 294.55 703 294.55 703 339.275 c 128,-1,13
 703 384 703 384 690 413 c 128,-1,14
 677 442 677 442 653.5 465 c 128,-1,15
 630 488 630 488 597.5 508.5 c 128,-1,16
 565 529 565 529 525 550 c 0,17,18
 404.450171821 613.288659794 404.450171821 613.288659794 344 654 c 1,0,1
155 -300 m 1,19,20
 155 -267 155 -267 167 -244 c 128,-1,21
 179 -221 179 -221 215 -210 c 1,22,23
 293.315789474 -303 293.315789474 -303 410 -303 c 0,24,25
 566.46031746 -303 566.46031746 -303 619.5 -221.5 c 0,26,27
 640 -190 640 -190 640 -139 c 128,-1,28
 640 -88 640 -88 617 -48 c 128,-1,29
 594 -8 594 -8 556 23.5 c 128,-1,30
 518 55 518 55 469.5 80.5 c 128,-1,31
 421 106 421 106 370 130.5 c 128,-1,32
 319 155 319 155 270.5 181.5 c 128,-1,33
 222 208 222 208 184 241.5 c 0,34,35
 100 315.552631579 100 315.552631579 100 420 c 0,36,37
 100 551.169491525 100 551.169491525 200.5 667 c 0,38,39
 230 701 230 701 263 727 c 1,40,41
 190.84660767 809.97640118 190.84660767 809.97640118 179.923303835 848.98820059 c 128,-1,42
 169 888 169 888 169 938.5 c 128,-1,43
 169 989 169 989 195.5 1047 c 128,-1,44
 222 1105 222 1105 267 1146 c 0,45,46
 362.487804878 1233 362.487804878 1233 501 1233 c 0,47,48
 578 1233 578 1233 635.5 1210 c 128,-1,49
 693 1187 693 1187 722 1163 c 128,-1,50
 751 1139 751 1139 751 1104 c 1,51,52
 745.527027027 1071.16216216 745.527027027 1071.16216216 693 1055 c 0,53,54
 680 1051 680 1051 669 1051 c 1,55,56
 642.497237569 1095.17127072 642.497237569 1095.17127072 607.248618785 1105.58563536 c 0,57,58
 561.846153846 1119 561.846153846 1119 506.423076923 1119 c 128,-1,59
 451 1119 451 1119 410.5 1100.5 c 128,-1,60
 370 1082 370 1082 342 1052.5 c 0,61,62
 284 991.392857143 284 991.392857143 284 931.196428571 c 128,-1,63
 284 871 284 871 306.5 834.5 c 128,-1,64
 329 798 329 798 366 767 c 128,-1,65
 403 736 403 736 450.5 709.5 c 128,-1,66
 498 683 498 683 547 655.5 c 128,-1,67
 596 628 596 628 643.5 598.5 c 128,-1,68
 691 569 691 569 728 532 c 0,69,70
 810 450 810 450 810 345 c 0,71,72
 810 207.935483871 810 207.935483871 641 88 c 1,73,74
 715.218646865 29.9158415842 715.218646865 29.9158415842 742.5 -76 c 0,75,76
 751 -109 751 -109 751 -158.5 c 128,-1,77
 751 -208 751 -208 722 -258.5 c 128,-1,78
 693 -309 693 -309 645 -343.5 c 0,79,80
 548.304347826 -413 548.304347826 -413 397.248665141 -413 c 128,-1,81
 246.192982456 -413 246.192982456 -413 155 -300 c 1,19,20
EndSplineSet
EndChar

StartChar: dieresis
Encoding: 168 168 107
Width: 670
Flags: W
LayerCount: 2
Fore
SplineSet
570 1208 m 1,0,-1
 438 1208 l 1,1,-1
 438 1355 l 1,2,-1
 570 1355 l 1,3,-1
 570 1208 l 1,0,-1
234 1208 m 1,4,-1
 100 1208 l 1,5,-1
 100 1355 l 1,6,-1
 234 1355 l 1,7,-1
 234 1208 l 1,4,-1
EndSplineSet
EndChar

StartChar: copyright
Encoding: 169 169 108
Width: 1474
Flags: W
LayerCount: 2
Fore
SplineSet
1044 488 m 1,0,1
 1020.55172414 382.482758621 1020.55172414 382.482758621 933.5 318 c 0,2,3
 848.45 255 848.45 255 754.225 255 c 128,-1,4
 660 255 660 255 598 284.5 c 128,-1,5
 536 314 536 314 493.5 364.5 c 0,6,7
 407 467.282352941 407 467.282352941 407 625 c 0,8,9
 407 779.517241379 407 779.517241379 497.5 882.5 c 0,10,11
 591.090909091 989 591.090909091 989 745 989 c 0,12,13
 900.148648649 989 900.148648649 989 989.5 873 c 0,14,15
 1018 836 1018 836 1031 788 c 1,16,-1
 938 765 l 1,17,18
 913 825 913 825 861 862.5 c 128,-1,19
 809 900 809 900 747.5 900 c 128,-1,20
 686 900 686 900 642.5 876 c 128,-1,21
 599 852 599 852 570.5 812.5 c 128,-1,22
 542 773 542 773 528 723 c 128,-1,23
 514 673 514 673 514 621 c 128,-1,24
 514 569 514 569 527 520 c 128,-1,25
 540 471 540 471 567 433.5 c 0,26,27
 627.12 350 627.12 350 734 350 c 0,28,29
 854.032258065 350 854.032258065 350 919.5 449 c 0,30,31
 940 480 940 480 948 517 c 1,32,-1
 1044 488 l 1,0,1
742.5 1167 m 0,33,34
 633 1167 633 1167 534 1124.5 c 128,-1,35
 435 1082 435 1082 360.5 1008.5 c 0,36,37
 199 849.167785235 199 849.167785235 199 627 c 0,38,39
 199 405.164383562 199 405.164383562 357 245 c 0,40,41
 515.824324324 84 515.824324324 84 738 84 c 0,42,43
 959.167785235 84 959.167785235 84 1118.5 245.5 c 0,44,45
 1277 406.156462585 1277 406.156462585 1277 627 c 0,46,47
 1277 843.253424658 1277 843.253424658 1119 1004.5 c 0,48,49
 959.771812081 1167 959.771812081 1167 742.5 1167 c 0,33,34
570 1244.5 m 0,50,51
 651 1268 651 1268 738.5 1268 c 128,-1,52
 826 1268 826 1268 907 1245 c 128,-1,53
 988 1222 988 1222 1059 1180 c 128,-1,54
 1130 1138 1130 1138 1188 1079 c 128,-1,55
 1246 1020 1246 1020 1287.5 949 c 0,56,57
 1374 801.012048193 1374 801.012048193 1374 627 c 0,58,59
 1374 362.103448276 1374 362.103448276 1188 174.5 c 0,60,61
 1001.11111111 -14 1001.11111111 -14 738 -14 c 0,62,63
 472.796610169 -14 472.796610169 -14 287 175 c 0,64,65
 100 365.224137931 100 365.224137931 100 627 c 0,66,67
 100 886.888888889 100 886.888888889 288.5 1077 c 0,68,69
 407.970257766 1197.49137108 407.970257766 1197.49137108 570 1244.5 c 0,50,51
EndSplineSet
EndChar

StartChar: ordfeminine
Encoding: 170 170 109
Width: 685
Flags: W
LayerCount: 2
Fore
SplineSet
189 753 m 128,-1,1
 189 693 189 693 296 693 c 0,2,3
 363.46875 693 363.46875 693 430.5 748 c 0,4,5
 450 764 450 764 463 782 c 1,6,-1
 463 883 l 1,7,8
 452 881 452 881 437 880.5 c 128,-1,9
 422 880 422 880 398 876.5 c 128,-1,10
 374 873 374 873 335 865.5 c 128,-1,11
 296 858 296 858 264 844.5 c 0,12,0
 189 812.859375 189 812.859375 189 753 c 128,-1,1
549 853 m 1,13,14
 549 718.52173913 549 718.52173913 585 634 c 1,15,-1
 505 609 l 1,16,17
 485.094117647 646.6 485.094117647 646.6 477 681 c 1,18,19
 394.090909091 609 394.090909091 609 300 609 c 0,20,21
 167.945454545 609 167.945454545 609 118.5 682.5 c 0,22,23
 100 710 100 710 100 760 c 128,-1,24
 100 810 100 810 125 845 c 128,-1,25
 150 880 150 880 189 901 c 0,26,27
 256.888888889 937.555555556 256.888888889 937.555555556 421 961 c 0,28,29
 442 964 442 964 463 970 c 1,30,31
 463 1041.73913043 463 1041.73913043 448 1065.86956522 c 0,32,33
 419.945945946 1111 419.945945946 1111 353 1111 c 0,34,35
 267.318181818 1111 267.318181818 1111 214 1042 c 0,36,37
 197 1020 197 1020 188 992 c 1,38,-1
 104 1011 l 1,39,40
 123.05952381 1096.76785714 123.05952381 1096.76785714 196 1146.5 c 0,41,42
 262.733333333 1192 262.733333333 1192 327.866666667 1192 c 128,-1,43
 393 1192 393 1192 430 1181.5 c 128,-1,44
 467 1171 467 1171 494.5 1150.5 c 0,45,46
 553 1106.89090909 553 1106.89090909 553 1027 c 1,47,-1
 549 853 l 1,13,14
EndSplineSet
EndChar

StartChar: guillemotleft
Encoding: 171 171 110
Width: 885
Flags: W
LayerCount: 2
Fore
SplineSet
263 500 m 1,0,-1
 485 112 l 1,1,-1
 365 112 l 1,2,-1
 100 500 l 1,3,-1
 365 888 l 1,4,-1
 485 888 l 1,5,-1
 263 500 l 1,0,-1
563 500 m 1,6,-1
 785 112 l 1,7,-1
 665 112 l 1,8,-1
 400 500 l 1,9,-1
 665 888 l 1,10,-1
 785 888 l 1,11,-1
 563 500 l 1,6,-1
EndSplineSet
EndChar

StartChar: logicalnot
Encoding: 172 172 111
Width: 727
Flags: W
LayerCount: 2
Fore
SplineSet
527 385 m 1,0,-1
 527 535 l 1,1,-1
 100 535 l 1,2,-1
 100 660 l 1,3,-1
 627 660 l 1,4,-1
 627 385 l 1,5,-1
 527 385 l 1,0,-1
EndSplineSet
EndChar

StartChar: uni00AD
Encoding: 173 173 112
Width: 727
Flags: W
LayerCount: 2
Fore
SplineSet
100 660 m 1,0,-1
 627 660 l 1,1,-1
 627 535 l 1,2,-1
 100 535 l 1,3,-1
 100 660 l 1,0,-1
EndSplineSet
EndChar

StartChar: registered
Encoding: 174 174 113
Width: 1474
Flags: W
LayerCount: 2
Fore
SplineSet
603 669 m 1,0,-1
 741 669 l 2,1,2
 818.47826087 669 818.47826087 669 848.739130435 683.5 c 128,-1,3
 879 698 879 698 894 719.5 c 128,-1,4
 909 741 909 741 909 777 c 128,-1,5
 909 813 909 813 892 834 c 128,-1,6
 875 855 875 855 848.5 865.5 c 0,7,8
 806.857142857 882 806.857142857 882 733 882 c 2,9,-1
 603 882 l 1,10,-1
 603 669 l 1,0,-1
504 291 m 1,11,-1
 504 966 l 1,12,-1
 733 966 l 2,13,14
 854.081081081 966 854.081081081 966 909.040540541 941.5 c 128,-1,15
 964 917 964 917 990.5 881.5 c 128,-1,16
 1017 846 1017 846 1017 795 c 128,-1,17
 1017 744 1017 744 1001 709.5 c 128,-1,18
 985 675 985 675 957.5 650.5 c 0,19,20
 902.300835655 601.322562674 902.300835655 601.322562674 818 595 c 1,21,22
 886.587288817 571.258246179 886.587288817 571.258246179 959.5 461 c 0,23,24
 998.923076923 401.384615385 998.923076923 401.384615385 1024.46153846 356.692307692 c 128,-1,25
 1050 312 1050 312 1063 291 c 1,26,-1
 937 291 l 1,27,28
 915 330 915 330 890.5 380 c 128,-1,29
 866 430 866 430 836 475 c 0,30,31
 765.333333333 581 765.333333333 581 675 581 c 2,32,-1
 603 581 l 1,33,-1
 603 291 l 1,34,-1
 504 291 l 1,11,-1
724.5 1167 m 0,35,36
 633 1167 633 1167 534 1124.5 c 128,-1,37
 435 1082 435 1082 360.5 1008.5 c 0,38,39
 199 849.167785235 199 849.167785235 199 627 c 0,40,41
 199 405.164383562 199 405.164383562 357 245 c 0,42,43
 515.824324324 84 515.824324324 84 738 84 c 128,-1,44
 960.154362416 84 960.154362416 84 1118.5 244.5 c 128,-1,45
 1277 405.156462585 1277 405.156462585 1277 627 c 0,46,47
 1277 840.663265306 1277 840.663265306 1119 1003.5 c 0,48,49
 960.356435644 1167 960.356435644 1167 724.5 1167 c 0,35,36
738.5 1268 m 0,50,51
 826 1268 826 1268 907 1245 c 128,-1,52
 988 1222 988 1222 1059 1180 c 128,-1,53
 1130 1138 1130 1138 1188 1079 c 128,-1,54
 1246 1020 1246 1020 1287.5 949 c 0,55,56
 1374 801.012048193 1374 801.012048193 1374 627 c 0,57,58
 1374 361.103448276 1374 361.103448276 1188 173.5 c 0,59,60
 1070.51780124 55.0050236622 1070.51780124 55.0050236622 907.5 9 c 0,61,62
 826 -14 826 -14 738 -14 c 128,-1,63
 650 -14 650 -14 568.5 9 c 128,-1,64
 487 32 487 32 416 74 c 128,-1,65
 345 116 345 116 286.5 174.5 c 128,-1,66
 228 233 228 233 186.5 304.5 c 0,67,68
 100 453.530120482 100 453.530120482 100 627 c 0,69,70
 100 886.888888889 100 886.888888889 288.5 1077 c 0,71,72
 477.881355932 1268 477.881355932 1268 738.5 1268 c 0,50,51
EndSplineSet
EndChar

StartChar: macron
Encoding: 175 175 114
Width: 1182
Flags: W
LayerCount: 2
Fore
SplineSet
1082 1258 m 1,0,-1
 100 1258 l 1,1,-1
 100 1372 l 1,2,-1
 1082 1372 l 1,3,-1
 1082 1258 l 1,0,-1
EndSplineSet
EndChar

StartChar: degree
Encoding: 176 176 115
Width: 698
Flags: W
LayerCount: 2
Fore
SplineSet
205 1037 m 128,-1,1
 205 1007 205 1007 216.5 981 c 128,-1,2
 228 955 228 955 247.5 935 c 128,-1,3
 267 915 267 915 293 903.5 c 128,-1,4
 319 892 319 892 349 892 c 128,-1,5
 379 892 379 892 405.5 903.5 c 128,-1,6
 432 915 432 915 451.5 935 c 128,-1,7
 471 955 471 955 482.5 981 c 128,-1,8
 494 1007 494 1007 494 1037 c 128,-1,9
 494 1067 494 1067 482.5 1092.5 c 128,-1,10
 471 1118 471 1118 451.5 1137.5 c 128,-1,11
 432 1157 432 1157 405.5 1168 c 128,-1,12
 379 1179 379 1179 349 1179 c 128,-1,13
 319 1179 319 1179 293 1168 c 128,-1,14
 267 1157 267 1157 247.5 1137.5 c 128,-1,15
 228 1118 228 1118 216.5 1092.5 c 128,-1,0
 205 1067 205 1067 205 1037 c 128,-1,1
100 1037 m 128,-1,17
 100 1089 100 1089 119.5 1134 c 128,-1,18
 139 1179 139 1179 173 1212 c 128,-1,19
 207 1245 207 1245 252 1264 c 128,-1,20
 297 1283 297 1283 349 1283 c 128,-1,21
 401 1283 401 1283 446.5 1264 c 128,-1,22
 492 1245 492 1245 525.5 1212 c 128,-1,23
 559 1179 559 1179 578.5 1134 c 128,-1,24
 598 1089 598 1089 598 1037 c 128,-1,25
 598 985 598 985 578.5 940 c 128,-1,26
 559 895 559 895 525.5 861 c 128,-1,27
 492 827 492 827 446.5 807.5 c 128,-1,28
 401 788 401 788 349 788 c 128,-1,29
 297 788 297 788 252 807.5 c 128,-1,30
 207 827 207 827 173 861 c 128,-1,31
 139 895 139 895 119.5 940 c 128,-1,16
 100 985 100 985 100 1037 c 128,-1,17
EndSplineSet
EndChar

StartChar: plusminus
Encoding: 177 177 116
Width: 1215
Flags: W
LayerCount: 2
Fore
SplineSet
100 127 m 1,0,-1
 1115 127 l 1,1,-1
 1115 35 l 1,2,-1
 100 35 l 1,3,-1
 100 127 l 1,0,-1
565 1003 m 1,4,-1
 654 1003 l 1,5,-1
 654 707 l 1,6,-1
 1115 707 l 1,7,-1
 1115 616 l 1,8,-1
 654 616 l 1,9,-1
 654 322 l 1,10,-1
 565 322 l 1,11,-1
 565 616 l 1,12,-1
 100 616 l 1,13,-1
 100 707 l 1,14,-1
 565 707 l 1,15,-1
 565 1003 l 1,4,-1
EndSplineSet
EndChar

StartChar: twosuperior
Encoding: 178 178 117
Width: 646
Flags: W
LayerCount: 2
Fore
SplineSet
211 1036 m 1,0,-1
 115 1042 l 1,1,2
 130 1136 130 1136 187.5 1187.5 c 128,-1,3
 245 1239 245 1239 336 1239 c 0,4,5
 478.514705882 1239 478.514705882 1239 528.5 1136 c 0,6,7
 545 1102 545 1102 545 1061 c 128,-1,8
 545 1020 545 1020 532 987 c 128,-1,9
 519 954 519 954 494.5 921.5 c 0,10,11
 438.49598163 847.208955224 438.49598163 847.208955224 291 731 c 0,12,13
 258 705 258 705 241 677 c 1,14,-1
 546 677 l 1,15,-1
 546 597 l 1,16,-1
 100 597 l 1,17,18
 104.726771654 696.262204724 104.726771654 696.262204724 221.5 794.5 c 0,19,20
 253 821 253 821 283 845 c 128,-1,21
 313 869 313 869 341.5 893 c 128,-1,22
 370 917 370 917 393 942.5 c 0,23,24
 445 1000.15217391 445 1000.15217391 445 1054 c 0,25,26
 445 1096.42857143 445 1096.42857143 423 1119.21428571 c 0,27,28
 384.586206897 1159 384.586206897 1159 335.293103448 1159 c 128,-1,29
 286 1159 286 1159 252.5 1125.5 c 128,-1,30
 219 1092 219 1092 211 1036 c 1,0,-1
EndSplineSet
EndChar

StartChar: threesuperior
Encoding: 179 179 118
Width: 640
Flags: W
LayerCount: 2
Fore
SplineSet
439 798 m 0,0,1
 439 903 439 903 317 903 c 2,2,-1
 288.5 903 l 2,3,4
 275 903 275 903 261 902 c 1,5,6
 262 907 262 907 262.5 911.5 c 128,-1,7
 263 916 263 916 264 921 c 2,8,-1
 271 958 l 2,9,10
 272 963 272 963 272.5 967.5 c 128,-1,11
 273 972 273 972 274 977 c 1,12,13
 364.666666667 977 364.666666667 977 400 1030 c 0,14,15
 412 1048 412 1048 412 1069.5 c 128,-1,16
 412 1091 412 1091 403 1107.5 c 128,-1,17
 394 1124 394 1124 380 1136.5 c 0,18,19
 349.2 1164 349.2 1164 307.1 1164 c 128,-1,20
 265 1164 265 1164 242 1139 c 128,-1,21
 219 1114 219 1114 199 1056 c 1,22,-1
 109 1073 l 1,23,24
 159.423076923 1244 159.423076923 1244 310 1244 c 0,25,26
 388.976744186 1244 388.976744186 1244 449 1199.5 c 0,27,28
 513 1152.05172414 513 1152.05172414 513 1074.82273707 c 128,-1,29
 513 997.59375 513 997.59375 444 948 c 1,30,31
 540 897.913043478 540 897.913043478 540 795 c 0,32,33
 540 705.8 540 705.8 468.5 647.5 c 0,34,35
 400.433962264 592 400.433962264 592 313.716981132 592 c 128,-1,36
 227 592 227 592 171.5 642.5 c 128,-1,37
 116 693 116 693 100 779 c 1,38,-1
 184 783 l 1,39,40
 216.083333333 673 216.083333333 673 305 673 c 0,41,42
 393.086956522 673 393.086956522 673 428 746 c 0,43,44
 439 769 439 769 439 798 c 0,0,1
EndSplineSet
EndChar

StartChar: acute
Encoding: 180 180 119
Width: 495
Flags: W
LayerCount: 2
Fore
SplineSet
207 1319 m 1,0,-1
 395 1319 l 1,1,-1
 211 1091 l 1,2,-1
 100 1091 l 1,3,-1
 207 1319 l 1,0,-1
EndSplineSet
EndChar

StartChar: uni00B5
Encoding: 181 181 120
Width: 1249
Flags: W
LayerCount: 2
Fore
SplineSet
305 79 m 1,0,-1
 223 -304 l 1,1,-1
 100 -304 l 1,2,-1
 378 1000 l 1,3,-1
 502 1000 l 1,4,-1
 364 351 l 2,5,6
 345.303383897 263.749124854 345.303383897 263.749124854 396 185.5 c 0,7,8
 448.802816901 104 448.802816901 104 531 104 c 0,9,10
 632.044776119 104 632.044776119 104 743.5 176.5 c 0,11,12
 863.149689991 254.330380868 863.149689991 254.330380868 884 351 c 2,13,-1
 1022 1000 l 1,14,-1
 1149 1000 l 1,15,-1
 960 113 l 1,16,-1
 1071 112 l 1,17,-1
 1051 0 l 1,18,-1
 936 0 l 2,19,20
 886 0 886 0 860 2 c 128,-1,21
 834 4 834 4 825.5 15.5 c 128,-1,22
 817 27 817 27 821.5 52.5 c 128,-1,23
 826 78 826 78 836 125 c 1,24,25
 762.176659529 47.2912205567 762.176659529 47.2912205567 702.588329764 21.6456102784 c 0,26,27
 608.147058824 -19 608.147058824 -19 495.773529412 -19 c 128,-1,28
 383.4 -19 383.4 -19 305 79 c 1,0,-1
EndSplineSet
EndChar

StartChar: paragraph
Encoding: 182 182 121
Width: 999
Flags: W
LayerCount: 2
Fore
SplineSet
406 967 m 1,0,1
 320.882462687 965.020522388 320.882462687 965.020522388 268.5 910.5 c 0,2,3
 218 857.93877551 218 857.93877551 218 774 c 0,4,5
 218 646.657142857 218 646.657142857 327 601.5 c 0,6,7
 362 587 362 587 406 586 c 1,8,-1
 406 967 l 1,0,1
899 965 m 1,9,-1
 793 965 l 1,10,-1
 793 -290 l 1,11,-1
 690 -290 l 1,12,-1
 690 965 l 1,13,-1
 504 965 l 1,14,-1
 504 -290 l 1,15,-1
 406 -290 l 1,16,-1
 406 483 l 1,17,18
 272.205158968 485.027194561 272.205158968 485.027194561 186.5 566.5 c 0,19,20
 100 648.728395062 100 648.728395062 100 779 c 0,21,22
 100 917.350515464 100 917.350515464 206.5 997.5 c 0,23,24
 302.835616438 1070 302.835616438 1070 445 1070 c 2,25,-1
 899 1070 l 1,26,-1
 899 965 l 1,9,-1
EndSplineSet
EndChar

StartChar: periodcentered
Encoding: 183 183 122
Width: 368
Flags: W
LayerCount: 2
Fore
SplineSet
100 587 m 1,0,-1
 100 776 l 1,1,-1
 268 776 l 1,2,-1
 268 587 l 1,3,-1
 100 587 l 1,0,-1
EndSplineSet
EndChar

StartChar: cedilla
Encoding: 184 184 123
Width: 626
Flags: W
LayerCount: 2
Fore
SplineSet
330 -154 m 1,0,-1
 271 -160 l 1,1,-1
 271 -20 l 1,2,-1
 319 -20 l 1,3,-1
 319 -103 l 1,4,5
 383.812182741 -82.7461928934 383.812182741 -82.7461928934 425.406091371 -99.8730964467 c 128,-1,6
 467 -117 467 -117 486 -135.5 c 0,7,8
 526 -174.447368421 526 -174.447368421 526 -222.723684211 c 128,-1,9
 526 -271 526 -271 512 -299 c 128,-1,10
 498 -327 498 -327 474.5 -346 c 0,11,12
 427.5 -384 427.5 -384 358.25 -384 c 0,13,14
 254.615384615 -384 254.615384615 -384 100 -317 c 1,15,-1
 123 -258 l 1,16,17
 147 -267 147 -267 170.5 -277 c 128,-1,18
 194 -287 194 -287 217.5 -296 c 0,19,20
 269.722222222 -316 269.722222222 -316 315 -316 c 0,21,22
 421 -316 421 -316 421 -235 c 0,23,24
 421 -196 421 -196 394 -175 c 128,-1,25
 367 -154 367 -154 330 -154 c 1,0,-1
EndSplineSet
EndChar

StartChar: onesuperior
Encoding: 185 185 124
Width: 462
Flags: W
LayerCount: 2
Fore
SplineSet
262 591 m 1,0,-1
 262 1072 l 1,1,2
 189.723549488 1020.10921502 189.723549488 1020.10921502 100 985 c 1,3,-1
 100 1073 l 1,4,5
 181.898305085 1096.88700565 181.898305085 1096.88700565 258.5 1182 c 0,6,7
 281 1207 281 1207 292 1229 c 1,8,-1
 362 1229 l 1,9,-1
 362 591 l 1,10,-1
 262 591 l 1,0,-1
EndSplineSet
EndChar

StartChar: ordmasculine
Encoding: 186 186 125
Width: 775
Flags: W
LayerCount: 2
Fore
SplineSet
565 797.5 m 128,-1,1
 579 846 579 846 579 910.5 c 128,-1,2
 579 975 579 975 564.5 1023 c 128,-1,3
 550 1071 550 1071 525 1103.5 c 128,-1,4
 500 1136 500 1136 466 1152 c 128,-1,5
 432 1168 432 1168 392 1168 c 128,-1,6
 352 1168 352 1168 316 1152 c 128,-1,7
 280 1136 280 1136 254 1103.5 c 128,-1,8
 228 1071 228 1071 212.5 1023 c 128,-1,9
 197 975 197 975 197 911 c 128,-1,10
 197 847 197 847 212.5 798.5 c 128,-1,11
 228 750 228 750 254 717.5 c 128,-1,12
 280 685 280 685 316 669 c 128,-1,13
 352 653 352 653 392 653 c 128,-1,14
 432 653 432 653 466.5 669 c 128,-1,15
 501 685 501 685 526 717 c 128,-1,0
 551 749 551 749 565 797.5 c 128,-1,1
675 902 m 0,16,17
 675 829 675 829 650.5 768.5 c 128,-1,18
 626 708 626 708 586.5 668.5 c 0,19,20
 508 590 508 590 392 590 c 0,21,22
 273.50617284 590 273.50617284 590 191 671.5 c 0,23,24
 100 761.390243902 100 761.390243902 100 911 c 0,25,26
 100 1052.23287671 100 1052.23287671 174.5 1140 c 0,27,28
 251.744186047 1231 251.744186047 1231 392 1231 c 0,29,30
 523.454545455 1231 523.454545455 1231 602 1135 c 0,31,32
 675 1045.77777778 675 1045.77777778 675 902 c 0,16,17
EndSplineSet
EndChar

StartChar: guillemotright
Encoding: 187 187 126
Width: 885
Flags: W
LayerCount: 2
Fore
SplineSet
220 888 m 1,0,-1
 485 500 l 1,1,-1
 220 112 l 1,2,-1
 100 112 l 1,3,-1
 322 500 l 1,4,-1
 100 888 l 1,5,-1
 220 888 l 1,0,-1
520 888 m 1,6,-1
 785 500 l 1,7,-1
 520 112 l 1,8,-1
 400 112 l 1,9,-1
 622 500 l 1,10,-1
 400 888 l 1,11,-1
 520 888 l 1,6,-1
EndSplineSet
EndChar

StartChar: onequarter
Encoding: 188 188 127
Width: 1500
Flags: W
LayerCount: 2
Fore
SplineSet
1201 212 m 1,0,-1
 1201 458 l 1,1,-1
 988 212 l 1,2,-1
 1201 212 l 1,0,-1
1201 0 m 1,3,-1
 1201 132 l 1,4,-1
 879 132 l 1,5,-1
 879 228 l 1,6,-1
 1221 629 l 1,7,-1
 1301 629 l 1,8,-1
 1301 212 l 1,9,-1
 1400 212 l 1,10,-1
 1400 132 l 1,11,-1
 1301 132 l 1,12,-1
 1301 0 l 1,13,-1
 1201 0 l 1,3,-1
262 591 m 1,14,-1
 262 1072 l 1,15,16
 189.723549488 1020.10921502 189.723549488 1020.10921502 100 985 c 1,17,-1
 100 1073 l 1,18,19
 181.898305085 1096.88700565 181.898305085 1096.88700565 258.5 1182 c 0,20,21
 281 1207 281 1207 292 1229 c 1,22,-1
 362 1229 l 1,23,-1
 362 591 l 1,24,-1
 262 591 l 1,14,-1
230 -45 m 1,25,-1
 1160 1265 l 1,26,-1
 1276 1265 l 1,27,-1
 344 -45 l 1,28,-1
 230 -45 l 1,25,-1
EndSplineSet
EndChar

StartChar: onehalf
Encoding: 189 189 128
Width: 1460
Flags: W
LayerCount: 2
Fore
SplineSet
1025 440 m 1,0,-1
 929 446 l 1,1,2
 944 540 944 540 1001.5 591.5 c 128,-1,3
 1059 643 1059 643 1150 643 c 0,4,5
 1292.51470588 643 1292.51470588 643 1342.5 540 c 0,6,7
 1359 506 1359 506 1359 465 c 128,-1,8
 1359 424 1359 424 1346 391 c 128,-1,9
 1333 358 1333 358 1308.5 325.5 c 0,10,11
 1252.49598163 251.208955224 1252.49598163 251.208955224 1105 135 c 0,12,13
 1072 109 1072 109 1055 81 c 1,14,-1
 1360 81 l 1,15,-1
 1360 1 l 1,16,-1
 914 1 l 1,17,18
 918.726771654 100.262204724 918.726771654 100.262204724 1035.5 198.5 c 0,19,20
 1067 225 1067 225 1097 249 c 128,-1,21
 1127 273 1127 273 1155.5 297 c 128,-1,22
 1184 321 1184 321 1207 346.5 c 0,23,24
 1259 404.152173913 1259 404.152173913 1259 458 c 0,25,26
 1259 500.428571429 1259 500.428571429 1237 523.214285714 c 0,27,28
 1198.5862069 563 1198.5862069 563 1149.29310345 563 c 128,-1,29
 1100 563 1100 563 1066.5 529.5 c 128,-1,30
 1033 496 1033 496 1025 440 c 1,0,-1
262 591 m 1,31,-1
 262 1072 l 1,32,33
 189.723549488 1020.10921502 189.723549488 1020.10921502 100 985 c 1,34,-1
 100 1073 l 1,35,36
 181.898305085 1096.88700565 181.898305085 1096.88700565 258.5 1182 c 0,37,38
 281 1207 281 1207 292 1229 c 1,39,-1
 362 1229 l 1,40,-1
 362 591 l 1,41,-1
 262 591 l 1,31,-1
185 -45 m 1,42,-1
 1115 1265 l 1,43,-1
 1231 1265 l 1,44,-1
 299 -45 l 1,45,-1
 185 -45 l 1,42,-1
EndSplineSet
EndChar

StartChar: threequarters
Encoding: 190 190 129
Width: 1471
Flags: W
LayerCount: 2
Fore
SplineSet
1172 212 m 1,0,-1
 1172 458 l 1,1,-1
 959 212 l 1,2,-1
 1172 212 l 1,0,-1
1172 0 m 1,3,-1
 1172 132 l 1,4,-1
 850 132 l 1,5,-1
 850 228 l 1,6,-1
 1192 629 l 1,7,-1
 1272 629 l 1,8,-1
 1272 212 l 1,9,-1
 1371 212 l 1,10,-1
 1371 132 l 1,11,-1
 1272 132 l 1,12,-1
 1272 0 l 1,13,-1
 1172 0 l 1,3,-1
439 798 m 0,14,15
 439 903 439 903 317 903 c 2,16,-1
 288.5 903 l 2,17,18
 275 903 275 903 261 902 c 1,19,20
 262 907 262 907 262.5 911.5 c 128,-1,21
 263 916 263 916 264 921 c 2,22,-1
 271 958 l 2,23,24
 272 963 272 963 272.5 967.5 c 128,-1,25
 273 972 273 972 274 977 c 1,26,27
 364.666666667 977 364.666666667 977 400 1030 c 0,28,29
 412 1048 412 1048 412 1069.5 c 128,-1,30
 412 1091 412 1091 403 1107.5 c 128,-1,31
 394 1124 394 1124 380 1136.5 c 0,32,33
 349.2 1164 349.2 1164 307.1 1164 c 128,-1,34
 265 1164 265 1164 242 1139 c 128,-1,35
 219 1114 219 1114 199 1056 c 1,36,-1
 109 1073 l 1,37,38
 159.423076923 1244 159.423076923 1244 310 1244 c 0,39,40
 388.976744186 1244 388.976744186 1244 449 1199.5 c 0,41,42
 513 1152.05172414 513 1152.05172414 513 1074.82273707 c 128,-1,43
 513 997.59375 513 997.59375 444 948 c 1,44,45
 540 897.913043478 540 897.913043478 540 795 c 0,46,47
 540 705.8 540 705.8 468.5 647.5 c 0,48,49
 400.433962264 592 400.433962264 592 313.716981132 592 c 128,-1,50
 227 592 227 592 171.5 642.5 c 128,-1,51
 116 693 116 693 100 779 c 1,52,-1
 184 783 l 1,53,54
 216.083333333 673 216.083333333 673 305 673 c 0,55,56
 393.086956522 673 393.086956522 673 428 746 c 0,57,58
 439 769 439 769 439 798 c 0,14,15
201 -45 m 1,59,-1
 1131 1265 l 1,60,-1
 1247 1265 l 1,61,-1
 315 -45 l 1,62,-1
 201 -45 l 1,59,-1
EndSplineSet
EndChar

StartChar: questiondown
Encoding: 191 191 130
Width: 973
Flags: W
LayerCount: 2
Fore
SplineSet
100 321 m 1,0,1
 153.166666667 343 153.166666667 343 228 343 c 1,2,3
 258.151982379 172.13876652 258.151982379 172.13876652 384.5 115.5 c 0,4,5
 428 96 428 96 480 96 c 128,-1,6
 532 96 532 96 579 113.5 c 128,-1,7
 626 131 626 131 663 162.5 c 0,8,9
 745 232.310810811 745 232.310810811 745 334 c 0,10,11
 745 407.394366197 745 407.394366197 662.5 505 c 0,12,13
 627 547 627 547 585.5 591.5 c 128,-1,14
 544 636 544 636 508.5 688 c 0,15,16
 426 808.845070423 426 808.845070423 426 938 c 1,17,-1
 539 938 l 1,18,19
 541.50779151 780.009134874 541.50779151 780.009134874 646 679 c 0,20,21
 676 650 676 650 707 623 c 128,-1,22
 738 596 738 596 768 568 c 128,-1,23
 798 540 798 540 821.5 505.5 c 0,24,25
 873 429.893617021 873 429.893617021 873 338.946808511 c 128,-1,26
 873 248 873 248 840.5 187 c 128,-1,27
 808 126 808 126 754 84.5 c 0,28,29
 644.048192771 2.13162820728e-14 644.048192771 2.13162820728e-14 490 0 c 0,30,31
 314.962025316 0 314.962025316 0 230.5 78.5 c 0,32,33
 188 118 188 118 158.5 178.5 c 128,-1,34
 129 239 129 239 100 321 c 1,0,1
403 1083 m 1,35,-1
 403 1243 l 1,36,-1
 560 1243 l 1,37,-1
 560 1083 l 1,38,-1
 403 1083 l 1,35,-1
EndSplineSet
EndChar

StartChar: Agrave
Encoding: 192 192 131
Width: 1402
Flags: W
LayerCount: 2
Fore
SplineSet
460 550 m 1,0,-1
 943 550 l 1,1,-1
 703 1216 l 1,2,-1
 460 550 l 1,0,-1
100 0 m 1,3,-1
 606 1372 l 1,4,-1
 798 1372 l 1,5,-1
 1302 0 l 1,6,-1
 1146 0 l 1,7,-1
 992 420 l 1,8,-1
 407 420 l 1,9,-1
 256 0 l 1,10,-1
 100 0 l 1,3,-1
848 1463 m 1,11,-1
 738 1463 l 1,12,-1
 554 1691 l 1,13,-1
 741 1691 l 1,14,-1
 848 1463 l 1,11,-1
EndSplineSet
EndChar

StartChar: Aacute
Encoding: 193 193 132
Width: 1402
Flags: W
LayerCount: 2
Fore
SplineSet
460 550 m 1,0,-1
 943 550 l 1,1,-1
 703 1216 l 1,2,-1
 460 550 l 1,0,-1
100 0 m 1,3,-1
 606 1372 l 1,4,-1
 798 1372 l 1,5,-1
 1302 0 l 1,6,-1
 1146 0 l 1,7,-1
 992 420 l 1,8,-1
 407 420 l 1,9,-1
 256 0 l 1,10,-1
 100 0 l 1,3,-1
661 1691 m 1,11,-1
 849 1691 l 1,12,-1
 665 1463 l 1,13,-1
 554 1463 l 1,14,-1
 661 1691 l 1,11,-1
EndSplineSet
EndChar

StartChar: Acircumflex
Encoding: 194 194 133
Width: 1402
Flags: W
LayerCount: 2
Fore
SplineSet
460 550 m 1,0,-1
 943 550 l 1,1,-1
 703 1216 l 1,2,-1
 460 550 l 1,0,-1
100 0 m 1,3,-1
 606 1372 l 1,4,-1
 798 1372 l 1,5,-1
 1302 0 l 1,6,-1
 1146 0 l 1,7,-1
 992 420 l 1,8,-1
 407 420 l 1,9,-1
 256 0 l 1,10,-1
 100 0 l 1,3,-1
702 1578 m 1,11,-1
 604 1462 l 1,12,-1
 454 1462 l 1,13,-1
 625 1672 l 1,14,-1
 779 1672 l 1,15,-1
 949 1462 l 1,16,-1
 798 1462 l 1,17,-1
 702 1578 l 1,11,-1
EndSplineSet
EndChar

StartChar: Atilde
Encoding: 195 195 134
Width: 1402
Flags: W
LayerCount: 2
Fore
SplineSet
460 550 m 1,0,-1
 943 550 l 1,1,-1
 703 1216 l 1,2,-1
 460 550 l 1,0,-1
100 0 m 1,3,-1
 606 1372 l 1,4,-1
 798 1372 l 1,5,-1
 1302 0 l 1,6,-1
 1146 0 l 1,7,-1
 992 420 l 1,8,-1
 407 420 l 1,9,-1
 256 0 l 1,10,-1
 100 0 l 1,3,-1
632 1525.5 m 128,-1,12
 596 1538 596 1538 554.038461538 1538 c 128,-1,13
 512.076923077 1538 512.076923077 1538 506 1459 c 1,14,-1
 379 1459 l 1,15,16
 382.2475182 1611.63335539 382.2475182 1611.63335539 478.5 1660.5 c 0,17,18
 511 1677 511 1677 553 1677 c 128,-1,19
 595 1677 595 1677 629.5 1663.5 c 128,-1,20
 664 1650 664 1650 698.5 1633.5 c 0,21,22
 791.545454545 1589 791.545454545 1589 848 1589 c 0,23,24
 889.230769231 1589 889.230769231 1589 896 1677 c 1,25,-1
 1023 1677 l 1,26,27
 1019.74156188 1523.85340834 1019.74156188 1523.85340834 924.5 1475.5 c 0,28,29
 892 1459 892 1459 850.5 1459 c 128,-1,30
 809 1459 809 1459 773.5 1471.5 c 128,-1,31
 738 1484 738 1484 703 1498.5 c 128,-1,11
 668 1513 668 1513 632 1525.5 c 128,-1,12
EndSplineSet
EndChar

StartChar: Adieresis
Encoding: 196 196 135
Width: 1402
Flags: W
LayerCount: 2
Fore
SplineSet
460 550 m 1,0,-1
 943 550 l 1,1,-1
 703 1216 l 1,2,-1
 460 550 l 1,0,-1
100 0 m 1,3,-1
 606 1372 l 1,4,-1
 798 1372 l 1,5,-1
 1302 0 l 1,6,-1
 1146 0 l 1,7,-1
 992 420 l 1,8,-1
 407 420 l 1,9,-1
 256 0 l 1,10,-1
 100 0 l 1,3,-1
936 1580 m 1,11,-1
 804 1580 l 1,12,-1
 804 1727 l 1,13,-1
 936 1727 l 1,14,-1
 936 1580 l 1,11,-1
600 1580 m 1,15,-1
 466 1580 l 1,16,-1
 466 1727 l 1,17,-1
 600 1727 l 1,18,-1
 600 1580 l 1,15,-1
EndSplineSet
EndChar

StartChar: Aring
Encoding: 197 197 136
Width: 1402
Flags: W
LayerCount: 2
Fore
SplineSet
460 550 m 1,0,-1
 943 550 l 1,1,-1
 703 1216 l 1,2,-1
 460 550 l 1,0,-1
640 1565.5 m 128,-1,4
 615 1541 615 1541 615 1502.5 c 128,-1,5
 615 1464 615 1464 640 1438.5 c 128,-1,6
 665 1413 665 1413 703.5 1413 c 128,-1,7
 742 1413 742 1413 767 1438.5 c 128,-1,8
 792 1464 792 1464 792 1502.5 c 128,-1,9
 792 1541 792 1541 767 1565.5 c 128,-1,10
 742 1590 742 1590 703.5 1590 c 128,-1,3
 665 1590 665 1590 640 1565.5 c 128,-1,4
803 1357 m 1,11,-1
 1302 0 l 1,12,-1
 1146 0 l 1,13,-1
 992 420 l 1,14,-1
 407 420 l 1,15,-1
 256 0 l 1,16,-1
 100 0 l 1,17,-1
 601 1359 l 1,18,19
 530 1408.48484848 530 1408.48484848 530 1503 c 0,20,21
 530 1578.56521739 530 1578.56521739 579 1626.5 c 0,22,23
 627.555555556 1674 627.555555556 1674 704 1674 c 0,24,25
 779.444444444 1674 779.444444444 1674 828 1626.5 c 0,26,27
 877 1578.56521739 877 1578.56521739 877 1492.09689441 c 128,-1,28
 877 1405.62857143 877 1405.62857143 803 1357 c 1,11,-1
EndSplineSet
EndChar

StartChar: AE
Encoding: 198 198 137
Width: 1657
Flags: W
LayerCount: 2
Fore
SplineSet
635 773 m 1,0,-1
 839 773 l 1,1,-1
 839 1199 l 1,2,-1
 635 773 l 1,0,-1
263 0 m 1,3,-1
 100 0 l 1,4,-1
 774 1372 l 1,5,-1
 1528 1372 l 1,6,-1
 1528 1241 l 1,7,-1
 993 1241 l 1,8,-1
 993 773 l 1,9,-1
 1424 773 l 1,10,-1
 1424 645 l 1,11,-1
 993 645 l 1,12,-1
 993 130 l 1,13,-1
 1557 130 l 1,14,-1
 1557 0 l 1,15,-1
 839 0 l 1,16,-1
 839 645 l 1,17,-1
 573 645 l 1,18,-1
 263 0 l 1,3,-1
EndSplineSet
EndChar

StartChar: Ccedilla
Encoding: 199 199 138
Width: 1359
Flags: W
LayerCount: 2
Fore
SplineSet
726 -156 m 1,0,-1
 667 -162 l 1,1,-1
 667 -22 l 1,2,3
 376.818308875 -4.58909853249 376.818308875 -4.58909853249 233 183 c 0,4,5
 100 356.47826087 100 356.47826087 100 670 c 0,6,7
 100 1185.12133891 100 1185.12133891 438.5 1339.5 c 0,8,9
 558 1394 558 1394 692.5 1394 c 128,-1,10
 827 1394 827 1394 912.5 1370 c 128,-1,11
 998 1346 998 1346 1066.5 1297.5 c 0,12,13
 1207.972854 1197.33308877 1207.972854 1197.33308877 1259 1005 c 1,14,-1
 1121 973 l 1,15,16
 1037.28767123 1264 1037.28767123 1264 727 1264 c 0,17,18
 473.49689441 1264 473.49689441 1264 352.5 1088.5 c 0,19,20
 250 939.828828829 250 939.828828829 250 673 c 0,21,22
 250 275.296703297 250 275.296703297 505 152 c 0,23,24
 596 108 596 108 727 108 c 0,25,26
 1050.0617284 108 1050.0617284 108 1121 446 c 1,27,-1
 1259 417 l 1,28,29
 1173.96412556 -24 1173.96412556 -24 715 -24 c 1,30,-1
 715 -105 l 1,31,32
 779.812182741 -84.7461928934 779.812182741 -84.7461928934 821.406091371 -101.873096447 c 128,-1,33
 863 -119 863 -119 882 -137.5 c 0,34,35
 922 -176.447368421 922 -176.447368421 922 -224.723684211 c 128,-1,36
 922 -273 922 -273 908 -301 c 128,-1,37
 894 -329 894 -329 870.5 -348 c 0,38,39
 784.41821643 -417.59803778 784.41821643 -417.59803778 620.5 -365.5 c 0,40,41
 556 -345 556 -345 496 -319 c 1,42,-1
 519 -260 l 1,43,44
 543 -269 543 -269 566.5 -279 c 128,-1,45
 590 -289 590 -289 613.5 -298 c 0,46,47
 665.722222222 -318 665.722222222 -318 711 -318 c 0,48,49
 817 -318 817 -318 817 -237 c 0,50,51
 817 -198 817 -198 790 -177 c 128,-1,52
 763 -156 763 -156 726 -156 c 1,0,-1
EndSplineSet
EndChar

StartChar: Egrave
Encoding: 200 200 139
Width: 1201
Flags: W
LayerCount: 2
Fore
SplineSet
1101 0 m 1,0,-1
 100 0 l 1,1,-1
 100 1372 l 1,2,-1
 1078 1372 l 1,3,-1
 1078 1243 l 1,4,-1
 251 1243 l 1,5,-1
 251 773 l 1,6,-1
 1009 773 l 1,7,-1
 1009 645 l 1,8,-1
 251 645 l 1,9,-1
 251 129 l 1,10,-1
 1101 129 l 1,11,-1
 1101 0 l 1,0,-1
748 1463 m 1,12,-1
 638 1463 l 1,13,-1
 454 1691 l 1,14,-1
 641 1691 l 1,15,-1
 748 1463 l 1,12,-1
EndSplineSet
EndChar

StartChar: Eacute
Encoding: 201 201 140
Width: 1201
Flags: W
LayerCount: 2
Fore
SplineSet
1101 0 m 1,0,-1
 100 0 l 1,1,-1
 100 1372 l 1,2,-1
 1078 1372 l 1,3,-1
 1078 1243 l 1,4,-1
 251 1243 l 1,5,-1
 251 773 l 1,6,-1
 1009 773 l 1,7,-1
 1009 645 l 1,8,-1
 251 645 l 1,9,-1
 251 129 l 1,10,-1
 1101 129 l 1,11,-1
 1101 0 l 1,0,-1
560 1691 m 1,12,-1
 748 1691 l 1,13,-1
 564 1463 l 1,14,-1
 453 1463 l 1,15,-1
 560 1691 l 1,12,-1
EndSplineSet
EndChar

StartChar: Ecircumflex
Encoding: 202 202 141
Width: 1201
Flags: W
LayerCount: 2
Fore
SplineSet
1101 0 m 1,0,-1
 100 0 l 1,1,-1
 100 1372 l 1,2,-1
 1078 1372 l 1,3,-1
 1078 1243 l 1,4,-1
 251 1243 l 1,5,-1
 251 773 l 1,6,-1
 1009 773 l 1,7,-1
 1009 645 l 1,8,-1
 251 645 l 1,9,-1
 251 129 l 1,10,-1
 1101 129 l 1,11,-1
 1101 0 l 1,0,-1
601 1578 m 1,12,-1
 503 1462 l 1,13,-1
 353 1462 l 1,14,-1
 524 1672 l 1,15,-1
 678 1672 l 1,16,-1
 848 1462 l 1,17,-1
 697 1462 l 1,18,-1
 601 1578 l 1,12,-1
EndSplineSet
EndChar

StartChar: Edieresis
Encoding: 203 203 142
Width: 1201
Flags: W
LayerCount: 2
Fore
SplineSet
1101 0 m 1,0,-1
 100 0 l 1,1,-1
 100 1372 l 1,2,-1
 1078 1372 l 1,3,-1
 1078 1243 l 1,4,-1
 251 1243 l 1,5,-1
 251 773 l 1,6,-1
 1009 773 l 1,7,-1
 1009 645 l 1,8,-1
 251 645 l 1,9,-1
 251 129 l 1,10,-1
 1101 129 l 1,11,-1
 1101 0 l 1,0,-1
836 1580 m 1,12,-1
 704 1580 l 1,13,-1
 704 1727 l 1,14,-1
 836 1727 l 1,15,-1
 836 1580 l 1,12,-1
500 1580 m 1,16,-1
 366 1580 l 1,17,-1
 366 1727 l 1,18,-1
 500 1727 l 1,19,-1
 500 1580 l 1,16,-1
EndSplineSet
EndChar

StartChar: Igrave
Encoding: 204 204 143
Width: 352
Flags: W
LayerCount: 2
Fore
SplineSet
252 0 m 1,0,-1
 100 0 l 1,1,-1
 100 1372 l 1,2,-1
 252 1372 l 1,3,-1
 252 0 l 1,0,-1
323 1463 m 1,4,-1
 213 1463 l 1,5,-1
 29 1691 l 1,6,-1
 216 1691 l 1,7,-1
 323 1463 l 1,4,-1
EndSplineSet
EndChar

StartChar: Iacute
Encoding: 205 205 144
Width: 352
Flags: W
LayerCount: 2
Fore
SplineSet
252 0 m 1,0,-1
 100 0 l 1,1,-1
 100 1372 l 1,2,-1
 252 1372 l 1,3,-1
 252 0 l 1,0,-1
135 1691 m 1,4,-1
 323 1691 l 1,5,-1
 139 1463 l 1,6,-1
 28 1463 l 1,7,-1
 135 1691 l 1,4,-1
EndSplineSet
EndChar

StartChar: Icircumflex
Encoding: 206 206 145
Width: 352
Flags: W
LayerCount: 2
Fore
SplineSet
252 0 m 1,0,-1
 100 0 l 1,1,-1
 100 1372 l 1,2,-1
 252 1372 l 1,3,-1
 252 0 l 1,0,-1
176 1578 m 1,4,-1
 78 1462 l 1,5,-1
 -72 1462 l 1,6,-1
 99 1672 l 1,7,-1
 253 1672 l 1,8,-1
 423 1462 l 1,9,-1
 272 1462 l 1,10,-1
 176 1578 l 1,4,-1
EndSplineSet
EndChar

StartChar: Idieresis
Encoding: 207 207 146
Width: 352
Flags: W
LayerCount: 2
Fore
SplineSet
252 0 m 1,0,-1
 100 0 l 1,1,-1
 100 1372 l 1,2,-1
 252 1372 l 1,3,-1
 252 0 l 1,0,-1
411 1580 m 1,4,-1
 279 1580 l 1,5,-1
 279 1727 l 1,6,-1
 411 1727 l 1,7,-1
 411 1580 l 1,4,-1
75 1580 m 1,8,-1
 -59 1580 l 1,9,-1
 -59 1727 l 1,10,-1
 75 1727 l 1,11,-1
 75 1580 l 1,8,-1
EndSplineSet
EndChar

StartChar: Eth
Encoding: 208 208 147
Width: 1421
Flags: W
LayerCount: 2
Fore
SplineSet
372 619 m 1,0,-1
 372 129 l 1,1,-1
 747 129 l 2,2,3
 967.834394904 129 967.834394904 129 1078.5 304.5 c 0,4,5
 1170 449.606060606 1170 449.606060606 1170 686 c 0,6,7
 1170 1115.96551724 1170 1115.96551724 921 1219 c 0,8,9
 863 1243 863 1243 786 1243 c 2,10,-1
 372 1243 l 1,11,-1
 372 752 l 1,12,-1
 679 752 l 1,13,-1
 679 619 l 1,14,-1
 372 619 l 1,0,-1
793 1372 m 2,15,16
 973.395833333 1372 973.395833333 1372 1100 1269 c 0,17,18
 1209.78293601 1179.68506901 1209.78293601 1179.68506901 1269 1013 c 0,19,20
 1321 866.62962963 1321 866.62962963 1321 686 c 0,21,22
 1321 394.069767442 1321 394.069767442 1198 211 c 0,23,24
 1056.234375 0 1056.234375 0 780 0 c 2,25,-1
 222 0 l 1,26,-1
 222 619 l 1,27,-1
 100 619 l 1,28,-1
 100 752 l 1,29,-1
 222 752 l 1,30,-1
 222 1372 l 1,31,-1
 793 1372 l 2,15,16
EndSplineSet
EndChar

StartChar: Ntilde
Encoding: 209 209 148
Width: 1265
Flags: W
LayerCount: 2
Fore
SplineSet
1165 0 m 1,0,-1
 1001 0 l 1,1,-1
 251 1128 l 1,2,-1
 251 0 l 1,3,-1
 100 0 l 1,4,-1
 100 1372 l 1,5,-1
 265 1372 l 1,6,-1
 1015 243 l 1,7,-1
 1015 1372 l 1,8,-1
 1165 1372 l 1,9,-1
 1165 0 l 1,0,-1
564 1525.5 m 128,-1,11
 528 1538 528 1538 486.038461538 1538 c 128,-1,12
 444.076923077 1538 444.076923077 1538 438 1459 c 1,13,-1
 311 1459 l 1,14,15
 314.2475182 1611.63335539 314.2475182 1611.63335539 410.5 1660.5 c 0,16,17
 443 1677 443 1677 485 1677 c 128,-1,18
 527 1677 527 1677 561.5 1663.5 c 128,-1,19
 596 1650 596 1650 630.5 1633.5 c 0,20,21
 723.545454545 1589 723.545454545 1589 780 1589 c 0,22,23
 821.230769231 1589 821.230769231 1589 828 1677 c 1,24,-1
 955 1677 l 1,25,26
 951.74156188 1523.85340834 951.74156188 1523.85340834 856.5 1475.5 c 0,27,28
 824 1459 824 1459 782.5 1459 c 128,-1,29
 741 1459 741 1459 705.5 1471.5 c 128,-1,30
 670 1484 670 1484 635 1498.5 c 128,-1,10
 600 1513 600 1513 564 1525.5 c 128,-1,11
EndSplineSet
EndChar

StartChar: Ograve
Encoding: 210 210 149
Width: 1470
Flags: W
LayerCount: 2
Fore
SplineSet
1220 684.5 m 0,0,1
 1220 830 1220 830 1178.5 938 c 128,-1,2
 1137 1046 1137 1046 1069 1118.5 c 0,3,4
 932.531034483 1264 932.531034483 1264 735 1264 c 0,5,6
 538.468965517 1264 538.468965517 1264 402 1118.5 c 0,7,8
 251 957.507352941 251 957.507352941 251 686 c 0,9,10
 251 413.927536232 251 413.927536232 405 251 c 0,11,12
 543.945205479 104 543.945205479 104 743 104 c 0,13,14
 939.875862069 104 939.875862069 104 1071.5 247.5 c 0,15,16
 1220 409.398496241 1220 409.398496241 1220 684.5 c 0,0,1
1327.5 957.5 m 128,-1,18
 1370 829 1370 829 1370 697 c 128,-1,19
 1370 565 1370 565 1346 465.5 c 128,-1,20
 1322 366 1322 366 1279.5 286.5 c 128,-1,21
 1237 207 1237 207 1179 148 c 128,-1,22
 1121 89 1121 89 1052.5 50 c 0,23,24
 915.5 -28 915.5 -28 754 -28 c 0,25,26
 493 -28 493 -28 305.5 153.5 c 0,27,28
 100 352.424 100 352.424 100 686 c 0,29,30
 100 1002.90566038 100 1002.90566038 259.5 1192.5 c 0,31,32
 429.015873016 1394 429.015873016 1394 739 1394 c 0,33,34
 1029.39175258 1394 1029.39175258 1394 1204.5 1183 c 0,35,17
 1285 1086 1285 1086 1327.5 957.5 c 128,-1,18
882 1463 m 1,36,-1
 772 1463 l 1,37,-1
 588 1691 l 1,38,-1
 775 1691 l 1,39,-1
 882 1463 l 1,36,-1
EndSplineSet
EndChar

StartChar: Oacute
Encoding: 211 211 150
Width: 1470
Flags: W
LayerCount: 2
Fore
SplineSet
1076.26551724 1110.75367647 m 128,-1,1
 932.531034483 1264 932.531034483 1264 735.5 1264 c 128,-1,2
 538.468965517 1264 538.468965517 1264 394.734482759 1110.75367647 c 128,-1,3
 251 957.507352941 251 957.507352941 251 685.717444587 c 128,-1,4
 251 413.927536232 251 413.927536232 397.47260274 258.963768116 c 128,-1,5
 543.945205479 104 543.945205479 104 741.910533774 104 c 128,-1,6
 939.875862069 104 939.875862069 104 1079.93793103 256.69924812 c 128,-1,7
 1220 409.398496241 1220 409.398496241 1220 683.452924591 c 128,-1,0
 1220 957.507352941 1220 957.507352941 1076.26551724 1110.75367647 c 128,-1,1
1327.5 957.5 m 128,-1,9
 1370 829 1370 829 1370 697 c 0,10,11
 1370 455.788235294 1370 455.788235294 1283.53596648 294.049631407 c 128,-1,12
 1197.07193295 132.311027519 1197.07193295 132.311027519 1056.28596648 52.1555137597 c 128,-1,13
 915.5 -28 915.5 -28 754 -28 c 0,14,15
 493 -28 493 -28 296.5 162.212 c 128,-1,16
 100 352.424 100 352.424 100 677.664830189 c 128,-1,17
 100 1002.90566038 100 1002.90566038 264.507936508 1198.45283019 c 128,-1,18
 429.015873016 1394 429.015873016 1394 729.203812797 1394 c 128,-1,19
 1029.39175258 1394 1029.39175258 1394 1204.5 1183 c 0,20,8
 1285 1086 1285 1086 1327.5 957.5 c 128,-1,9
695 1691 m 1,21,-1
 883 1691 l 1,22,-1
 699 1463 l 1,23,-1
 588 1463 l 1,24,-1
 695 1691 l 1,21,-1
EndSplineSet
EndChar

StartChar: Ocircumflex
Encoding: 212 212 151
Width: 1470
Flags: W
LayerCount: 2
Fore
SplineSet
1076.26551724 1110.75367647 m 128,-1,1
 932.531034483 1264 932.531034483 1264 735.5 1264 c 128,-1,2
 538.468965517 1264 538.468965517 1264 394.734482759 1110.75367647 c 128,-1,3
 251 957.507352941 251 957.507352941 251 685.717444587 c 128,-1,4
 251 413.927536232 251 413.927536232 397.47260274 258.963768116 c 128,-1,5
 543.945205479 104 543.945205479 104 741.910533774 104 c 128,-1,6
 939.875862069 104 939.875862069 104 1079.93793103 256.69924812 c 128,-1,7
 1220 409.398496241 1220 409.398496241 1220 683.452924591 c 128,-1,0
 1220 957.507352941 1220 957.507352941 1076.26551724 1110.75367647 c 128,-1,1
1327.5 957.5 m 128,-1,9
 1370 829 1370 829 1370 697 c 0,10,11
 1370 455.788235294 1370 455.788235294 1283.53596648 294.049631407 c 128,-1,12
 1197.07193295 132.311027519 1197.07193295 132.311027519 1056.28596648 52.1555137597 c 128,-1,13
 915.5 -28 915.5 -28 754 -28 c 0,14,15
 493 -28 493 -28 296.5 162.212 c 128,-1,16
 100 352.424 100 352.424 100 677.664830189 c 128,-1,17
 100 1002.90566038 100 1002.90566038 264.507936508 1198.45283019 c 128,-1,18
 429.015873016 1394 429.015873016 1394 729.203812797 1394 c 128,-1,19
 1029.39175258 1394 1029.39175258 1394 1204.5 1183 c 0,20,8
 1285 1086 1285 1086 1327.5 957.5 c 128,-1,9
736 1578 m 1,21,-1
 638 1462 l 1,22,-1
 488 1462 l 1,23,-1
 659 1672 l 1,24,-1
 813 1672 l 1,25,-1
 983 1462 l 1,26,-1
 832 1462 l 1,27,-1
 736 1578 l 1,21,-1
EndSplineSet
EndChar

StartChar: Otilde
Encoding: 213 213 152
Width: 1470
Flags: W
LayerCount: 2
Fore
SplineSet
1076.26551724 1110.75367647 m 128,-1,1
 932.531034483 1264 932.531034483 1264 735.5 1264 c 128,-1,2
 538.468965517 1264 538.468965517 1264 394.734482759 1110.75367647 c 128,-1,3
 251 957.507352941 251 957.507352941 251 685.717444587 c 128,-1,4
 251 413.927536232 251 413.927536232 397.47260274 258.963768116 c 128,-1,5
 543.945205479 104 543.945205479 104 741.910533774 104 c 128,-1,6
 939.875862069 104 939.875862069 104 1079.93793103 256.69924812 c 128,-1,7
 1220 409.398496241 1220 409.398496241 1220 683.452924591 c 128,-1,0
 1220 957.507352941 1220 957.507352941 1076.26551724 1110.75367647 c 128,-1,1
1327.5 957.5 m 128,-1,9
 1370 829 1370 829 1370 697 c 0,10,11
 1370 455.788235294 1370 455.788235294 1283.53596648 294.049631407 c 128,-1,12
 1197.07193295 132.311027519 1197.07193295 132.311027519 1056.28596648 52.1555137597 c 128,-1,13
 915.5 -28 915.5 -28 754 -28 c 0,14,15
 493 -28 493 -28 296.5 162.212 c 128,-1,16
 100 352.424 100 352.424 100 677.664830189 c 128,-1,17
 100 1002.90566038 100 1002.90566038 264.507936508 1198.45283019 c 128,-1,18
 429.015873016 1394 429.015873016 1394 729.203812797 1394 c 128,-1,19
 1029.39175258 1394 1029.39175258 1394 1204.5 1183 c 0,20,8
 1285 1086 1285 1086 1327.5 957.5 c 128,-1,9
666 1525.5 m 128,-1,22
 630 1538 630 1538 588.038461538 1538 c 128,-1,23
 546.076923077 1538 546.076923077 1538 540 1459 c 1,24,-1
 413 1459 l 1,25,26
 416.2475182 1611.63335539 416.2475182 1611.63335539 512.5 1660.5 c 0,27,28
 545 1677 545 1677 593.272727273 1677 c 128,-1,29
 641.545454545 1677 641.545454545 1677 733.545454545 1633 c 128,-1,30
 825.545454545 1589 825.545454545 1589 882 1589 c 0,31,32
 923.230769231 1589 923.230769231 1589 930 1677 c 1,33,-1
 1057 1677 l 1,34,35
 1053.74156188 1523.85340834 1053.74156188 1523.85340834 958.5 1475.5 c 0,36,37
 926 1459 926 1459 884.5 1459 c 128,-1,38
 843 1459 843 1459 807.5 1471.5 c 128,-1,39
 772 1484 772 1484 737 1498.5 c 128,-1,21
 702 1513 702 1513 666 1525.5 c 128,-1,22
EndSplineSet
EndChar

StartChar: Odieresis
Encoding: 214 214 153
Width: 1470
Flags: W
LayerCount: 2
Fore
SplineSet
1076.26551724 1110.75367647 m 128,-1,1
 932.531034483 1264 932.531034483 1264 735.5 1264 c 128,-1,2
 538.468965517 1264 538.468965517 1264 394.734482759 1110.75367647 c 128,-1,3
 251 957.507352941 251 957.507352941 251 685.717444587 c 128,-1,4
 251 413.927536232 251 413.927536232 397.47260274 258.963768116 c 128,-1,5
 543.945205479 104 543.945205479 104 741.910533774 104 c 128,-1,6
 939.875862069 104 939.875862069 104 1079.93793103 256.69924812 c 128,-1,7
 1220 409.398496241 1220 409.398496241 1220 683.452924591 c 128,-1,0
 1220 957.507352941 1220 957.507352941 1076.26551724 1110.75367647 c 128,-1,1
1327.5 957.5 m 128,-1,9
 1370 829 1370 829 1370 697 c 0,10,11
 1370 455.788235294 1370 455.788235294 1283.53596648 294.049631407 c 128,-1,12
 1197.07193295 132.311027519 1197.07193295 132.311027519 1056.28596648 52.1555137597 c 128,-1,13
 915.5 -28 915.5 -28 754 -28 c 0,14,15
 493 -28 493 -28 296.5 162.212 c 128,-1,16
 100 352.424 100 352.424 100 677.664830189 c 128,-1,17
 100 1002.90566038 100 1002.90566038 264.507936508 1198.45283019 c 128,-1,18
 429.015873016 1394 429.015873016 1394 729.203812797 1394 c 128,-1,19
 1029.39175258 1394 1029.39175258 1394 1204.5 1183 c 0,20,8
 1285 1086 1285 1086 1327.5 957.5 c 128,-1,9
970 1580 m 1,21,-1
 838 1580 l 1,22,-1
 838 1727 l 1,23,-1
 970 1727 l 1,24,-1
 970 1580 l 1,21,-1
634 1580 m 1,25,-1
 500 1580 l 1,26,-1
 500 1727 l 1,27,-1
 634 1727 l 1,28,-1
 634 1580 l 1,25,-1
EndSplineSet
EndChar

StartChar: multiply
Encoding: 215 215 154
Width: 932
Flags: W
LayerCount: 2
Fore
SplineSet
100 347 m 1,0,-1
 368 616 l 1,1,-1
 100 888 l 1,2,-1
 199 987 l 1,3,-1
 465 717 l 1,4,-1
 732 987 l 1,5,-1
 830 888 l 1,6,-1
 563 618 l 1,7,-1
 832 347 l 1,8,-1
 732 247 l 1,9,-1
 465 517 l 1,10,-1
 197 247 l 1,11,-1
 100 347 l 1,0,-1
EndSplineSet
EndChar

StartChar: Oslash
Encoding: 216 216 155
Width: 1470
Flags: W
LayerCount: 2
Fore
SplineSet
480 186 m 1,0,1
 597.142857143 104 597.142857143 104 743 104 c 0,2,3
 939.875862069 104 939.875862069 104 1079.93793103 256.69924812 c 128,-1,4
 1220 409.398496241 1220 409.398496241 1220 686 c 0,5,6
 1220 915.254901961 1220 915.254901961 1111 1067 c 1,7,-1
 480 186 l 1,0,1
985 1189 m 1,8,9
 872.5 1264 872.5 1264 735 1264 c 0,10,11
 538.468965517 1264 538.468965517 1264 394.734482759 1110.75367647 c 128,-1,12
 251 957.507352941 251 957.507352941 251 686 c 0,13,14
 251 465.833333333 251 465.833333333 355 312 c 1,15,-1
 985 1189 l 1,8,9
754 -28 m 0,16,17
 562 -28 562 -28 402 76 c 1,18,-1
 347 0 l 1,19,-1
 131 0 l 1,20,-1
 269 192 l 1,21,22
 100 387 100 387 100 694.952830189 c 128,-1,23
 100 1002.90566038 100 1002.90566038 264.507936508 1198.45283019 c 128,-1,24
 429.015873016 1394 429.015873016 1394 739 1394 c 0,25,26
 922.581395349 1394 922.581395349 1394 1067 1304 c 1,27,-1
 1116 1372 l 1,28,-1
 1330 1372 l 1,29,-1
 1199 1189 l 1,30,31
 1370 991.535714286 1370 991.535714286 1370 666.914408867 c 128,-1,32
 1370 342.293103448 1370 342.293103448 1187.99152542 157.146551724 c 128,-1,33
 1005.98305085 -28 1005.98305085 -28 754 -28 c 0,16,17
EndSplineSet
EndChar

StartChar: Ugrave
Encoding: 217 217 156
Width: 1251
Flags: W
LayerCount: 2
Fore
SplineSet
251 476 m 2,0,1
 251 108 251 108 621 108 c 0,2,3
 810 108 810 108 905 195 c 128,-1,4
 1000 282 1000 282 1000 476 c 2,5,-1
 1000 1372 l 1,6,-1
 1151 1372 l 1,7,-1
 1151 470 l 2,8,9
 1151 230.690647482 1151 230.690647482 1004.5 100 c 0,10,11
 865.5 -24 865.5 -24 626 -24 c 0,12,13
 246.806451613 -24 246.806451613 -24 137 252 c 0,14,15
 100 345 100 345 100 470 c 2,16,-1
 100 1372 l 1,17,-1
 251 1372 l 1,18,-1
 251 476 l 2,0,1
773 1463 m 1,19,-1
 663 1463 l 1,20,-1
 479 1691 l 1,21,-1
 666 1691 l 1,22,-1
 773 1463 l 1,19,-1
EndSplineSet
EndChar

StartChar: Uacute
Encoding: 218 218 157
Width: 1251
Flags: W
LayerCount: 2
Fore
SplineSet
251 476 m 2,0,1
 251 108 251 108 621 108 c 0,2,3
 810 108 810 108 905 195 c 128,-1,4
 1000 282 1000 282 1000 476 c 2,5,-1
 1000 1372 l 1,6,-1
 1151 1372 l 1,7,-1
 1151 470 l 2,8,9
 1151 230.690647482 1151 230.690647482 1004.5 100 c 0,10,11
 865.5 -24 865.5 -24 626 -24 c 0,12,13
 246.806451613 -24 246.806451613 -24 137 252 c 0,14,15
 100 345 100 345 100 470 c 2,16,-1
 100 1372 l 1,17,-1
 251 1372 l 1,18,-1
 251 476 l 2,0,1
585 1691 m 1,19,-1
 773 1691 l 1,20,-1
 589 1463 l 1,21,-1
 478 1463 l 1,22,-1
 585 1691 l 1,19,-1
EndSplineSet
EndChar

StartChar: Ucircumflex
Encoding: 219 219 158
Width: 1251
Flags: W
LayerCount: 2
Fore
SplineSet
251 476 m 2,0,1
 251 108 251 108 621 108 c 0,2,3
 810 108 810 108 905 195 c 128,-1,4
 1000 282 1000 282 1000 476 c 2,5,-1
 1000 1372 l 1,6,-1
 1151 1372 l 1,7,-1
 1151 470 l 2,8,9
 1151 230.690647482 1151 230.690647482 1004.5 100 c 0,10,11
 865.5 -24 865.5 -24 626 -24 c 0,12,13
 246.806451613 -24 246.806451613 -24 137 252 c 0,14,15
 100 345 100 345 100 470 c 2,16,-1
 100 1372 l 1,17,-1
 251 1372 l 1,18,-1
 251 476 l 2,0,1
626 1578 m 1,19,-1
 528 1462 l 1,20,-1
 378 1462 l 1,21,-1
 549 1672 l 1,22,-1
 703 1672 l 1,23,-1
 873 1462 l 1,24,-1
 722 1462 l 1,25,-1
 626 1578 l 1,19,-1
EndSplineSet
EndChar

StartChar: Udieresis
Encoding: 220 220 159
Width: 1251
Flags: W
LayerCount: 2
Fore
SplineSet
251 476 m 2,0,1
 251 108 251 108 621 108 c 0,2,3
 810 108 810 108 905 195 c 128,-1,4
 1000 282 1000 282 1000 476 c 2,5,-1
 1000 1372 l 1,6,-1
 1151 1372 l 1,7,-1
 1151 470 l 2,8,9
 1151 230.690647482 1151 230.690647482 1004.5 100 c 0,10,11
 865.5 -24 865.5 -24 626 -24 c 0,12,13
 246.806451613 -24 246.806451613 -24 137 252 c 0,14,15
 100 345 100 345 100 470 c 2,16,-1
 100 1372 l 1,17,-1
 251 1372 l 1,18,-1
 251 476 l 2,0,1
861 1580 m 1,19,-1
 729 1580 l 1,20,-1
 729 1727 l 1,21,-1
 861 1727 l 1,22,-1
 861 1580 l 1,19,-1
525 1580 m 1,23,-1
 391 1580 l 1,24,-1
 391 1727 l 1,25,-1
 525 1727 l 1,26,-1
 525 1580 l 1,23,-1
EndSplineSet
EndChar

StartChar: Yacute
Encoding: 221 221 160
Width: 1394
Flags: W
LayerCount: 2
Fore
SplineSet
1294 1372 m 1,0,-1
 775 569 l 1,1,-1
 775 0 l 1,2,-1
 621 0 l 1,3,-1
 621 569 l 1,4,-1
 100 1372 l 1,5,-1
 270 1372 l 1,6,-1
 700 704 l 1,7,-1
 1123 1372 l 1,8,-1
 1294 1372 l 1,0,-1
657 1691 m 1,9,-1
 845 1691 l 1,10,-1
 661 1463 l 1,11,-1
 550 1463 l 1,12,-1
 657 1691 l 1,9,-1
EndSplineSet
EndChar

StartChar: Thorn
Encoding: 222 222 161
Width: 1060
Flags: W
LayerCount: 2
Fore
SplineSet
250 406 m 1,0,-1
 473 406 l 2,1,2
 707.448598131 406 707.448598131 406 781.5 555.5 c 0,3,4
 808 609 808 609 808 685.5 c 128,-1,5
 808 762 808 762 781 815 c 128,-1,6
 754 868 754 868 708 901.5 c 0,7,8
 620.805970149 965 620.805970149 965 471 965 c 2,9,-1
 250 965 l 1,10,-1
 250 406 l 1,0,-1
100 0 m 1,11,-1
 100 1372 l 1,12,-1
 250 1372 l 1,13,-1
 250 1096 l 1,14,-1
 383 1096 l 2,15,16
 558.454545455 1096 558.454545455 1096 645.727272727 1073.5 c 128,-1,17
 733 1051 733 1051 786.5 1022.5 c 128,-1,18
 840 994 840 994 878.5 948.5 c 0,19,20
 960 852.181818182 960 852.181818182 960 686 c 0,21,22
 960 440.057142857 960 440.057142857 789.5 347.5 c 0,23,24
 655.947368421 275 655.947368421 275 391 275 c 2,25,-1
 250 275 l 1,26,-1
 250 0 l 1,27,-1
 100 0 l 1,11,-1
EndSplineSet
EndChar

StartChar: germandbls
Encoding: 223 223 162
Width: 1130
Flags: W
LayerCount: 2
Fore
SplineSet
100 917 m 2,0,1
 100 1370 100 1370 487 1370 c 0,2,3
 611.895522388 1370 611.895522388 1370 712.947761194 1297.97340426 c 128,-1,4
 814 1225.94680851 814 1225.94680851 814 1106 c 0,5,6
 814 1050 814 1050 792.5 1001 c 128,-1,7
 771 952 771 952 723.5 868.875 c 128,-1,8
 676 785.75 676 785.75 676 737.875 c 128,-1,9
 676 690 676 690 709.75 656.25 c 128,-1,10
 743.5 622.5 743.5 622.5 829.818047337 564.285502959 c 128,-1,11
 916.136094675 506.071005917 916.136094675 506.071005917 958.5 459 c 0,12,13
 1030 379.555555556 1030 379.555555556 1030 298.777777778 c 0,14,15
 1030 154.896551724 1030 154.896551724 937.075 69.4482758621 c 128,-1,16
 844.15 -16 844.15 -16 704.175 -16 c 128,-1,17
 564.2 -16 564.2 -16 443.5 111.5 c 0,18,19
 408 149 408 149 385 192 c 1,20,-1
 514 252 l 1,21,22
 567.36084021 152.393098275 567.36084021 152.393098275 652.5 117.5 c 0,23,24
 683 105 683 105 717 105 c 0,25,26
 785.173913043 105 785.173913043 105 832.586956522 154.568181818 c 128,-1,27
 880 204.136363636 880 204.136363636 880 268.568181818 c 128,-1,28
 880 333 880 333 826.5 386.5 c 0,29,30
 797 416 797 416 704.822592873 476.956027293 c 128,-1,31
 612.645185747 537.912054587 612.645185747 537.912054587 581.5 571.5 c 0,32,33
 525 632.431372549 525 632.431372549 525 695.215686275 c 128,-1,34
 525 758 525 758 548 804.5 c 128,-1,35
 571 851 571 851 599 896 c 0,36,37
 673 1014.92857143 673 1014.92857143 673 1087.48246753 c 128,-1,38
 673 1160.03636364 673 1160.03636364 614.095238095 1205.01818182 c 128,-1,39
 555.19047619 1250 555.19047619 1250 480.595238095 1250 c 0,40,41
 342.836734694 1250 342.836734694 1250 285 1141 c 0,42,43
 242 1059.96153846 242 1059.96153846 242 909 c 2,44,-1
 242 8 l 1,45,-1
 100 8 l 1,46,-1
 100 917 l 2,0,1
EndSplineSet
EndChar

StartChar: agrave
Encoding: 224 224 163
Width: 1035
Flags: W
LayerCount: 2
Fore
SplineSet
439 105 m 0,0,1
 611.606060606 105 611.606060606 105 755 274 c 1,2,-1
 755 488 l 1,3,4
 715 481 715 481 660 474.5 c 128,-1,5
 605 468 605 468 546.5 458.5 c 0,6,7
 228 406.777777778 228 406.777777778 228 226 c 0,8,9
 228 116.733333333 228 116.733333333 366.5 107.5 c 0,10,11
 404 105 404 105 439 105 c 0,0,1
465 -17 m 0,12,13
 100 -17 100 -17 100 226 c 0,14,15
 100 445.565217391 100 445.565217391 339 523.5 c 0,16,17
 443.792507205 557.671469741 443.792507205 557.671469741 569.896253602 578.83573487 c 128,-1,18
 696 600 696 600 755 618 c 1,19,20
 754 682 754 682 750.5 734 c 128,-1,21
 747 786 747 786 727 822.5 c 0,22,23
 685.082191781 899 685.082191781 899 529.471475637 899 c 128,-1,24
 373.860759494 899 373.860759494 899 278.5 775.5 c 0,25,26
 248 736 248 736 231 686 c 1,27,-1
 112 711 l 1,28,29
 140.531704095 855.560634082 140.531704095 855.560634082 261.015852048 937.280317041 c 128,-1,30
 381.5 1019 381.5 1019 536 1019 c 0,31,32
 774.490566038 1019 774.490566038 1019 856 859 c 0,33,34
 883 806 883 806 883 736 c 1,35,-1
 876 423 l 1,36,37
 876 164.702702703 876 164.702702703 935 18 c 1,38,-1
 822 -16 l 1,39,40
 807 19 807 19 796.5 57 c 128,-1,41
 786 95 786 95 775 131 c 1,42,43
 624.885714286 -17 624.885714286 -17 465 -17 c 0,12,13
665 1091 m 1,44,-1
 555 1091 l 1,45,-1
 371 1319 l 1,46,-1
 558 1319 l 1,47,-1
 665 1091 l 1,44,-1
EndSplineSet
EndChar

StartChar: aacute
Encoding: 225 225 164
Width: 1035
Flags: W
LayerCount: 2
Fore
SplineSet
439 105 m 0,0,1
 611.606060606 105 611.606060606 105 755 274 c 1,2,-1
 755 488 l 1,3,4
 715 481 715 481 660 474.5 c 128,-1,5
 605 468 605 468 546.5 458.5 c 0,6,7
 228 406.777777778 228 406.777777778 228 226 c 0,8,9
 228 116.733333333 228 116.733333333 366.5 107.5 c 0,10,11
 404 105 404 105 439 105 c 0,0,1
465 -17 m 0,12,13
 100 -17 100 -17 100 226 c 0,14,15
 100 445.565217391 100 445.565217391 339 523.5 c 0,16,17
 443.792507205 557.671469741 443.792507205 557.671469741 569.896253602 578.83573487 c 128,-1,18
 696 600 696 600 755 618 c 1,19,20
 754 682 754 682 750.5 734 c 128,-1,21
 747 786 747 786 727 822.5 c 0,22,23
 685.082191781 899 685.082191781 899 529.471475637 899 c 128,-1,24
 373.860759494 899 373.860759494 899 278.5 775.5 c 0,25,26
 248 736 248 736 231 686 c 1,27,-1
 112 711 l 1,28,29
 140.531704095 855.560634082 140.531704095 855.560634082 261.015852048 937.280317041 c 128,-1,30
 381.5 1019 381.5 1019 536 1019 c 0,31,32
 774.490566038 1019 774.490566038 1019 856 859 c 0,33,34
 883 806 883 806 883 736 c 1,35,-1
 876 423 l 1,36,37
 876 164.702702703 876 164.702702703 935 18 c 1,38,-1
 822 -16 l 1,39,40
 807 19 807 19 796.5 57 c 128,-1,41
 786 95 786 95 775 131 c 1,42,43
 624.885714286 -17 624.885714286 -17 465 -17 c 0,12,13
477 1319 m 1,44,-1
 665 1319 l 1,45,-1
 481 1091 l 1,46,-1
 370 1091 l 1,47,-1
 477 1319 l 1,44,-1
EndSplineSet
EndChar

StartChar: acircumflex
Encoding: 226 226 165
Width: 1035
Flags: W
LayerCount: 2
Fore
SplineSet
439 105 m 0,0,1
 611.606060606 105 611.606060606 105 755 274 c 1,2,-1
 755 488 l 1,3,4
 715 481 715 481 660 474.5 c 128,-1,5
 605 468 605 468 546.5 458.5 c 0,6,7
 228 406.777777778 228 406.777777778 228 226 c 0,8,9
 228 116.733333333 228 116.733333333 366.5 107.5 c 0,10,11
 404 105 404 105 439 105 c 0,0,1
465 -17 m 0,12,13
 100 -17 100 -17 100 226 c 0,14,15
 100 445.565217391 100 445.565217391 339 523.5 c 0,16,17
 443.792507205 557.671469741 443.792507205 557.671469741 569.896253602 578.83573487 c 128,-1,18
 696 600 696 600 755 618 c 1,19,20
 754 682 754 682 750.5 734 c 128,-1,21
 747 786 747 786 727 822.5 c 0,22,23
 685.082191781 899 685.082191781 899 529.471475637 899 c 128,-1,24
 373.860759494 899 373.860759494 899 278.5 775.5 c 0,25,26
 248 736 248 736 231 686 c 1,27,-1
 112 711 l 1,28,29
 140.531704095 855.560634082 140.531704095 855.560634082 261.015852048 937.280317041 c 128,-1,30
 381.5 1019 381.5 1019 536 1019 c 0,31,32
 774.490566038 1019 774.490566038 1019 856 859 c 0,33,34
 883 806 883 806 883 736 c 1,35,-1
 876 423 l 1,36,37
 876 164.702702703 876 164.702702703 935 18 c 1,38,-1
 822 -16 l 1,39,40
 807 19 807 19 796.5 57 c 128,-1,41
 786 95 786 95 775 131 c 1,42,43
 624.885714286 -17 624.885714286 -17 465 -17 c 0,12,13
518 1206 m 1,44,-1
 420 1090 l 1,45,-1
 270 1090 l 1,46,-1
 441 1300 l 1,47,-1
 595 1300 l 1,48,-1
 765 1090 l 1,49,-1
 614 1090 l 1,50,-1
 518 1206 l 1,44,-1
EndSplineSet
EndChar

StartChar: atilde
Encoding: 227 227 166
Width: 1035
Flags: W
LayerCount: 2
Fore
SplineSet
439 105 m 0,0,1
 611.606060606 105 611.606060606 105 755 274 c 1,2,-1
 755 488 l 1,3,4
 715 481 715 481 660 474.5 c 128,-1,5
 605 468 605 468 546.5 458.5 c 128,-1,6
 488 449 488 449 431 433 c 128,-1,7
 374 417 374 417 329 390 c 0,8,9
 228 329.4 228 329.4 228 226 c 0,10,11
 228 116.733333333 228 116.733333333 366.5 107.5 c 0,12,13
 404 105 404 105 439 105 c 0,0,1
876 423 m 1,14,15
 876 164.702702703 876 164.702702703 935 18 c 1,16,-1
 822 -16 l 1,17,18
 807 19 807 19 796.5 57 c 128,-1,19
 786 95 786 95 775 131 c 1,20,21
 704 61 704 61 626 22 c 128,-1,22
 548 -17 548 -17 465 -17 c 128,-1,23
 382 -17 382 -17 321 -6.5 c 128,-1,24
 260 4 260 4 211 31.5 c 0,25,26
 100 93.7959183673 100 93.7959183673 100 226 c 0,27,28
 100 445.565217391 100 445.565217391 339 523.5 c 0,29,30
 443.792507205 557.671469741 443.792507205 557.671469741 569.896253602 578.83573487 c 128,-1,31
 696 600 696 600 755 618 c 1,32,33
 754 682 754 682 750.5 734 c 128,-1,34
 747 786 747 786 727 822.5 c 0,35,36
 685.082191781 899 685.082191781 899 541 899 c 0,37,38
 373.860759494 899 373.860759494 899 278.5 775.5 c 0,39,40
 248 736 248 736 231 686 c 1,41,-1
 112 711 l 1,42,43
 140.531704095 855.560634082 140.531704095 855.560634082 266.5 941 c 0,44,45
 381.5 1019 381.5 1019 536 1019 c 0,46,47
 774.490566038 1019 774.490566038 1019 856 859 c 0,48,49
 883 806 883 806 883 736 c 1,50,-1
 876 423 l 1,14,15
449 1153.5 m 128,-1,52
 413 1166 413 1166 371.038461538 1166 c 128,-1,53
 329.076923077 1166 329.076923077 1166 323 1087 c 1,54,-1
 196 1087 l 1,55,56
 199.2475182 1239.63335539 199.2475182 1239.63335539 295.5 1288.5 c 0,57,58
 328 1305 328 1305 370 1305 c 128,-1,59
 412 1305 412 1305 446.5 1291.5 c 128,-1,60
 481 1278 481 1278 515.5 1261.5 c 0,61,62
 608.545454545 1217 608.545454545 1217 665 1217 c 0,63,64
 706.230769231 1217 706.230769231 1217 713 1305 c 1,65,-1
 840 1305 l 1,66,67
 836.74156188 1151.85340834 836.74156188 1151.85340834 741.5 1103.5 c 0,68,69
 709 1087 709 1087 667.5 1087 c 128,-1,70
 626 1087 626 1087 590.5 1099.5 c 128,-1,71
 555 1112 555 1112 520 1126.5 c 128,-1,51
 485 1141 485 1141 449 1153.5 c 128,-1,52
EndSplineSet
EndChar

StartChar: adieresis
Encoding: 228 228 167
Width: 1035
Flags: W
LayerCount: 2
Fore
SplineSet
439 105 m 0,0,1
 611.606060606 105 611.606060606 105 755 274 c 1,2,-1
 755 488 l 1,3,4
 715 481 715 481 660 474.5 c 128,-1,5
 605 468 605 468 546.5 458.5 c 128,-1,6
 488 449 488 449 431 433 c 128,-1,7
 374 417 374 417 329 390 c 0,8,9
 228 329.4 228 329.4 228 226 c 0,10,11
 228 116.733333333 228 116.733333333 366.5 107.5 c 0,12,13
 404 105 404 105 439 105 c 0,0,1
876 423 m 1,14,15
 876 164.702702703 876 164.702702703 935 18 c 1,16,-1
 822 -16 l 1,17,18
 807 19 807 19 796.5 57 c 128,-1,19
 786 95 786 95 775 131 c 1,20,21
 704 61 704 61 626 22 c 128,-1,22
 548 -17 548 -17 465 -17 c 128,-1,23
 382 -17 382 -17 321 -6.5 c 128,-1,24
 260 4 260 4 211 31.5 c 0,25,26
 100 93.7959183673 100 93.7959183673 100 226 c 0,27,28
 100 445.565217391 100 445.565217391 339 523.5 c 0,29,30
 443.792507205 557.671469741 443.792507205 557.671469741 569.896253602 578.83573487 c 128,-1,31
 696 600 696 600 755 618 c 1,32,33
 754 682 754 682 750.5 734 c 128,-1,34
 747 786 747 786 727 822.5 c 0,35,36
 685.082191781 899 685.082191781 899 541 899 c 0,37,38
 373.860759494 899 373.860759494 899 278.5 775.5 c 0,39,40
 248 736 248 736 231 686 c 1,41,-1
 112 711 l 1,42,43
 140.531704095 855.560634082 140.531704095 855.560634082 266.5 941 c 0,44,45
 381.5 1019 381.5 1019 536 1019 c 0,46,47
 774.490566038 1019 774.490566038 1019 856 859 c 0,48,49
 883 806 883 806 883 736 c 1,50,-1
 876 423 l 1,14,15
753 1208 m 1,51,-1
 621 1208 l 1,52,-1
 621 1355 l 1,53,-1
 753 1355 l 1,54,-1
 753 1208 l 1,51,-1
417 1208 m 1,55,-1
 283 1208 l 1,56,-1
 283 1355 l 1,57,-1
 417 1355 l 1,58,-1
 417 1208 l 1,55,-1
EndSplineSet
EndChar

StartChar: aring
Encoding: 229 229 168
Width: 1035
Flags: W
LayerCount: 2
Fore
SplineSet
439 105 m 0,0,1
 611.606060606 105 611.606060606 105 755 274 c 1,2,-1
 755 488 l 1,3,4
 715 481 715 481 660 474.5 c 128,-1,5
 605 468 605 468 546.5 458.5 c 128,-1,6
 488 449 488 449 431 433 c 128,-1,7
 374 417 374 417 329 390 c 0,8,9
 228 329.4 228 329.4 228 226 c 0,10,11
 228 116.733333333 228 116.733333333 366.5 107.5 c 0,12,13
 404 105 404 105 439 105 c 0,0,1
876 423 m 1,14,15
 876 164.702702703 876 164.702702703 935 18 c 1,16,-1
 822 -16 l 1,17,18
 807 19 807 19 796.5 57 c 128,-1,19
 786 95 786 95 775 131 c 1,20,21
 704 61 704 61 626 22 c 128,-1,22
 548 -17 548 -17 465 -17 c 128,-1,23
 382 -17 382 -17 321 -6.5 c 128,-1,24
 260 4 260 4 211 31.5 c 0,25,26
 100 93.7959183673 100 93.7959183673 100 226 c 0,27,28
 100 445.565217391 100 445.565217391 339 523.5 c 0,29,30
 443.792507205 557.671469741 443.792507205 557.671469741 569.896253602 578.83573487 c 128,-1,31
 696 600 696 600 755 618 c 1,32,33
 754 682 754 682 750.5 734 c 128,-1,34
 747 786 747 786 727 822.5 c 0,35,36
 685.082191781 899 685.082191781 899 541 899 c 0,37,38
 373.860759494 899 373.860759494 899 278.5 775.5 c 0,39,40
 248 736 248 736 231 686 c 1,41,-1
 112 711 l 1,42,43
 140.531704095 855.560634082 140.531704095 855.560634082 266.5 941 c 0,44,45
 381.5 1019 381.5 1019 536 1019 c 0,46,47
 774.490566038 1019 774.490566038 1019 856 859 c 0,48,49
 883 806 883 806 883 736 c 1,50,-1
 876 423 l 1,14,15
466 1322.5 m 128,-1,52
 441 1298 441 1298 441 1259.5 c 128,-1,53
 441 1221 441 1221 466 1195.5 c 128,-1,54
 491 1170 491 1170 529.5 1170 c 128,-1,55
 568 1170 568 1170 593 1195.5 c 128,-1,56
 618 1221 618 1221 618 1259.5 c 128,-1,57
 618 1298 618 1298 593 1322.5 c 128,-1,58
 568 1347 568 1347 529.5 1347 c 128,-1,51
 491 1347 491 1347 466 1322.5 c 128,-1,52
369 1189 m 0,59,60
 356 1221 356 1221 356 1259.5 c 128,-1,61
 356 1298 356 1298 369 1329.5 c 128,-1,62
 382 1361 382 1361 405 1383.5 c 128,-1,63
 428 1406 428 1406 460 1418.5 c 128,-1,64
 492 1431 492 1431 530 1431 c 128,-1,65
 568 1431 568 1431 599.5 1418.5 c 128,-1,66
 631 1406 631 1406 654 1383.5 c 0,67,68
 703 1335.56521739 703 1335.56521739 703 1260 c 0,69,70
 703 1183 703 1183 654 1134 c 0,71,72
 606 1086 606 1086 530 1086 c 0,73,74
 410.84375 1086 410.84375 1086 369 1189 c 0,59,60
EndSplineSet
EndChar

StartChar: ae
Encoding: 230 230 169
Width: 1556
Flags: W
LayerCount: 2
Fore
SplineSet
683 488 m 1,0,1
 644 477 644 477 595 469.5 c 128,-1,2
 546 462 546 462 495 452.5 c 128,-1,3
 444 443 444 443 395.5 428 c 128,-1,4
 347 413 347 413 309.5 387 c 0,5,6
 226 329.106666667 226 329.106666667 226 224 c 0,7,8
 226 115.846153846 226 115.846153846 338.5 102 c 0,9,10
 371 98 371 98 409 98 c 128,-1,11
 447 98 447 98 483.5 114.5 c 128,-1,12
 520 131 520 131 553.5 157.5 c 0,13,14
 590.683848797 186.914089347 590.683848797 186.914089347 683 285 c 1,15,-1
 683 488 l 1,0,1
1341 568 m 1,16,17
 1334.23481781 696.538461538 1334.23481781 696.538461538 1265 790.5 c 0,18,19
 1185.78947368 898 1185.78947368 898 1064 898 c 0,20,21
 961.390243902 898 961.390243902 898 887.5 815 c 0,22,23
 805 722.328767123 805 722.328767123 805 568 c 1,24,-1
 1341 568 l 1,16,17
683 751 m 1,25,26
 613 901 613 901 485 901 c 0,27,28
 401.774193548 901 401.774193548 901 325 831 c 0,29,30
 263.044444444 774.511111111 263.044444444 774.511111111 223 685 c 1,31,-1
 110 705 l 1,32,33
 131.786061588 827.794165316 131.786061588 827.794165316 248.5 924.5 c 0,34,35
 362.551724138 1019 362.551724138 1019 490 1019 c 0,36,37
 632.967213115 1019 632.967213115 1019 728 925.5 c 0,38,39
 759 895 759 895 777 855 c 1,40,41
 822 929 822 929 895 975 c 128,-1,42
 968 1021 968 1021 1056 1021 c 128,-1,43
 1144 1021 1144 1021 1217.5 982 c 128,-1,44
 1291 943 1291 943 1344 879.5 c 0,45,46
 1456 745.311320755 1456 745.311320755 1456 573 c 2,47,-1
 1456 446 l 1,48,-1
 805 446 l 1,49,50
 805 299.933333333 805 299.933333333 883.5 200.5 c 0,51,52
 964.421052632 98 964.421052632 98 1093 98 c 0,53,54
 1234.95890411 98 1234.95890411 98 1314.5 216.5 c 0,55,56
 1339 253 1339 253 1353 298 c 1,57,-1
 1441 265 l 1,58,59
 1415.09708079 141.463000679 1415.09708079 141.463000679 1323.5 62.5 c 0,60,61
 1231.28 -17 1231.28 -17 1105 -17 c 0,62,63
 935.195121951 -17 935.195121951 -17 811 117 c 0,64,65
 773 158 773 158 746 206 c 1,66,67
 701.888324873 105.746192893 701.888324873 105.746192893 609.5 44.5 c 0,68,69
 516.728813559 -17 516.728813559 -17 406 -17 c 0,70,71
 261.538461538 -17 261.538461538 -17 189 29 c 0,72,73
 100 85.4390243902 100 85.4390243902 100 221 c 0,74,75
 100 445.254237288 100 445.254237288 301 518.5 c 0,76,77
 389.071383449 550.593809223 389.071383449 550.593809223 506.035691725 569.796904611 c 128,-1,78
 623 589 623 589 683 606 c 1,79,-1
 683 751 l 1,25,26
EndSplineSet
EndChar

StartChar: ccedilla
Encoding: 231 231 170
Width: 1023
Flags: W
LayerCount: 2
Fore
SplineSet
560 -144 m 1,0,-1
 501 -150 l 1,1,-1
 501 -16 l 1,2,3
 324.36 -4.48 324.36 -4.48 208.5 150 c 0,4,5
 100 294.666666667 100 294.666666667 100 488 c 0,6,7
 100 718.949152542 100 718.949152542 229 872 c 0,8,9
 352.9 1019 352.9 1019 530 1019 c 0,10,11
 709.830357143 1019 709.830357143 1019 833.5 848 c 0,12,13
 874 792 874 792 903 719 c 1,14,-1
 799 675 l 1,15,16
 739 785 739 785 665 844 c 128,-1,17
 591 903 591 903 527.5 903 c 128,-1,18
 464 903 464 903 423.5 884.5 c 128,-1,19
 383 866 383 866 351.5 834.5 c 128,-1,20
 320 803 320 803 296.5 761 c 128,-1,21
 273 719 273 719 258 673 c 0,22,23
 228 581 228 581 228 503 c 128,-1,24
 228 425 228 425 246.5 357 c 128,-1,25
 265 289 265 289 302.5 233 c 0,26,27
 388.214285714 105 388.214285714 105 528 105 c 0,28,29
 618 105 618 105 692 166.5 c 128,-1,30
 766 228 766 228 806 353 c 1,31,-1
 923 342 l 1,32,33
 877.38125 174.73125 877.38125 174.73125 772.5 78.5 c 0,34,35
 676.330673414 -9.73783573375 676.330673414 -9.73783573375 549 -16 c 1,36,-1
 549 -93 l 1,37,38
 613.812182741 -72.7461928934 613.812182741 -72.7461928934 655.406091371 -89.8730964467 c 128,-1,39
 697 -107 697 -107 716 -125.5 c 0,40,41
 756 -164.447368421 756 -164.447368421 756 -212.723684211 c 128,-1,42
 756 -261 756 -261 742 -289 c 128,-1,43
 728 -317 728 -317 704.5 -336 c 0,44,45
 657.5 -374 657.5 -374 588.25 -374 c 0,46,47
 484.615384615 -374 484.615384615 -374 330 -307 c 1,48,-1
 353 -248 l 1,49,50
 377 -257 377 -257 400.5 -267 c 128,-1,51
 424 -277 424 -277 447.5 -286 c 0,52,53
 499.722222222 -306 499.722222222 -306 545 -306 c 0,54,55
 651 -306 651 -306 651 -225 c 0,56,57
 651 -186 651 -186 624 -165 c 128,-1,58
 597 -144 597 -144 560 -144 c 1,0,-1
EndSplineSet
EndChar

StartChar: egrave
Encoding: 232 232 171
Width: 1064
Flags: W
LayerCount: 2
Fore
SplineSet
836 569 m 1,0,1
 831.834519211 700.212644847 831.834519211 700.212644847 747.5 796 c 0,2,3
 657.695652174 898 657.695652174 898 529 898 c 0,4,5
 409.425531915 898 409.425531915 898 319.5 791 c 0,6,7
 236.485429993 692.223169865 236.485429993 692.223169865 230 569 c 1,8,-1
 836 569 l 1,0,1
960 270 m 1,9,10
 925.738842499 136.762165275 925.738842499 136.762165275 796 56.5 c 0,11,12
 677.191780822 -17 677.191780822 -17 546.595890411 -17 c 128,-1,13
 416 -17 416 -17 335 27 c 128,-1,14
 254 71 254 71 201.5 144.5 c 0,15,16
 100 286.6 100 286.6 100 509 c 0,17,18
 100 723.5 100 723.5 206 864.5 c 0,19,20
 322.14893617 1019 322.14893617 1019 529 1019 c 0,21,22
 714.491803279 1019 714.491803279 1019 840 887 c 0,23,24
 964 756.586206897 964 756.586206897 964 573 c 2,25,-1
 964 447 l 1,26,-1
 230 447 l 1,27,28
 236.709475333 212.168363352 236.709475333 212.168363352 401.5 132 c 0,29,30
 457 105 457 105 518.5 105 c 128,-1,31
 580 105 580 105 629 118 c 128,-1,32
 678 131 678 131 720 156 c 0,33,34
 813.564356436 211.693069307 813.564356436 211.693069307 844 303 c 1,35,-1
 960 270 l 1,9,10
679 1091 m 1,36,-1
 569 1091 l 1,37,-1
 385 1319 l 1,38,-1
 572 1319 l 1,39,-1
 679 1091 l 1,36,-1
EndSplineSet
EndChar

StartChar: eacute
Encoding: 233 233 172
Width: 1064
Flags: W
LayerCount: 2
Fore
SplineSet
836 569 m 1,0,1
 831.834519211 700.212644847 831.834519211 700.212644847 747.5 796 c 0,2,3
 657.695652174 898 657.695652174 898 529 898 c 0,4,5
 409.425531915 898 409.425531915 898 319.5 791 c 0,6,7
 236.485429993 692.223169865 236.485429993 692.223169865 230 569 c 1,8,-1
 836 569 l 1,0,1
960 270 m 1,9,10
 925.738842499 136.762165275 925.738842499 136.762165275 796 56.5 c 0,11,12
 677.191780822 -17 677.191780822 -17 546.595890411 -17 c 128,-1,13
 416 -17 416 -17 335 27 c 128,-1,14
 254 71 254 71 201.5 144.5 c 0,15,16
 100 286.6 100 286.6 100 509 c 0,17,18
 100 723.5 100 723.5 206 864.5 c 0,19,20
 322.14893617 1019 322.14893617 1019 529 1019 c 0,21,22
 714.491803279 1019 714.491803279 1019 840 887 c 0,23,24
 964 756.586206897 964 756.586206897 964 573 c 2,25,-1
 964 447 l 1,26,-1
 230 447 l 1,27,28
 236.709475333 212.168363352 236.709475333 212.168363352 401.5 132 c 0,29,30
 457 105 457 105 518.5 105 c 128,-1,31
 580 105 580 105 629 118 c 128,-1,32
 678 131 678 131 720 156 c 0,33,34
 813.564356436 211.693069307 813.564356436 211.693069307 844 303 c 1,35,-1
 960 270 l 1,9,10
492 1319 m 1,36,-1
 680 1319 l 1,37,-1
 496 1091 l 1,38,-1
 385 1091 l 1,39,-1
 492 1319 l 1,36,-1
EndSplineSet
EndChar

StartChar: ecircumflex
Encoding: 234 234 173
Width: 1064
Flags: W
LayerCount: 2
Fore
SplineSet
836 569 m 1,0,1
 831.834519211 700.212644847 831.834519211 700.212644847 747.5 796 c 0,2,3
 657.695652174 898 657.695652174 898 529 898 c 0,4,5
 409.425531915 898 409.425531915 898 319.5 791 c 0,6,7
 236.485429993 692.223169865 236.485429993 692.223169865 230 569 c 1,8,-1
 836 569 l 1,0,1
960 270 m 1,9,10
 925.738842499 136.762165275 925.738842499 136.762165275 796 56.5 c 0,11,12
 677.191780822 -17 677.191780822 -17 546.595890411 -17 c 128,-1,13
 416 -17 416 -17 335 27 c 128,-1,14
 254 71 254 71 201.5 144.5 c 0,15,16
 100 286.6 100 286.6 100 509 c 0,17,18
 100 723.5 100 723.5 206 864.5 c 0,19,20
 322.14893617 1019 322.14893617 1019 529 1019 c 0,21,22
 714.491803279 1019 714.491803279 1019 840 887 c 0,23,24
 964 756.586206897 964 756.586206897 964 573 c 2,25,-1
 964 447 l 1,26,-1
 230 447 l 1,27,28
 236.709475333 212.168363352 236.709475333 212.168363352 401.5 132 c 0,29,30
 457 105 457 105 518.5 105 c 128,-1,31
 580 105 580 105 629 118 c 128,-1,32
 678 131 678 131 720 156 c 0,33,34
 813.564356436 211.693069307 813.564356436 211.693069307 844 303 c 1,35,-1
 960 270 l 1,9,10
533 1206 m 1,36,-1
 435 1090 l 1,37,-1
 285 1090 l 1,38,-1
 456 1300 l 1,39,-1
 610 1300 l 1,40,-1
 780 1090 l 1,41,-1
 629 1090 l 1,42,-1
 533 1206 l 1,36,-1
EndSplineSet
EndChar

StartChar: edieresis
Encoding: 235 235 174
Width: 1064
Flags: W
LayerCount: 2
Fore
SplineSet
836 569 m 1,0,1
 831.834519211 700.212644847 831.834519211 700.212644847 747.5 796 c 0,2,3
 657.695652174 898 657.695652174 898 529 898 c 0,4,5
 409.425531915 898 409.425531915 898 319.5 791 c 0,6,7
 236.485429993 692.223169865 236.485429993 692.223169865 230 569 c 1,8,-1
 836 569 l 1,0,1
960 270 m 1,9,10
 925.738842499 136.762165275 925.738842499 136.762165275 796 56.5 c 0,11,12
 677.191780822 -17 677.191780822 -17 546.595890411 -17 c 128,-1,13
 416 -17 416 -17 335 27 c 128,-1,14
 254 71 254 71 201.5 144.5 c 0,15,16
 100 286.6 100 286.6 100 509 c 0,17,18
 100 723.5 100 723.5 206 864.5 c 0,19,20
 322.14893617 1019 322.14893617 1019 529 1019 c 0,21,22
 714.491803279 1019 714.491803279 1019 840 887 c 0,23,24
 964 756.586206897 964 756.586206897 964 573 c 2,25,-1
 964 447 l 1,26,-1
 230 447 l 1,27,28
 236.709475333 212.168363352 236.709475333 212.168363352 401.5 132 c 0,29,30
 457 105 457 105 518.5 105 c 128,-1,31
 580 105 580 105 629 118 c 128,-1,32
 678 131 678 131 720 156 c 0,33,34
 813.564356436 211.693069307 813.564356436 211.693069307 844 303 c 1,35,-1
 960 270 l 1,9,10
767 1208 m 1,36,-1
 635 1208 l 1,37,-1
 635 1355 l 1,38,-1
 767 1355 l 1,39,-1
 767 1208 l 1,36,-1
431 1208 m 1,40,-1
 297 1208 l 1,41,-1
 297 1355 l 1,42,-1
 431 1355 l 1,43,-1
 431 1208 l 1,40,-1
EndSplineSet
EndChar

StartChar: igrave
Encoding: 236 236 175
Width: 327
Flags: W
LayerCount: 2
Fore
SplineSet
227 0 m 1,0,-1
 100 0 l 1,1,-1
 100 1000 l 1,2,-1
 227 1000 l 1,3,-1
 227 0 l 1,0,-1
310 1091 m 1,4,-1
 200 1091 l 1,5,-1
 16 1319 l 1,6,-1
 203 1319 l 1,7,-1
 310 1091 l 1,4,-1
EndSplineSet
EndChar

StartChar: iacute
Encoding: 237 237 176
Width: 327
Flags: W
LayerCount: 2
Fore
SplineSet
227 0 m 1,0,-1
 100 0 l 1,1,-1
 100 1000 l 1,2,-1
 227 1000 l 1,3,-1
 227 0 l 1,0,-1
123 1319 m 1,4,-1
 311 1319 l 1,5,-1
 127 1091 l 1,6,-1
 16 1091 l 1,7,-1
 123 1319 l 1,4,-1
EndSplineSet
EndChar

StartChar: icircumflex
Encoding: 238 238 177
Width: 327
Flags: W
LayerCount: 2
Fore
SplineSet
227 0 m 1,0,-1
 100 0 l 1,1,-1
 100 1000 l 1,2,-1
 227 1000 l 1,3,-1
 227 0 l 1,0,-1
164 1206 m 1,4,-1
 66 1090 l 1,5,-1
 -84 1090 l 1,6,-1
 87 1300 l 1,7,-1
 241 1300 l 1,8,-1
 411 1090 l 1,9,-1
 260 1090 l 1,10,-1
 164 1206 l 1,4,-1
EndSplineSet
EndChar

StartChar: idieresis
Encoding: 239 239 178
Width: 327
Flags: W
LayerCount: 2
Fore
SplineSet
227 0 m 1,0,-1
 100 0 l 1,1,-1
 100 1000 l 1,2,-1
 227 1000 l 1,3,-1
 227 0 l 1,0,-1
398 1208 m 1,4,-1
 266 1208 l 1,5,-1
 266 1355 l 1,6,-1
 398 1355 l 1,7,-1
 398 1208 l 1,4,-1
62 1208 m 1,8,-1
 -72 1208 l 1,9,-1
 -72 1355 l 1,10,-1
 62 1355 l 1,11,-1
 62 1208 l 1,8,-1
EndSplineSet
EndChar

StartChar: eth
Encoding: 240 240 179
Width: 1073
Flags: W
LayerCount: 2
Fore
SplineSet
843 500 m 0,0,1
 843 561 843 561 822.5 625 c 128,-1,2
 802 689 802 689 763 741.5 c 0,3,4
 674.971428571 860 674.971428571 860 534 860 c 0,5,6
 400.373831776 860 400.373831776 860 311.5 736.5 c 0,7,8
 232 626.025974026 232 626.025974026 232 499 c 128,-1,9
 232 372.05 232 372.05 315 260 c 0,10,11
 406.851851852 136 406.851851852 136 534 136 c 0,12,13
 667.924528302 136 667.924528302 136 760 258 c 0,14,15
 843 367.975 843 367.975 843 500 c 0,0,1
755 927 m 1,16,17
 681.397058824 1069.1875 681.397058824 1069.1875 594 1193 c 1,18,-1
 358 1055 l 1,19,-1
 297 1157 l 1,20,-1
 519 1283 l 1,21,22
 421.991150442 1377.69911504 421.991150442 1377.69911504 354 1430 c 1,23,-1
 508 1430 l 1,24,25
 544.142857143 1404.85714286 544.142857143 1404.85714286 611 1338 c 1,26,-1
 848 1476 l 1,27,-1
 909 1373 l 1,28,-1
 689 1248 l 1,29,30
 884.72454524 978.477675408 884.72454524 978.477675408 951.5 671 c 0,31,32
 973 572 973 572 973 484 c 128,-1,33
 973 396 973 396 940.5 312.5 c 128,-1,34
 908 229 908 229 849.5 163.5 c 0,35,36
 720.442748092 19 720.442748092 19 534 19 c 0,37,38
 341.797101449 19 341.797101449 19 216 174 c 0,39,40
 100 316.928571429 100 316.928571429 100 499 c 0,41,42
 100 685.891891892 100 685.891891892 213.5 827 c 0,43,44
 338.173913043 982 338.173913043 982 534 982 c 0,45,46
 585.6 982 585.6 982 755 927 c 1,16,17
EndSplineSet
EndChar

StartChar: ntilde
Encoding: 241 241 180
Width: 971
Flags: W
LayerCount: 2
Fore
SplineSet
227 1000 m 1,0,-1
 227 875 l 1,1,2
 313.041237113 989.721649485 313.041237113 989.721649485 435 1011.5 c 0,3,4
 477 1019 477 1019 535.5 1019 c 128,-1,5
 594 1019 594 1019 656 991 c 128,-1,6
 718 963 718 963 766 915.5 c 0,7,8
 871 811.59375 871 811.59375 871 676 c 2,9,-1
 871 0 l 1,10,-1
 747 0 l 1,11,-1
 747 669 l 2,12,13
 747 752.573770492 747 752.573770492 679.5 824.5 c 0,14,15
 612.4 896 612.4 896 527 896 c 0,16,17
 428.628205128 896 428.628205128 896 330.5 810 c 0,18,19
 227 719.292134831 227 719.292134831 227 622 c 2,20,-1
 227 0 l 1,21,-1
 100 0 l 1,22,-1
 100 1000 l 1,23,-1
 227 1000 l 1,0,-1
417 1153.5 m 128,-1,25
 381 1166 381 1166 339.038461538 1166 c 128,-1,26
 297.076923077 1166 297.076923077 1166 291 1087 c 1,27,-1
 164 1087 l 1,28,29
 167.2475182 1239.63335539 167.2475182 1239.63335539 263.5 1288.5 c 0,30,31
 296 1305 296 1305 338 1305 c 128,-1,32
 380 1305 380 1305 414.5 1291.5 c 128,-1,33
 449 1278 449 1278 483.5 1261.5 c 0,34,35
 576.545454545 1217 576.545454545 1217 633 1217 c 0,36,37
 674.230769231 1217 674.230769231 1217 681 1305 c 1,38,-1
 808 1305 l 1,39,40
 804.74156188 1151.85340834 804.74156188 1151.85340834 709.5 1103.5 c 0,41,42
 677 1087 677 1087 635.5 1087 c 128,-1,43
 594 1087 594 1087 558.5 1099.5 c 128,-1,44
 523 1112 523 1112 488 1126.5 c 128,-1,24
 453 1141 453 1141 417 1153.5 c 128,-1,25
EndSplineSet
EndChar

StartChar: ograve
Encoding: 242 242 181
Width: 1069
Flags: W
LayerCount: 2
Fore
SplineSet
842 511 m 0,0,1
 842 567 842 567 822 637.5 c 128,-1,2
 802 708 802 708 762.5 765.5 c 0,3,4
 672.852173913 896 672.852173913 896 531 896 c 0,5,6
 394.75 896 394.75 896 307 761 c 0,7,8
 227 637.923076923 227 637.923076923 227 499 c 0,9,10
 227 361.962962963 227 361.962962963 310 239 c 0,11,12
 401.8 103 401.8 103 531 103 c 0,13,14
 668.430379747 103 668.430379747 103 759 235.5 c 0,15,16
 842 356.925925926 842 356.925925926 842 511 c 0,0,1
969 483 m 0,17,18
 969 405 969 405 939 313 c 128,-1,19
 909 221 909 221 852.5 147.5 c 0,20,21
 726.047619048 -17 726.047619048 -17 531 -17 c 0,22,23
 340.75 -17 340.75 -17 215.5 150 c 0,24,25
 100 304 100 304 100 499 c 0,26,27
 100 696.520547945 100 696.520547945 213.5 852 c 0,28,29
 335.41 1019 335.41 1019 531 1019 c 0,30,31
 727.25 1019 727.25 1019 852.5 852 c 0,32,33
 969 696.666666667 969 696.666666667 969 483 c 0,17,18
682 1091 m 1,34,-1
 572 1091 l 1,35,-1
 388 1319 l 1,36,-1
 575 1319 l 1,37,-1
 682 1091 l 1,34,-1
EndSplineSet
EndChar

StartChar: oacute
Encoding: 243 243 182
Width: 1069
Flags: W
LayerCount: 2
Fore
SplineSet
842 511 m 0,0,1
 842 567 842 567 822 637.5 c 128,-1,2
 802 708 802 708 762.5 765.5 c 0,3,4
 672.852173913 896 672.852173913 896 531 896 c 0,5,6
 394.75 896 394.75 896 307 761 c 0,7,8
 227 637.923076923 227 637.923076923 227 499 c 0,9,10
 227 361.962962963 227 361.962962963 310 239 c 0,11,12
 401.8 103 401.8 103 531 103 c 0,13,14
 668.430379747 103 668.430379747 103 759 235.5 c 0,15,16
 842 356.925925926 842 356.925925926 842 511 c 0,0,1
969 483 m 0,17,18
 969 405 969 405 939 313 c 128,-1,19
 909 221 909 221 852.5 147.5 c 0,20,21
 726.047619048 -17 726.047619048 -17 531 -17 c 0,22,23
 340.75 -17 340.75 -17 215.5 150 c 0,24,25
 100 304 100 304 100 499 c 0,26,27
 100 696.520547945 100 696.520547945 213.5 852 c 0,28,29
 335.41 1019 335.41 1019 531 1019 c 0,30,31
 727.25 1019 727.25 1019 852.5 852 c 0,32,33
 969 696.666666667 969 696.666666667 969 483 c 0,17,18
494 1319 m 1,34,-1
 682 1319 l 1,35,-1
 498 1091 l 1,36,-1
 387 1091 l 1,37,-1
 494 1319 l 1,34,-1
EndSplineSet
EndChar

StartChar: ocircumflex
Encoding: 244 244 183
Width: 1069
Flags: W
LayerCount: 2
Fore
SplineSet
842 511 m 0,0,1
 842 567 842 567 822 637.5 c 128,-1,2
 802 708 802 708 762.5 765.5 c 0,3,4
 672.852173913 896 672.852173913 896 531 896 c 0,5,6
 394.75 896 394.75 896 307 761 c 0,7,8
 227 637.923076923 227 637.923076923 227 499 c 0,9,10
 227 361.962962963 227 361.962962963 310 239 c 0,11,12
 401.8 103 401.8 103 531 103 c 0,13,14
 668.430379747 103 668.430379747 103 759 235.5 c 0,15,16
 842 356.925925926 842 356.925925926 842 511 c 0,0,1
969 483 m 0,17,18
 969 405 969 405 939 313 c 128,-1,19
 909 221 909 221 852.5 147.5 c 0,20,21
 726.047619048 -17 726.047619048 -17 531 -17 c 0,22,23
 340.75 -17 340.75 -17 215.5 150 c 0,24,25
 100 304 100 304 100 499 c 0,26,27
 100 696.520547945 100 696.520547945 213.5 852 c 0,28,29
 335.41 1019 335.41 1019 531 1019 c 0,30,31
 727.25 1019 727.25 1019 852.5 852 c 0,32,33
 969 696.666666667 969 696.666666667 969 483 c 0,17,18
535 1206 m 1,34,-1
 437 1090 l 1,35,-1
 287 1090 l 1,36,-1
 458 1300 l 1,37,-1
 612 1300 l 1,38,-1
 782 1090 l 1,39,-1
 631 1090 l 1,40,-1
 535 1206 l 1,34,-1
EndSplineSet
EndChar

StartChar: otilde
Encoding: 245 245 184
Width: 1069
Flags: W
LayerCount: 2
Fore
SplineSet
842 511 m 0,0,1
 842 567 842 567 822 637.5 c 128,-1,2
 802 708 802 708 762.5 765.5 c 0,3,4
 672.852173913 896 672.852173913 896 531 896 c 0,5,6
 394.75 896 394.75 896 307 761 c 0,7,8
 227 637.923076923 227 637.923076923 227 499 c 0,9,10
 227 361.962962963 227 361.962962963 310 239 c 0,11,12
 401.8 103 401.8 103 531 103 c 0,13,14
 668.430379747 103 668.430379747 103 759 235.5 c 0,15,16
 842 356.925925926 842 356.925925926 842 511 c 0,0,1
969 483 m 0,17,18
 969 405 969 405 939 313 c 128,-1,19
 909 221 909 221 852.5 147.5 c 0,20,21
 726.047619048 -17 726.047619048 -17 531 -17 c 0,22,23
 340.75 -17 340.75 -17 215.5 150 c 0,24,25
 100 304 100 304 100 499 c 0,26,27
 100 696.520547945 100 696.520547945 213.5 852 c 0,28,29
 335.41 1019 335.41 1019 531 1019 c 0,30,31
 727.25 1019 727.25 1019 852.5 852 c 0,32,33
 969 696.666666667 969 696.666666667 969 483 c 0,17,18
466 1153.5 m 128,-1,35
 430 1166 430 1166 388.038461538 1166 c 128,-1,36
 346.076923077 1166 346.076923077 1166 340 1087 c 1,37,-1
 213 1087 l 1,38,39
 216.2475182 1239.63335539 216.2475182 1239.63335539 312.5 1288.5 c 0,40,41
 345 1305 345 1305 387 1305 c 128,-1,42
 429 1305 429 1305 463.5 1291.5 c 128,-1,43
 498 1278 498 1278 532.5 1261.5 c 0,44,45
 625.545454545 1217 625.545454545 1217 682 1217 c 0,46,47
 723.230769231 1217 723.230769231 1217 730 1305 c 1,48,-1
 857 1305 l 1,49,50
 853.74156188 1151.85340834 853.74156188 1151.85340834 758.5 1103.5 c 0,51,52
 726 1087 726 1087 684.5 1087 c 128,-1,53
 643 1087 643 1087 607.5 1099.5 c 128,-1,54
 572 1112 572 1112 537 1126.5 c 128,-1,34
 502 1141 502 1141 466 1153.5 c 128,-1,35
EndSplineSet
EndChar

StartChar: odieresis
Encoding: 246 246 185
Width: 1069
Flags: W
LayerCount: 2
Fore
SplineSet
842 511 m 0,0,1
 842 567 842 567 822 637.5 c 128,-1,2
 802 708 802 708 762.5 765.5 c 0,3,4
 672.852173913 896 672.852173913 896 531 896 c 0,5,6
 394.75 896 394.75 896 307 761 c 0,7,8
 227 637.923076923 227 637.923076923 227 499 c 0,9,10
 227 361.962962963 227 361.962962963 310 239 c 0,11,12
 401.8 103 401.8 103 531 103 c 0,13,14
 668.430379747 103 668.430379747 103 759 235.5 c 0,15,16
 842 356.925925926 842 356.925925926 842 511 c 0,0,1
969 483 m 0,17,18
 969 405 969 405 939 313 c 128,-1,19
 909 221 909 221 852.5 147.5 c 0,20,21
 726.047619048 -17 726.047619048 -17 531 -17 c 0,22,23
 340.75 -17 340.75 -17 215.5 150 c 0,24,25
 100 304 100 304 100 499 c 0,26,27
 100 696.520547945 100 696.520547945 213.5 852 c 0,28,29
 335.41 1019 335.41 1019 531 1019 c 0,30,31
 727.25 1019 727.25 1019 852.5 852 c 0,32,33
 969 696.666666667 969 696.666666667 969 483 c 0,17,18
770 1208 m 1,34,-1
 638 1208 l 1,35,-1
 638 1355 l 1,36,-1
 770 1355 l 1,37,-1
 770 1208 l 1,34,-1
434 1208 m 1,38,-1
 300 1208 l 1,39,-1
 300 1355 l 1,40,-1
 434 1355 l 1,41,-1
 434 1208 l 1,38,-1
EndSplineSet
EndChar

StartChar: divide
Encoding: 247 247 186
Width: 785
Flags: W
LayerCount: 2
Fore
SplineSet
468 102 m 1,0,-1
 314 102 l 1,1,-1
 314 260 l 1,2,-1
 468 260 l 1,3,-1
 468 102 l 1,0,-1
100 562 m 1,4,-1
 685 562 l 1,5,-1
 685 438 l 1,6,-1
 100 438 l 1,7,-1
 100 562 l 1,4,-1
469 740 m 1,8,-1
 315 740 l 1,9,-1
 315 897 l 1,10,-1
 469 897 l 1,11,-1
 469 740 l 1,8,-1
EndSplineSet
EndChar

StartChar: oslash
Encoding: 248 248 187
Width: 1069
Flags: W
LayerCount: 2
Fore
SplineSet
832.5 409 m 128,-1,1
 842 455 842 455 842 500.5 c 128,-1,2
 842 546 842 546 832.5 594 c 128,-1,3
 823 642 823 642 804.5 687.5 c 0,4,5
 764.492063492 785.897897898 764.492063492 785.897897898 693 840 c 1,6,-1
 487 108 l 1,7,8
 510 103 510 103 544.5 103 c 128,-1,9
 579 103 579 103 621 120 c 128,-1,10
 663 137 663 137 697.5 166.5 c 128,-1,11
 732 196 732 196 759 235.5 c 128,-1,12
 786 275 786 275 804.5 319 c 128,-1,0
 823 363 823 363 832.5 409 c 128,-1,1
578 892 m 1,13,14
 556 896 556 896 519.5 896 c 128,-1,15
 483 896 483 896 442 878.5 c 128,-1,16
 401 861 401 861 367 831 c 128,-1,17
 333 801 333 801 307 761 c 128,-1,18
 281 721 281 721 263 677 c 128,-1,19
 245 633 245 633 236 587 c 128,-1,20
 227 541 227 541 227 499 c 128,-1,21
 227 457 227 457 237 411 c 128,-1,22
 247 365 247 365 265.5 320.5 c 0,23,24
 304.662839248 226.297494781 304.662839248 226.297494781 373 166 c 1,25,-1
 578 892 l 1,13,14
269 -203 m 1,26,-1
 337 38 l 1,27,28
 168.695652174 143.190217391 168.695652174 143.190217391 116 365.5 c 0,29,30
 100 433 100 433 100 497 c 128,-1,31
 100 561 100 561 113 624 c 128,-1,32
 126 687 126 687 151.5 744.5 c 128,-1,33
 177 802 177 802 213.5 852 c 128,-1,34
 250 902 250 902 298 939.5 c 0,35,36
 399.76 1019 399.76 1019 531 1019 c 0,37,38
 571 1019 571 1019 611 1011 c 1,39,-1
 664 1197 l 1,40,-1
 794 1197 l 1,41,-1
 728 965 l 1,42,43
 838.733224556 898.948602896 838.733224556 898.948602896 906 765.5 c 0,44,45
 969 640.516129032 969 640.516129032 969 522.758064516 c 128,-1,46
 969 405 969 405 939 313 c 128,-1,47
 909 221 909 221 852.5 147.5 c 0,48,49
 726.047619048 -17 726.047619048 -17 531 -17 c 0,50,51
 492 -17 492 -17 454 -9 c 1,52,-1
 399 -203 l 1,53,-1
 269 -203 l 1,26,-1
EndSplineSet
EndChar

StartChar: ugrave
Encoding: 249 249 188
Width: 975
Flags: W
LayerCount: 2
Fore
SplineSet
875 0 m 1,0,-1
 745 0 l 1,1,-1
 745 124 l 1,2,3
 670.290786948 53.8186180422 670.290786948 53.8186180422 621.145393474 28.9093090211 c 0,4,5
 530.567567568 -17 530.567567568 -17 455.783783784 -17 c 128,-1,6
 381 -17 381 -17 319 10.5 c 128,-1,7
 257 38 257 38 208.5 84 c 0,8,9
 100 186.907216495 100 186.907216495 100 313 c 2,10,-1
 100 1000 l 1,11,-1
 227 1000 l 1,12,-1
 227 329 l 2,13,14
 227 241.473684211 227 241.473684211 288.5 173.5 c 0,15,16
 351.380952381 104 351.380952381 104 441 104 c 0,17,18
 536.475409836 104 536.475409836 104 625 171.5 c 0,19,20
 706.851700123 233.911921344 706.851700123 233.911921344 747 329 c 1,21,-1
 747 1000 l 1,22,-1
 875 1000 l 1,23,-1
 875 0 l 1,0,-1
635 1091 m 1,24,-1
 525 1091 l 1,25,-1
 341 1319 l 1,26,-1
 528 1319 l 1,27,-1
 635 1091 l 1,24,-1
EndSplineSet
EndChar

StartChar: uacute
Encoding: 250 250 189
Width: 975
Flags: W
LayerCount: 2
Fore
SplineSet
875 0 m 1,0,-1
 745 0 l 1,1,-1
 745 124 l 1,2,3
 670.290786948 53.8186180422 670.290786948 53.8186180422 621.145393474 28.9093090211 c 0,4,5
 530.567567568 -17 530.567567568 -17 455.783783784 -17 c 128,-1,6
 381 -17 381 -17 319 10.5 c 128,-1,7
 257 38 257 38 208.5 84 c 0,8,9
 100 186.907216495 100 186.907216495 100 313 c 2,10,-1
 100 1000 l 1,11,-1
 227 1000 l 1,12,-1
 227 329 l 2,13,14
 227 241.473684211 227 241.473684211 288.5 173.5 c 0,15,16
 351.380952381 104 351.380952381 104 441 104 c 0,17,18
 536.475409836 104 536.475409836 104 625 171.5 c 0,19,20
 706.851700123 233.911921344 706.851700123 233.911921344 747 329 c 1,21,-1
 747 1000 l 1,22,-1
 875 1000 l 1,23,-1
 875 0 l 1,0,-1
447 1319 m 1,24,-1
 635 1319 l 1,25,-1
 451 1091 l 1,26,-1
 340 1091 l 1,27,-1
 447 1319 l 1,24,-1
EndSplineSet
EndChar

StartChar: ucircumflex
Encoding: 251 251 190
Width: 975
Flags: W
LayerCount: 2
Fore
SplineSet
875 0 m 1,0,-1
 745 0 l 1,1,-1
 745 124 l 1,2,3
 670.290786948 53.8186180422 670.290786948 53.8186180422 621.145393474 28.9093090211 c 0,4,5
 530.567567568 -17 530.567567568 -17 455.783783784 -17 c 128,-1,6
 381 -17 381 -17 319 10.5 c 128,-1,7
 257 38 257 38 208.5 84 c 0,8,9
 100 186.907216495 100 186.907216495 100 313 c 2,10,-1
 100 1000 l 1,11,-1
 227 1000 l 1,12,-1
 227 329 l 2,13,14
 227 241.473684211 227 241.473684211 288.5 173.5 c 0,15,16
 351.380952381 104 351.380952381 104 441 104 c 0,17,18
 536.475409836 104 536.475409836 104 625 171.5 c 0,19,20
 706.851700123 233.911921344 706.851700123 233.911921344 747 329 c 1,21,-1
 747 1000 l 1,22,-1
 875 1000 l 1,23,-1
 875 0 l 1,0,-1
488 1206 m 1,24,-1
 390 1090 l 1,25,-1
 240 1090 l 1,26,-1
 411 1300 l 1,27,-1
 565 1300 l 1,28,-1
 735 1090 l 1,29,-1
 584 1090 l 1,30,-1
 488 1206 l 1,24,-1
EndSplineSet
EndChar

StartChar: udieresis
Encoding: 252 252 191
Width: 975
Flags: W
LayerCount: 2
Fore
SplineSet
875 0 m 1,0,-1
 745 0 l 1,1,-1
 745 124 l 1,2,3
 670.290786948 53.8186180422 670.290786948 53.8186180422 621.145393474 28.9093090211 c 0,4,5
 530.567567568 -17 530.567567568 -17 455.783783784 -17 c 128,-1,6
 381 -17 381 -17 319 10.5 c 128,-1,7
 257 38 257 38 208.5 84 c 0,8,9
 100 186.907216495 100 186.907216495 100 313 c 2,10,-1
 100 1000 l 1,11,-1
 227 1000 l 1,12,-1
 227 329 l 2,13,14
 227 241.473684211 227 241.473684211 288.5 173.5 c 0,15,16
 351.380952381 104 351.380952381 104 441 104 c 0,17,18
 536.475409836 104 536.475409836 104 625 171.5 c 0,19,20
 706.851700123 233.911921344 706.851700123 233.911921344 747 329 c 1,21,-1
 747 1000 l 1,22,-1
 875 1000 l 1,23,-1
 875 0 l 1,0,-1
723 1208 m 1,24,-1
 591 1208 l 1,25,-1
 591 1355 l 1,26,-1
 723 1355 l 1,27,-1
 723 1208 l 1,24,-1
387 1208 m 1,28,-1
 253 1208 l 1,29,-1
 253 1355 l 1,30,-1
 387 1355 l 1,31,-1
 387 1208 l 1,28,-1
EndSplineSet
EndChar

StartChar: yacute
Encoding: 253 253 192
Width: 1077
Flags: W
LayerCount: 2
Fore
SplineSet
188 -229 m 1,0,1
 235.272727273 -281 235.272727273 -281 279.136363636 -281 c 0,2,3
 366.367346939 -281 366.367346939 -281 408 -179 c 1,4,-1
 494 39 l 1,5,-1
 139 1000 l 1,6,-1
 272 1000 l 1,7,-1
 562 223 l 1,8,-1
 839 1000 l 1,9,-1
 977 1000 l 1,10,-1
 544 -198 l 1,11,12
 463.574468085 -408 463.574468085 -408 282 -408 c 0,13,14
 189.578947368 -408 189.578947368 -408 100 -316 c 1,15,-1
 188 -229 l 1,0,1
498 1319 m 1,16,-1
 686 1319 l 1,17,-1
 502 1091 l 1,18,-1
 391 1091 l 1,19,-1
 498 1319 l 1,16,-1
EndSplineSet
EndChar

StartChar: thorn
Encoding: 254 254 193
Width: 927
Flags: W
LayerCount: 2
Fore
SplineSet
227 174 m 1,0,1
 317.666666667 89 317.666666667 89 425 89 c 0,2,3
 548.765957447 89 548.765957447 89 631.5 190 c 0,4,5
 713 289.493506494 713 289.493506494 713 434 c 0,6,7
 713 583.961538462 713 583.961538462 629 703.5 c 0,8,9
 541.513513514 828 541.513513514 828 425 828 c 0,10,11
 351.11627907 828 351.11627907 828 278 762.5 c 0,12,13
 254 741 254 741 227 713 c 1,14,-1
 227 174 l 1,0,1
227 -366 m 1,15,-1
 100 -366 l 1,16,-1
 100 1374 l 1,17,-1
 227 1374 l 1,18,-1
 227 825 l 1,19,20
 271 872 271 872 315.5 895.5 c 128,-1,21
 360 919 360 919 427.5 919 c 128,-1,22
 495 919 495 919 552 898 c 128,-1,23
 609 877 609 877 653.5 840.5 c 128,-1,24
 698 804 698 804 730.5 756 c 128,-1,25
 763 708 763 708 784.5 654 c 0,26,27
 827 547.255813953 827 547.255813953 827 450.627906977 c 128,-1,28
 827 354 827 354 797 273.5 c 128,-1,29
 767 193 767 193 714 128.5 c 0,30,31
 595.263565891 -16 595.263565891 -16 425 -16 c 0,32,33
 345.5 -16 345.5 -16 273.5 32 c 0,34,35
 251 47 251 47 227 65 c 1,36,-1
 227 -366 l 1,15,-1
EndSplineSet
EndChar

StartChar: ydieresis
Encoding: 255 255 194
Width: 1077
Flags: W
LayerCount: 2
Fore
SplineSet
188 -229 m 1,0,1
 235.272727273 -281 235.272727273 -281 279.136363636 -281 c 0,2,3
 366.367346939 -281 366.367346939 -281 408 -179 c 1,4,-1
 494 39 l 1,5,-1
 139 1000 l 1,6,-1
 272 1000 l 1,7,-1
 562 223 l 1,8,-1
 839 1000 l 1,9,-1
 977 1000 l 1,10,-1
 544 -198 l 1,11,12
 463.574468085 -408 463.574468085 -408 282 -408 c 0,13,14
 189.578947368 -408 189.578947368 -408 100 -316 c 1,15,-1
 188 -229 l 1,0,1
774 1208 m 1,16,-1
 642 1208 l 1,17,-1
 642 1355 l 1,18,-1
 774 1355 l 1,19,-1
 774 1208 l 1,16,-1
438 1208 m 1,20,-1
 304 1208 l 1,21,-1
 304 1355 l 1,22,-1
 438 1355 l 1,23,-1
 438 1208 l 1,20,-1
EndSplineSet
EndChar

StartChar: amacron
Encoding: 257 257 195
Width: 1035
Flags: W
LayerCount: 2
Fore
SplineSet
439 105 m 0,0,1
 611.606060606 105 611.606060606 105 755 274 c 1,2,-1
 755 488 l 1,3,4
 715 481 715 481 660 474.5 c 128,-1,5
 605 468 605 468 546.5 458.5 c 128,-1,6
 488 449 488 449 431 433 c 128,-1,7
 374 417 374 417 329 390 c 0,8,9
 228 329.4 228 329.4 228 226 c 0,10,11
 228 116.733333333 228 116.733333333 366.5 107.5 c 0,12,13
 404 105 404 105 439 105 c 0,0,1
876 423 m 1,14,15
 876 164.702702703 876 164.702702703 935 18 c 1,16,-1
 822 -16 l 1,17,18
 807 19 807 19 796.5 57 c 128,-1,19
 786 95 786 95 775 131 c 1,20,21
 704 61 704 61 626 22 c 128,-1,22
 548 -17 548 -17 465 -17 c 128,-1,23
 382 -17 382 -17 321 -6.5 c 128,-1,24
 260 4 260 4 211 31.5 c 0,25,26
 100 93.7959183673 100 93.7959183673 100 226 c 0,27,28
 100 445.565217391 100 445.565217391 339 523.5 c 0,29,30
 443.792507205 557.671469741 443.792507205 557.671469741 569.896253602 578.83573487 c 128,-1,31
 696 600 696 600 755 618 c 1,32,33
 754 682 754 682 750.5 734 c 128,-1,34
 747 786 747 786 727 822.5 c 0,35,36
 685.082191781 899 685.082191781 899 541 899 c 0,37,38
 373.860759494 899 373.860759494 899 278.5 775.5 c 0,39,40
 248 736 248 736 231 686 c 1,41,-1
 112 711 l 1,42,43
 140.531704095 855.560634082 140.531704095 855.560634082 266.5 941 c 0,44,45
 381.5 1019 381.5 1019 536 1019 c 0,46,47
 774.490566038 1019 774.490566038 1019 856 859 c 0,48,49
 883 806 883 806 883 736 c 1,50,-1
 876 423 l 1,14,15
824 1181 m 1,51,-1
 229 1181 l 1,52,-1
 229 1293 l 1,53,-1
 824 1293 l 1,54,-1
 824 1181 l 1,51,-1
EndSplineSet
EndChar

StartChar: imacron
Encoding: 299 299 196
Width: 327
Flags: W
LayerCount: 2
Fore
SplineSet
227 0 m 1,0,-1
 100 0 l 1,1,-1
 100 1000 l 1,2,-1
 227 1000 l 1,3,-1
 227 0 l 1,0,-1
450 1181 m 1,4,-1
 -145 1181 l 1,5,-1
 -145 1293 l 1,6,-1
 450 1293 l 1,7,-1
 450 1181 l 1,4,-1
EndSplineSet
EndChar

StartChar: dotlessi
Encoding: 305 305 197
Width: 327
Flags: W
LayerCount: 2
Fore
SplineSet
227 0 m 1,0,-1
 100 0 l 1,1,-1
 100 1000 l 1,2,-1
 227 1000 l 1,3,-1
 227 0 l 1,0,-1
EndSplineSet
EndChar

StartChar: OE
Encoding: 338 338 198
Width: 2192
Flags: W
LayerCount: 2
Fore
SplineSet
251 686 m 128,-1,1
 251 542 251 542 289 433 c 128,-1,2
 327 324 327 324 391.5 251 c 0,3,4
 521.383561644 104 521.383561644 104 717 104 c 0,5,6
 916 104 916 104 1048 254 c 0,7,8
 1092 304 1092 304 1122 371 c 1,9,-1
 1122 997 l 1,10,11
 1032.04524887 1188.90346908 1032.04524887 1188.90346908 838 1245.5 c 0,12,13
 778 1263 778 1263 701.5 1263 c 128,-1,14
 625 1263 625 1263 541 1226.5 c 128,-1,15
 457 1190 457 1190 392.5 1118 c 128,-1,16
 328 1046 328 1046 289.5 938 c 128,-1,0
 251 830 251 830 251 686 c 128,-1,1
1122 127 m 1,17,18
 947.128205128 -28 947.128205128 -28 719 -28 c 0,19,20
 461 -28 461 -28 288.5 153.5 c 0,21,22
 100 351.834782609 100 351.834782609 100 686 c 0,23,24
 100 1184.0944206 100 1184.0944206 440.5 1339 c 0,25,26
 557 1392 557 1392 717 1392 c 0,27,28
 953.027777778 1392 953.027777778 1392 1122 1238 c 1,29,-1
 1122 1372 l 1,30,-1
 2069 1372 l 1,31,-1
 2069 1243 l 1,32,-1
 1272 1243 l 1,33,-1
 1272 773 l 1,34,-1
 2001 773 l 1,35,-1
 2001 645 l 1,36,-1
 1272 645 l 1,37,-1
 1272 129 l 1,38,-1
 2092 129 l 1,39,-1
 2092 0 l 1,40,-1
 1122 0 l 1,41,-1
 1122 127 l 1,17,18
EndSplineSet
EndChar

StartChar: oe
Encoding: 339 339 199
Width: 1805
Flags: W
LayerCount: 2
Fore
SplineSet
227 499.5 m 0,0,1
 227 458 227 458 236.5 412.5 c 128,-1,2
 246 367 246 367 264.5 323 c 128,-1,3
 283 279 283 279 310 239 c 128,-1,4
 337 199 337 199 370.5 169 c 0,5,6
 444.2 103 444.2 103 524.1 103 c 128,-1,7
 604 103 604 103 662 140.5 c 128,-1,8
 720 178 720 178 760 236.5 c 0,9,10
 842 356.425 842 356.425 842 501 c 0,11,12
 842 649.835443038 842 649.835443038 761.5 766 c 0,13,14
 671.412280702 896 671.412280702 896 531 896 c 0,15,16
 394.75 896 394.75 896 307 761 c 0,17,18
 227 637.923076923 227 637.923076923 227 499.5 c 0,0,1
1578 569 m 1,19,20
 1573.83451921 700.212644847 1573.83451921 700.212644847 1489.5 796 c 0,21,22
 1399.69565217 898 1399.69565217 898 1269 898 c 0,23,24
 1151.06382979 898 1151.06382979 898 1060 791 c 0,25,26
 977.587657784 694.165497896 977.587657784 694.165497896 971 569 c 1,27,-1
 1578 569 l 1,19,20
1270 -17 m 0,28,29
 1009.76923077 -17 1009.76923077 -17 899 223 c 1,30,31
 810.9125 53.35 810.9125 53.35 649.5 1 c 0,32,33
 594 -17 594 -17 512.5 -17 c 128,-1,34
 431 -17 431 -17 351 29.5 c 128,-1,35
 271 76 271 76 215.5 150 c 0,36,37
 100 304 100 304 100 499 c 0,38,39
 100 696.520547945 100 696.520547945 213.5 852 c 0,40,41
 335.41 1019 335.41 1019 531 1019 c 0,42,43
 711.068181818 1019 711.068181818 1019 833 874 c 0,44,45
 870 830 870 830 897 779 c 1,46,47
 974.617507136 950.405328259 974.617507136 950.405328259 1142.5 1001.5 c 0,48,49
 1200 1019 1200 1019 1281.5 1019 c 128,-1,50
 1363 1019 1363 1019 1443 983.5 c 128,-1,51
 1523 948 1523 948 1581 887 c 0,52,53
 1705 756.586206897 1705 756.586206897 1705 573 c 2,54,-1
 1705 447 l 1,55,-1
 971 447 l 1,56,57
 977.709475333 212.168363352 977.709475333 212.168363352 1142.5 132 c 0,58,59
 1198 105 1198 105 1259 105 c 128,-1,60
 1320 105 1320 105 1369 118 c 128,-1,61
 1418 131 1418 131 1461 156 c 0,62,63
 1555.26923077 210.807692308 1555.26923077 210.807692308 1586 303 c 1,64,-1
 1700 270 l 1,65,66
 1667.62516028 136.691836444 1667.62516028 136.691836444 1538 56.5 c 0,67,68
 1419.19178082 -17 1419.19178082 -17 1270 -17 c 0,28,29
EndSplineSet
EndChar

StartChar: umacron
Encoding: 363 363 200
Width: 975
Flags: W
LayerCount: 2
Fore
SplineSet
875 0 m 1,0,-1
 745 0 l 1,1,-1
 745 124 l 1,2,3
 670.290786948 53.8186180422 670.290786948 53.8186180422 621.145393474 28.9093090211 c 0,4,5
 530.567567568 -17 530.567567568 -17 455.783783784 -17 c 128,-1,6
 381 -17 381 -17 319 10.5 c 128,-1,7
 257 38 257 38 208.5 84 c 0,8,9
 100 186.907216495 100 186.907216495 100 313 c 2,10,-1
 100 1000 l 1,11,-1
 227 1000 l 1,12,-1
 227 329 l 2,13,14
 227 241.473684211 227 241.473684211 288.5 173.5 c 0,15,16
 351.380952381 104 351.380952381 104 441 104 c 0,17,18
 536.475409836 104 536.475409836 104 625 171.5 c 0,19,20
 706.851700123 233.911921344 706.851700123 233.911921344 747 329 c 1,21,-1
 747 1000 l 1,22,-1
 875 1000 l 1,23,-1
 875 0 l 1,0,-1
784 1181 m 1,24,-1
 189 1181 l 1,25,-1
 189 1293 l 1,26,-1
 784 1293 l 1,27,-1
 784 1181 l 1,24,-1
EndSplineSet
EndChar

StartChar: Ydieresis
Encoding: 376 376 201
Width: 1394
Flags: W
LayerCount: 2
Fore
SplineSet
1294 1372 m 1,0,-1
 775 569 l 1,1,-1
 775 0 l 1,2,-1
 621 0 l 1,3,-1
 621 569 l 1,4,-1
 100 1372 l 1,5,-1
 270 1372 l 1,6,-1
 700 704 l 1,7,-1
 1123 1372 l 1,8,-1
 1294 1372 l 1,0,-1
932 1580 m 1,9,-1
 800 1580 l 1,10,-1
 800 1727 l 1,11,-1
 932 1727 l 1,12,-1
 932 1580 l 1,9,-1
596 1580 m 1,13,-1
 462 1580 l 1,14,-1
 462 1727 l 1,15,-1
 596 1727 l 1,16,-1
 596 1580 l 1,13,-1
EndSplineSet
EndChar

StartChar: florin
Encoding: 402 402 202
Width: 1057
Flags: W
LayerCount: 2
Fore
SplineSet
931 1126 m 1,0,1
 862.8 1148 862.8 1148 810.4 1148 c 128,-1,2
 758 1148 758 1148 734.5 1119.5 c 128,-1,3
 711 1091 711 1091 697.5 1050.5 c 128,-1,4
 684 1010 684 1010 678 967 c 128,-1,5
 672 924 672 924 667 894 c 1,6,-1
 842 894 l 1,7,-1
 824 799 l 1,8,-1
 647 799 l 1,9,-1
 484 -150 l 1,10,11
 459.752397869 -298.94955595 459.752397869 -298.94955595 361.5 -346 c 0,12,13
 326 -363 326 -363 279 -363 c 0,14,15
 210 -363 210 -363 100 -341 c 1,16,-1
 127 -234 l 1,17,18
 204.333333333 -250 204.333333333 -250 241.166666667 -250 c 128,-1,19
 278 -250 278 -250 299.5 -237.5 c 128,-1,20
 321 -225 321 -225 335 -205 c 0,21,22
 360.929577465 -167.957746479 360.929577465 -167.957746479 370 -109 c 2,23,-1
 520 799 l 1,24,-1
 347 799 l 1,25,-1
 365 894 l 1,26,-1
 539 894 l 1,27,28
 546 930 546 930 554 971.5 c 128,-1,29
 562 1013 562 1013 573.5 1054 c 128,-1,30
 585 1095 585 1095 601.5 1132.5 c 128,-1,31
 618 1170 618 1170 643 1199 c 0,32,33
 698.172413793 1263 698.172413793 1263 785 1263 c 0,34,35
 831 1263 831 1263 957 1233 c 1,36,-1
 931 1126 l 1,0,1
EndSplineSet
EndChar

StartChar: circumflex
Encoding: 710 710 203
Width: 695
Flags: W
LayerCount: 2
Fore
SplineSet
348 1206 m 1,0,-1
 250 1090 l 1,1,-1
 100 1090 l 1,2,-1
 271 1300 l 1,3,-1
 425 1300 l 1,4,-1
 595 1090 l 1,5,-1
 444 1090 l 1,6,-1
 348 1206 l 1,0,-1
EndSplineSet
EndChar

StartChar: ring
Encoding: 730 730 204
Width: 547
Flags: W
LayerCount: 2
Fore
SplineSet
210 1195.5 m 128,-1,1
 185 1171 185 1171 185 1132.5 c 128,-1,2
 185 1094 185 1094 210 1068.5 c 128,-1,3
 235 1043 235 1043 273.5 1043 c 128,-1,4
 312 1043 312 1043 337 1068.5 c 128,-1,5
 362 1094 362 1094 362 1132.5 c 128,-1,6
 362 1171 362 1171 337 1195.5 c 128,-1,7
 312 1220 312 1220 273.5 1220 c 128,-1,0
 235 1220 235 1220 210 1195.5 c 128,-1,1
113 1062 m 0,8,9
 100 1094 100 1094 100 1132.5 c 128,-1,10
 100 1171 100 1171 113 1202.5 c 128,-1,11
 126 1234 126 1234 149 1256.5 c 128,-1,12
 172 1279 172 1279 204 1291.5 c 128,-1,13
 236 1304 236 1304 274 1304 c 128,-1,14
 312 1304 312 1304 343.5 1291.5 c 128,-1,15
 375 1279 375 1279 398 1256.5 c 0,16,17
 447 1208.56521739 447 1208.56521739 447 1133 c 0,18,19
 447 1056 447 1056 398 1007 c 0,20,21
 350 959 350 959 274 959 c 0,22,23
 154.84375 959 154.84375 959 113 1062 c 0,8,9
EndSplineSet
EndChar

StartChar: tilde
Encoding: 732 732 205
Width: 775
Flags: W
LayerCount: 2
Fore
SplineSet
326 1153 m 128,-1,1
 294 1163 294 1163 256.65 1163 c 128,-1,2
 219.3 1163 219.3 1163 213 1100 c 1,3,-1
 100 1100 l 1,4,5
 103.198347107 1221.53719008 103.198347107 1221.53719008 189 1260 c 0,6,7
 218 1273 218 1273 255.5 1273 c 128,-1,8
 293 1273 293 1273 324 1262 c 128,-1,9
 355 1251 355 1251 385.5 1238 c 0,10,11
 467.615384615 1203 467.615384615 1203 519 1203 c 0,12,13
 555 1203 555 1203 562 1273 c 1,14,-1
 675 1273 l 1,15,16
 671.701886792 1150.96981132 671.701886792 1150.96981132 587 1113 c 0,17,18
 558 1100 558 1100 521.5 1100 c 128,-1,19
 485 1100 485 1100 453 1110 c 128,-1,20
 421 1120 421 1120 389.5 1131.5 c 128,-1,0
 358 1143 358 1143 326 1153 c 128,-1,1
EndSplineSet
EndChar

StartChar: tildecomb
Encoding: 771 771 206
Width: 0
Flags: W
LayerCount: 2
Fore
SplineSet
-69 1153.5 m 128,-1,1
 -105 1166 -105 1166 -146.961538462 1166 c 128,-1,2
 -188.923076923 1166 -188.923076923 1166 -195 1087 c 1,3,-1
 -322 1087 l 1,4,5
 -318.7524818 1239.63335539 -318.7524818 1239.63335539 -222.5 1288.5 c 0,6,7
 -190 1305 -190 1305 -148 1305 c 128,-1,8
 -106 1305 -106 1305 -71.5 1291.5 c 128,-1,9
 -37 1278 -37 1278 -2.5 1261.5 c 0,10,11
 90.5454545455 1217 90.5454545455 1217 147 1217 c 0,12,13
 188.230769231 1217 188.230769231 1217 195 1305 c 1,14,-1
 322 1305 l 1,15,16
 318.74156188 1151.85340834 318.74156188 1151.85340834 223.5 1103.5 c 0,17,18
 191 1087 191 1087 149.5 1087 c 128,-1,19
 108 1087 108 1087 72.5 1099.5 c 128,-1,20
 37 1112 37 1112 2 1126.5 c 128,-1,0
 -33 1141 -33 1141 -69 1153.5 c 128,-1,1
EndSplineSet
EndChar

StartChar: uni0304
Encoding: 772 772 207
Width: 0
Flags: W
LayerCount: 2
Fore
SplineSet
298 1181 m 1,0,-1
 -297 1181 l 1,1,-1
 -297 1293 l 1,2,-1
 298 1293 l 1,3,-1
 298 1181 l 1,0,-1
EndSplineSet
EndChar

StartChar: uni0307
Encoding: 775 775 208
Width: 0
Flags: W
LayerCount: 2
Fore
SplineSet
41 1153.5 m 128,-1,1
 22 1146 22 1146 1 1146 c 128,-1,2
 -20 1146 -20 1146 -38.5 1153.5 c 128,-1,3
 -57 1161 -57 1161 -71 1175 c 0,4,5
 -103 1207 -103 1207 -103 1238.5 c 128,-1,6
 -103 1270 -103 1270 -95 1288 c 128,-1,7
 -87 1306 -87 1306 -73 1319 c 0,8,9
 -42.8461538462 1347 -42.8461538462 1347 0 1347 c 128,-1,10
 43 1347 43 1347 73 1319 c 128,-1,11
 103 1291 103 1291 103.5 1258 c 128,-1,12
 104 1225 104 1225 96.5 1206.5 c 128,-1,13
 89 1188 89 1188 74.5 1174.5 c 128,-1,0
 60 1161 60 1161 41 1153.5 c 128,-1,1
EndSplineSet
EndChar

StartChar: dotbelowcomb
Encoding: 803 803 209
Width: 0
Flags: W
LayerCount: 2
Fore
SplineSet
41 -306.5 m 128,-1,1
 22 -314 22 -314 1 -314 c 128,-1,2
 -20 -314 -20 -314 -38.5 -306.5 c 128,-1,3
 -57 -299 -57 -299 -71 -285 c 0,4,5
 -103 -253 -103 -253 -103 -221.5 c 128,-1,6
 -103 -190 -103 -190 -95 -172 c 128,-1,7
 -87 -154 -87 -154 -73 -141 c 0,8,9
 -42.8461538462 -113 -42.8461538462 -113 0 -113 c 128,-1,10
 43 -113 43 -113 73 -141 c 128,-1,11
 103 -169 103 -169 103.5 -202 c 128,-1,12
 104 -235 104 -235 96.5 -253.5 c 128,-1,13
 89 -272 89 -272 74.5 -285.5 c 128,-1,0
 60 -299 60 -299 41 -306.5 c 128,-1,1
EndSplineSet
EndChar

StartChar: uni035C
Encoding: 860 860 210
Width: 0
GlyphClass: 4
Flags: W
LayerCount: 2
Fore
SplineSet
509 -314.5 m 0,0,1
 257 -409 257 -409 -2 -409 c 0,2,3
 -264.431372549 -409 -264.431372549 -409 -512 -302 c 0,4,5
 -533 -293 -533 -293 -548.5 -282.5 c 128,-1,6
 -564 -272 -564 -272 -564 -248 c 128,-1,7
 -564 -224 -564 -224 -549 -209 c 128,-1,8
 -534 -194 -534 -194 -519.5 -194 c 128,-1,9
 -505 -194 -505 -194 -493 -197.5 c 128,-1,10
 -481 -201 -481 -201 -468 -206 c 128,-1,11
 -455 -211 -455 -211 -442.5 -215.5 c 128,-1,12
 -430 -220 -430 -220 -374.5 -239 c 128,-1,13
 -319 -258 -319 -258 -212.5 -271.5 c 128,-1,14
 -106 -285 -106 -285 4.5 -285 c 0,15,16
 254.235294118 -285 254.235294118 -285 448 -224 c 0,17,18
 463 -219 463 -219 480 -212 c 128,-1,19
 497 -205 497 -205 515.5 -205 c 128,-1,20
 534 -205 534 -205 549 -220 c 128,-1,21
 564 -235 564 -235 564 -258.5 c 128,-1,22
 564 -282 564 -282 553 -291.5 c 0,23,24
 539.697674419 -302.988372093 539.697674419 -302.988372093 509 -314.5 c 0,0,1
EndSplineSet
EndChar

StartChar: uni0E4D
Encoding: 3661 3661 211
Width: 0
Flags: W
LayerCount: 2
Fore
SplineSet
0 1458 m 128,-1,1
 -32 1458 -32 1458 -54.5 1436 c 128,-1,2
 -77 1414 -77 1414 -77 1382 c 128,-1,3
 -77 1350 -77 1350 -54.5 1327.5 c 128,-1,4
 -32 1305 -32 1305 0 1305 c 128,-1,5
 32 1305 32 1305 54.5 1327.5 c 128,-1,6
 77 1350 77 1350 77 1382 c 128,-1,7
 77 1414 77 1414 54.5 1436 c 128,-1,0
 32 1458 32 1458 0 1458 c 128,-1,1
0 1558 m 128,-1,9
 37 1558 37 1558 69.5 1544.5 c 128,-1,10
 102 1531 102 1531 126 1507 c 128,-1,11
 150 1483 150 1483 163.5 1451 c 128,-1,12
 177 1419 177 1419 177 1382 c 128,-1,13
 177 1345 177 1345 163.5 1312.5 c 128,-1,14
 150 1280 150 1280 126 1256 c 128,-1,15
 102 1232 102 1232 69.5 1218.5 c 128,-1,16
 37 1205 37 1205 0 1205 c 128,-1,17
 -37 1205 -37 1205 -69.5 1218.5 c 128,-1,18
 -102 1232 -102 1232 -126 1256 c 128,-1,19
 -150 1280 -150 1280 -163.5 1312.5 c 128,-1,20
 -177 1345 -177 1345 -177 1382 c 128,-1,21
 -177 1419 -177 1419 -163.5 1451 c 128,-1,22
 -150 1483 -150 1483 -126 1507 c 128,-1,23
 -102 1531 -102 1531 -69.5 1544.5 c 128,-1,8
 -37 1558 -37 1558 0 1558 c 128,-1,9
EndSplineSet
EndChar

StartChar: uni0E80
Encoding: 3712 3712 212
Width: 976
Flags: W
AnchorPoint: "+BBEENQQ3BEsEPARPBD0EPQQ+BDUA--3" 976 1135 basechar 0
AnchorPoint: "+BBEENQQ3BEsEPARPBD0EPQQ+BDUA--2" 476 1135 basechar 0
AnchorPoint: "+BBEENQQ3BEsEPARPBD0EPQQ+BDUA--1" 976 0 basechar 0
AnchorPoint: "+BBEENQQ3BEsEPARPBD0EPQQ+BDUA--0" 476 0 basechar 0
LayerCount: 2
Fore
SplineSet
475 461 m 1,0,-1
 742 191 l 1,1,-1
 828 277 l 1,2,-1
 559 548 l 1,3,-1
 826 818 l 1,4,-1
 742 903 l 1,5,-1
 475 633 l 1,6,-1
 209 903 l 1,7,-1
 124 818 l 1,8,-1
 392 546 l 1,9,-1
 124 277 l 1,10,-1
 207 191 l 1,11,-1
 475 461 l 1,0,-1
96 277 m 1,12,-1
 364 546 l 1,13,-1
 96 818 l 1,14,-1
 209 931 l 1,15,-1
 475 661 l 1,16,-1
 742 931 l 1,17,-1
 854 818 l 1,18,-1
 587 548 l 1,19,-1
 856 277 l 1,20,-1
 742 163 l 1,21,-1
 475 433 l 1,22,-1
 207 163 l 1,23,-1
 96 277 l 1,12,-1
EndSplineSet
EndChar

StartChar: uni0E81
Encoding: 3713 3713 213
Width: 1290
GlyphClass: 2
Flags: W
HStem: -15 94<199.59 294.392> 193 94<199.424 294.294> 807 102<197.811 319.862> 1010 125<585.333 914.888> 1016 100<197.538 303.928>
VStem: 96 94<88.5649 183.435 917.624 1007.45> 372 125<251.098 830.212> 984 121<-12.9982 165.738> 1069 126<187.282 828.763>
AnchorPoint: "+BBEENQQ3BEsEPARPBD0EPQQ+BDUA--3" 1290 1135 basechar 0
AnchorPoint: "+BBEENQQ3BEsEPARPBD0EPQQ+BDUA--2" 746 1135 basechar 0
AnchorPoint: "+BBEENQQ3BEsEPARPBD0EPQQ+BDUA--1" 1290 0 basechar 0
AnchorPoint: "+BBEENQQ3BEsEPARPBD0EPQQ+BDUA--0" 696 0 basechar 0
LayerCount: 2
Fore
SplineSet
190 136 m 128,-1,1
 190 112 190 112 206.5 95.5 c 128,-1,2
 223 79 223 79 247 79 c 128,-1,3
 271 79 271 79 287.5 95.5 c 128,-1,4
 304 112 304 112 304 136 c 128,-1,5
 304 160 304 160 287.5 176.5 c 128,-1,6
 271 193 271 193 247 193 c 128,-1,7
 223 193 223 193 206.5 176.5 c 128,-1,0
 190 160 190 160 190 136 c 128,-1,1
321 937 m 1,8,9
 289 1016 289 1016 246 1016 c 0,10,11
 222 1016 222 1016 205 1001 c 128,-1,12
 188 986 188 986 188 962 c 128,-1,13
 188 938 188 938 205.5 923.5 c 128,-1,14
 223 909 223 909 249.5 909 c 128,-1,15
 276 909 276 909 321 937 c 1,8,9
1069 549 m 0,16,17
 1069 1010 1069 1010 749 1010 c 0,18,19
 655 1010 655 1010 525 934 c 0,20,21
 489 913 489 913 454 892 c 1,22,23
 497 745 497 745 497 560 c 0,24,25
 497 111 497 111 338 10 c 0,26,27
 299 -15 299 -15 241.5 -15 c 128,-1,28
 184 -15 184 -15 140 29 c 128,-1,29
 96 73 96 73 96 136 c 128,-1,30
 96 199 96 199 140 243 c 128,-1,31
 184 287 184 287 246 287 c 128,-1,32
 308 287 308 287 351 246 c 1,33,34
 372 360 372 360 372 528.5 c 128,-1,35
 372 697 372 697 348 834 c 1,36,37
 292 807 292 807 238 807 c 128,-1,38
 184 807 184 807 140 852.5 c 128,-1,39
 96 898 96 898 96 962 c 128,-1,40
 96 1026 96 1026 139.5 1071 c 128,-1,41
 183 1116 183 1116 246 1116 c 0,42,43
 349 1116 349 1116 411 999 c 1,44,45
 604 1135 604 1135 749 1135 c 0,46,47
 1054 1135 1054 1135 1154 839 c 0,48,49
 1195 718 1195 718 1195 573 c 0,50,51
 1195 248 1195 248 1105 39 c 0,52,53
 1095 16 1095 16 1083 0.5 c 128,-1,54
 1071 -15 1071 -15 1045 -15 c 128,-1,55
 1019 -15 1019 -15 1001.5 2.5 c 128,-1,56
 984 20 984 20 984 37.5 c 128,-1,57
 984 55 984 55 1008 132 c 0,58,59
 1032 210 1032 210 1040 242 c 0,60,61
 1069 358 1069 358 1069 549 c 0,16,17
EndSplineSet
Substitution2: "'ss05' Style Set 5 lookup 16 subtable" uni0E81.1
Substitution2: "'ss01' Style Set 1 lookup 12 subtable" uni0E80
EndChar

StartChar: uni0E82
Encoding: 3714 3714 214
Width: 1120
GlyphClass: 2
Flags: W
HStem: -16 126<249.079 580.162> 106 124.5<678.985 910.444> 660 94<199.565 294.435> 1011.5 123.5<313.338 797.883>
VStem: 96 125<140.705 322.724> 96 94<763.259 857.887> 304 94<763.59 858.475> 915 125<-13.6895 94.7197 706.568 915.76>
AnchorPoint: "+BBEENQQ3BEsEPARPBD0EPQQ+BDUA--3" 1120 1135 basechar 0
AnchorPoint: "+BBEENQQ3BEsEPARPBD0EPQQ+BDUA--2" 568 1135 basechar 0
AnchorPoint: "+BBEENQQ3BEsEPARPBD0EPQQ+BDUA--1" 1120 0 basechar 0
AnchorPoint: "+BBEENQQ3BEsEPARPBD0EPQQ+BDUA--0" 568 0 basechar 0
LayerCount: 2
Fore
SplineSet
190 811 m 128,-1,1
 190 787 190 787 206.5 770.5 c 128,-1,2
 223 754 223 754 247 754 c 128,-1,3
 271 754 271 754 287.5 770.5 c 128,-1,4
 304 787 304 787 304 811 c 128,-1,5
 304 835 304 835 287.5 851.5 c 128,-1,6
 271 868 271 868 247 868 c 128,-1,7
 223 868 223 868 206.5 851.5 c 128,-1,0
 190 835 190 835 190 811 c 128,-1,1
221 235 m 0,8,9
 221 110 221 110 391 110 c 0,10,11
 457 110 457 110 511.5 129 c 0,12,13
 572 150 572 150 616 170 c 0,14,15
 750 230.5 750 230.5 828 230.5 c 128,-1,16
 906 230.5 906 230.5 973 179.25 c 128,-1,17
 1040 128 1040 128 1040 47 c 0,18,19
 1040 21 1040 21 1021.5 2.5 c 128,-1,20
 1003 -16 1003 -16 981 -16 c 0,21,22
 920 -16 920 -16 916 40 c 4,23,24
 913 74 913 74 884 90 c 128,-1,25
 855 106 855 106 819 106 c 128,-1,26
 783 106 783 106 739 87 c 0,27,28
 694 68 694 68 642 45 c 0,29,30
 503 -16 503 -16 415 -16 c 0,31,32
 259 -16 259 -16 177.5 49 c 128,-1,33
 96 114 96 114 96 236 c 0,34,35
 96 384 96 384 250 464 c 0,36,37
 336 509 336 509 427 535 c 128,-1,38
 518 561 518 561 574 578 c 128,-1,39
 630 595 630 595 690 613 c 0,40,41
 915 681 915 681 915 800 c 0,42,43
 915 911 915 911 801 966 c 0,44,45
 706 1011.5 706 1011.5 550 1011.5 c 128,-1,46
 394 1011.5 394 1011.5 290 956 c 1,47,48
 338 942 338 942 368 902.5 c 128,-1,49
 398 863 398 863 398 805.5 c 128,-1,50
 398 748 398 748 354 704 c 128,-1,51
 310 660 310 660 247 660 c 128,-1,52
 184 660 184 660 140 704 c 128,-1,53
 96 748 96 748 96 822 c 128,-1,54
 96 896 96 896 136 957 c 0,55,56
 177 1019 177 1019 241 1058 c 0,57,58
 369 1135 369 1135 558 1135 c 0,59,60
 835 1135 835 1135 963 1002 c 0,61,62
 1040 922 1040 922 1040 800 c 0,63,64
 1040 602 1040 602 766 508 c 0,65,66
 689 482 689 482 545 440.5 c 128,-1,67
 401 399 401 399 341 371 c 0,68,69
 221 315 221 315 221 235 c 0,8,9
EndSplineSet
EndChar

StartChar: uni0E83
Encoding: 3715 3715 215
Width: 1154
GlyphClass: 2
Flags: W
HStem: -16 126<267.271 596.511> 660 94<168.565 263.435> 1010 125<239.865 452.191 677.945 869.295>
VStem: 65 94<763.847 858.04> 114 125<141.727 324.346> 273 94<763.283 858.179> 499 126<763.564 856.25> 933 125<706.756 942.768>
AnchorPoint: "+BBEENQQ3BEsEPARPBD0EPQQ+BDUA--3" 1154 1135 basechar 0
AnchorPoint: "+BBEENQQ3BEsEPARPBD0EPQQ+BDUA--2" 562 1135 basechar 0
AnchorPoint: "+BBEENQQ3BEsEPARPBD0EPQQ+BDUA--1" 1154 0 basechar 0
AnchorPoint: "+BBEENQQ3BEsEPARPBD0EPQQ+BDUA--0" 0 0 basechar 0
LayerCount: 2
Fore
SplineSet
159 811 m 128,-1,1
 159 787 159 787 175.5 770.5 c 128,-1,2
 192 754 192 754 216 754 c 128,-1,3
 240 754 240 754 256.5 770.5 c 128,-1,4
 273 787 273 787 273 811 c 128,-1,5
 273 835 273 835 256.5 851.5 c 128,-1,6
 240 868 240 868 216 868 c 128,-1,7
 192 868 192 868 175.5 851.5 c 128,-1,0
 159 835 159 835 159 811 c 128,-1,1
562 745 m 0,8,9
 499 745 499 745 499 837 c 0,10,11
 499 893 499 893 462.5 951.5 c 128,-1,12
 426 1010 426 1010 357 1010 c 128,-1,13
 288 1010 288 1010 234 961 c 1,14,15
 290 955 290 955 328.5 912.5 c 128,-1,16
 367 870 367 870 367 809 c 128,-1,17
 367 748 367 748 323 704 c 128,-1,18
 279 660 279 660 216 660 c 128,-1,19
 153 660 153 660 109 704 c 128,-1,20
 65 748 65 748 65 813 c 0,21,22
 65 945 65 945 151 1040 c 128,-1,23
 237 1135 237 1135 364 1135 c 128,-1,24
 491 1135 491 1135 563 1026 c 1,25,26
 639 1135 639 1135 765.5 1135 c 128,-1,27
 892 1135 892 1135 975 1034 c 128,-1,28
 1058 933 1058 933 1058 800 c 0,29,30
 1058 603 1058 603 786 508 c 0,31,32
 695 476 695 476 597 449.5 c 128,-1,33
 499 423 499 423 427.5 399.5 c 128,-1,34
 356 376 356 376 297.5 335 c 128,-1,35
 239 294 239 294 239 235 c 0,36,37
 239 110 239 110 409 110 c 0,38,39
 472 110 472 110 527 129 c 0,40,41
 587 150 587 150 634 170 c 0,42,43
 774 230 774 230 849 230 c 128,-1,44
 924 230 924 230 991 179 c 128,-1,45
 1058 128 1058 128 1058 47 c 0,46,47
 1058 21 1058 21 1039.5 2.5 c 128,-1,48
 1021 -16 1021 -16 999 -16 c 0,49,50
 938 -16 938 -16 933 47 c 1,51,52
 913 93 913 93 878 102 c 0,53,54
 863 106 863 106 833.5 106 c 128,-1,55
 804 106 804 106 759 87 c 128,-1,56
 714 68 714 68 660 45 c 0,57,58
 517 -16 517 -16 431 -16 c 0,59,60
 278 -16 278 -16 196 49 c 128,-1,61
 114 114 114 114 114 233 c 0,62,63
 114 383 114 383 273 466 c 0,64,65
 356 509 356 509 447.5 535.5 c 128,-1,66
 539 562 539 562 593.5 578.5 c 128,-1,67
 648 595 648 595 708 613 c 0,68,69
 933 681 933 681 933 800 c 0,70,71
 933 879 933 879 887 944.5 c 128,-1,72
 841 1010 841 1010 779.5 1010 c 128,-1,73
 718 1010 718 1010 674 961.5 c 128,-1,74
 630 913 630 913 622 857 c 1,75,76
 625 833 625 833 625 807 c 128,-1,77
 625 781 625 781 606.5 763 c 128,-1,78
 588 745 588 745 562 745 c 0,8,9
EndSplineSet
Substitution2: "'ss06' Style Set 6 lookup 17 subtable" uni0E83.2
EndChar

StartChar: uni0E84
Encoding: 3716 3716 216
Width: 1206
GlyphClass: 2
Flags: W
HStem: -14 94<373.745 467.746> 194 94<372.708 467.56> 401 95<303.445 475.5> 608 95<314.879 467.498> 1010 126<372.088 843.257>
VStem: 112 125<186.4 449.048 645.146 893.78> 477 94<89.5649 184.435 497.513 597.789> 900 121<-12.9982 164.156> 985 125.5<191.108 865.747>
AnchorPoint: "+BBEENQQ3BEsEPARPBD0EPQQ+BDUA--3" 1206 1135 basechar 0
AnchorPoint: "+BBEENQQ3BEsEPARPBD0EPQQ+BDUA--2" 612 1135 basechar 0
AnchorPoint: "+BBEENQQ3BEsEPARPBD0EPQQ+BDUA--1" 1206 0 basechar 0
AnchorPoint: "+BBEENQQ3BEsEPARPBD0EPQQ+BDUA--0" 612 0 basechar 0
LayerCount: 2
Fore
SplineSet
363 137 m 128,-1,1
 363 113 363 113 379.5 96.5 c 128,-1,2
 396 80 396 80 420 80 c 128,-1,3
 444 80 444 80 460.5 96.5 c 128,-1,4
 477 113 477 113 477 137 c 128,-1,5
 477 161 477 161 460.5 177.5 c 128,-1,6
 444 194 444 194 420 194 c 128,-1,7
 396 194 396 194 379.5 177.5 c 128,-1,0
 363 161 363 161 363 137 c 128,-1,1
299 545 m 1,8,9
 344 496 344 496 420 496 c 0,10,11
 443 496 443 496 460 512.5 c 128,-1,12
 477 529 477 529 477 552 c 128,-1,13
 477 575 477 575 460 591.5 c 128,-1,14
 443 608 443 608 412 608 c 0,15,16
 349 608 349 608 299 545 c 1,8,9
252 450 m 1,17,18
 237 402 237 402 237 329 c 0,19,20
 237 257 237 257 277 185 c 1,21,22
 291 230 291 230 330.5 259 c 128,-1,23
 370 288 370 288 426.5 288 c 128,-1,24
 483 288 483 288 527 244 c 128,-1,25
 571 200 571 200 571 137 c 128,-1,26
 571 74 571 74 527 30 c 128,-1,27
 483 -14 483 -14 416 -14 c 0,28,29
 282 -14 282 -14 197 97 c 128,-1,30
 112 208 112 208 112 331 c 128,-1,31
 112 454 112 454 167 546 c 1,32,33
 112 637 112 637 112 750 c 128,-1,34
 112 863 112 863 153 932 c 0,35,36
 194 1000 194 1000 263 1046 c 0,37,38
 399 1136 399 1136 611 1136 c 0,39,40
 900 1136 900 1136 1012 988 c 0,41,42
 1110.5 858 1110.5 858 1110.5 553 c 128,-1,43
 1110.5 248 1110.5 248 1021 39 c 0,44,45
 1011 16 1011 16 999 0.5 c 128,-1,46
 987 -15 987 -15 961 -15 c 128,-1,47
 935 -15 935 -15 917.5 2.5 c 128,-1,48
 900 20 900 20 900 36.5 c 128,-1,49
 900 53 900 53 922 125.5 c 128,-1,50
 944 198 944 198 964.5 279 c 128,-1,51
 985 360 985 360 985 520 c 0,52,53
 985 681 985 681 970.5 766.5 c 0,54,55
 956 853 956 853 916 906 c 0,56,57
 838 1010 838 1010 600 1010 c 128,-1,58
 362 1010 362 1010 270 881 c 0,59,60
 238 836 238 836 238 764 c 0,61,62
 238 694 238 694 251 643 c 1,63,64
 326 703 326 703 404 703 c 128,-1,65
 482 703 482 703 526.5 658.5 c 128,-1,66
 571 614 571 614 571 552 c 128,-1,67
 571 490 571 490 526.5 445.5 c 128,-1,68
 482 401 482 401 402 401 c 128,-1,69
 322 401 322 401 252 450 c 1,17,18
EndSplineSet
Substitution2: "'ss05' Style Set 5 lookup 16 subtable" uni0E84.1
EndChar

